<?xml version="1.0" encoding="utf-8" standalone="no"?>
<!DOCTYPE svg PUBLIC "-//W3C//DTD SVG 1.1//EN"
  "http://www.w3.org/Graphics/SVG/1.1/DTD/svg11.dtd">
<svg xmlns:xlink="http://www.w3.org/1999/xlink" width="432pt" height="1324.8pt" viewBox="0 0 432 1324.8" xmlns="http://www.w3.org/2000/svg" version="1.1">
 <metadata>
  <rdf:RDF xmlns:dc="http://purl.org/dc/elements/1.1/" xmlns:cc="http://creativecommons.org/ns#" xmlns:rdf="http://www.w3.org/1999/02/22-rdf-syntax-ns#">
   <cc:Work>
    <dc:type rdf:resource="http://purl.org/dc/dcmitype/StillImage"/>
    <dc:date>2023-12-18T04:17:02.140591</dc:date>
    <dc:format>image/svg+xml</dc:format>
    <dc:creator>
     <cc:Agent>
      <dc:title>Matplotlib v3.8.0, https://matplotlib.org/</dc:title>
     </cc:Agent>
    </dc:creator>
   </cc:Work>
  </rdf:RDF>
 </metadata>
 <defs>
  <style type="text/css">*{stroke-linejoin: round; stroke-linecap: butt}</style>
 </defs>
 <g id="figure_1">
  <g id="patch_1">
   <path d="M 0 1324.8 
L 432 1324.8 
L 432 0 
L 0 0 
z
" style="fill: #ffffff"/>
  </g>
  <g id="axes_1">
   <g id="patch_2">
    <path d="M 54 1179.072 
L 388.8 1179.072 
L 388.8 158.976 
L 54 158.976 
z
" style="fill: #ffffff"/>
   </g>
   <g id="matplotlib.axis_1">
    <g id="xtick_1">
     <g id="line2d_1">
      <defs>
       <path id="m07f5a884c7" d="M 0 0 
L 0 3.5 
" style="stroke: #000000; stroke-width: 0.8"/>
      </defs>
      <g>
       <use xlink:href="#m07f5a884c7" x="68.775775" y="1179.072" style="stroke: #000000; stroke-width: 0.8"/>
      </g>
     </g>
     <g id="text_1">
      <!-- −0.50 -->
      <g transform="translate(47.324056 1196.709812) scale(0.14 -0.14)">
       <defs>
        <path id="DejaVuSans-2212" d="M 678 2272 
L 4684 2272 
L 4684 1741 
L 678 1741 
L 678 2272 
z
" transform="scale(0.015625)"/>
        <path id="DejaVuSans-30" d="M 2034 4250 
Q 1547 4250 1301 3770 
Q 1056 3291 1056 2328 
Q 1056 1369 1301 889 
Q 1547 409 2034 409 
Q 2525 409 2770 889 
Q 3016 1369 3016 2328 
Q 3016 3291 2770 3770 
Q 2525 4250 2034 4250 
z
M 2034 4750 
Q 2819 4750 3233 4129 
Q 3647 3509 3647 2328 
Q 3647 1150 3233 529 
Q 2819 -91 2034 -91 
Q 1250 -91 836 529 
Q 422 1150 422 2328 
Q 422 3509 836 4129 
Q 1250 4750 2034 4750 
z
" transform="scale(0.015625)"/>
        <path id="DejaVuSans-2e" d="M 684 794 
L 1344 794 
L 1344 0 
L 684 0 
L 684 794 
z
" transform="scale(0.015625)"/>
        <path id="DejaVuSans-35" d="M 691 4666 
L 3169 4666 
L 3169 4134 
L 1269 4134 
L 1269 2991 
Q 1406 3038 1543 3061 
Q 1681 3084 1819 3084 
Q 2600 3084 3056 2656 
Q 3513 2228 3513 1497 
Q 3513 744 3044 326 
Q 2575 -91 1722 -91 
Q 1428 -91 1123 -41 
Q 819 9 494 109 
L 494 744 
Q 775 591 1075 516 
Q 1375 441 1709 441 
Q 2250 441 2565 725 
Q 2881 1009 2881 1497 
Q 2881 1984 2565 2268 
Q 2250 2553 1709 2553 
Q 1456 2553 1204 2497 
Q 953 2441 691 2322 
L 691 4666 
z
" transform="scale(0.015625)"/>
       </defs>
       <use xlink:href="#DejaVuSans-2212"/>
       <use xlink:href="#DejaVuSans-30" x="83.789062"/>
       <use xlink:href="#DejaVuSans-2e" x="147.412109"/>
       <use xlink:href="#DejaVuSans-35" x="179.199219"/>
       <use xlink:href="#DejaVuSans-30" x="242.822266"/>
      </g>
     </g>
    </g>
    <g id="xtick_2">
     <g id="line2d_2">
      <g>
       <use xlink:href="#m07f5a884c7" x="127.366277" y="1179.072" style="stroke: #000000; stroke-width: 0.8"/>
      </g>
     </g>
     <g id="text_2">
      <!-- −0.25 -->
      <g transform="translate(105.914558 1196.709812) scale(0.14 -0.14)">
       <defs>
        <path id="DejaVuSans-32" d="M 1228 531 
L 3431 531 
L 3431 0 
L 469 0 
L 469 531 
Q 828 903 1448 1529 
Q 2069 2156 2228 2338 
Q 2531 2678 2651 2914 
Q 2772 3150 2772 3378 
Q 2772 3750 2511 3984 
Q 2250 4219 1831 4219 
Q 1534 4219 1204 4116 
Q 875 4013 500 3803 
L 500 4441 
Q 881 4594 1212 4672 
Q 1544 4750 1819 4750 
Q 2544 4750 2975 4387 
Q 3406 4025 3406 3419 
Q 3406 3131 3298 2873 
Q 3191 2616 2906 2266 
Q 2828 2175 2409 1742 
Q 1991 1309 1228 531 
z
" transform="scale(0.015625)"/>
       </defs>
       <use xlink:href="#DejaVuSans-2212"/>
       <use xlink:href="#DejaVuSans-30" x="83.789062"/>
       <use xlink:href="#DejaVuSans-2e" x="147.412109"/>
       <use xlink:href="#DejaVuSans-32" x="179.199219"/>
       <use xlink:href="#DejaVuSans-35" x="242.822266"/>
      </g>
     </g>
    </g>
    <g id="xtick_3">
     <g id="line2d_3">
      <g>
       <use xlink:href="#m07f5a884c7" x="185.956779" y="1179.072" style="stroke: #000000; stroke-width: 0.8"/>
      </g>
     </g>
     <g id="text_3">
      <!-- 0.00 -->
      <g transform="translate(170.370841 1196.709812) scale(0.14 -0.14)">
       <use xlink:href="#DejaVuSans-30"/>
       <use xlink:href="#DejaVuSans-2e" x="63.623047"/>
       <use xlink:href="#DejaVuSans-30" x="95.410156"/>
       <use xlink:href="#DejaVuSans-30" x="159.033203"/>
      </g>
     </g>
    </g>
    <g id="xtick_4">
     <g id="line2d_4">
      <g>
       <use xlink:href="#m07f5a884c7" x="244.547281" y="1179.072" style="stroke: #000000; stroke-width: 0.8"/>
      </g>
     </g>
     <g id="text_4">
      <!-- 0.25 -->
      <g transform="translate(228.961343 1196.709812) scale(0.14 -0.14)">
       <use xlink:href="#DejaVuSans-30"/>
       <use xlink:href="#DejaVuSans-2e" x="63.623047"/>
       <use xlink:href="#DejaVuSans-32" x="95.410156"/>
       <use xlink:href="#DejaVuSans-35" x="159.033203"/>
      </g>
     </g>
    </g>
    <g id="xtick_5">
     <g id="line2d_5">
      <g>
       <use xlink:href="#m07f5a884c7" x="303.137783" y="1179.072" style="stroke: #000000; stroke-width: 0.8"/>
      </g>
     </g>
     <g id="text_5">
      <!-- 0.50 -->
      <g transform="translate(287.551845 1196.709812) scale(0.14 -0.14)">
       <use xlink:href="#DejaVuSans-30"/>
       <use xlink:href="#DejaVuSans-2e" x="63.623047"/>
       <use xlink:href="#DejaVuSans-35" x="95.410156"/>
       <use xlink:href="#DejaVuSans-30" x="159.033203"/>
      </g>
     </g>
    </g>
    <g id="xtick_6">
     <g id="line2d_6">
      <g>
       <use xlink:href="#m07f5a884c7" x="361.728285" y="1179.072" style="stroke: #000000; stroke-width: 0.8"/>
      </g>
     </g>
     <g id="text_6">
      <!-- 0.75 -->
      <g transform="translate(346.142347 1196.709812) scale(0.14 -0.14)">
       <defs>
        <path id="DejaVuSans-37" d="M 525 4666 
L 3525 4666 
L 3525 4397 
L 1831 0 
L 1172 0 
L 2766 4134 
L 525 4134 
L 525 4666 
z
" transform="scale(0.015625)"/>
       </defs>
       <use xlink:href="#DejaVuSans-30"/>
       <use xlink:href="#DejaVuSans-2e" x="63.623047"/>
       <use xlink:href="#DejaVuSans-37" x="95.410156"/>
       <use xlink:href="#DejaVuSans-35" x="159.033203"/>
      </g>
     </g>
    </g>
   </g>
   <g id="matplotlib.axis_2">
    <g id="ytick_1">
     <g id="text_7">
      <!-- beta_undergrad_edu_occ -->
      <g transform="translate(-128.774375 1160.102906) scale(0.14 -0.14)">
       <defs>
        <path id="DejaVuSans-62" d="M 3116 1747 
Q 3116 2381 2855 2742 
Q 2594 3103 2138 3103 
Q 1681 3103 1420 2742 
Q 1159 2381 1159 1747 
Q 1159 1113 1420 752 
Q 1681 391 2138 391 
Q 2594 391 2855 752 
Q 3116 1113 3116 1747 
z
M 1159 2969 
Q 1341 3281 1617 3432 
Q 1894 3584 2278 3584 
Q 2916 3584 3314 3078 
Q 3713 2572 3713 1747 
Q 3713 922 3314 415 
Q 2916 -91 2278 -91 
Q 1894 -91 1617 61 
Q 1341 213 1159 525 
L 1159 0 
L 581 0 
L 581 4863 
L 1159 4863 
L 1159 2969 
z
" transform="scale(0.015625)"/>
        <path id="DejaVuSans-65" d="M 3597 1894 
L 3597 1613 
L 953 1613 
Q 991 1019 1311 708 
Q 1631 397 2203 397 
Q 2534 397 2845 478 
Q 3156 559 3463 722 
L 3463 178 
Q 3153 47 2828 -22 
Q 2503 -91 2169 -91 
Q 1331 -91 842 396 
Q 353 884 353 1716 
Q 353 2575 817 3079 
Q 1281 3584 2069 3584 
Q 2775 3584 3186 3129 
Q 3597 2675 3597 1894 
z
M 3022 2063 
Q 3016 2534 2758 2815 
Q 2500 3097 2075 3097 
Q 1594 3097 1305 2825 
Q 1016 2553 972 2059 
L 3022 2063 
z
" transform="scale(0.015625)"/>
        <path id="DejaVuSans-74" d="M 1172 4494 
L 1172 3500 
L 2356 3500 
L 2356 3053 
L 1172 3053 
L 1172 1153 
Q 1172 725 1289 603 
Q 1406 481 1766 481 
L 2356 481 
L 2356 0 
L 1766 0 
Q 1100 0 847 248 
Q 594 497 594 1153 
L 594 3053 
L 172 3053 
L 172 3500 
L 594 3500 
L 594 4494 
L 1172 4494 
z
" transform="scale(0.015625)"/>
        <path id="DejaVuSans-61" d="M 2194 1759 
Q 1497 1759 1228 1600 
Q 959 1441 959 1056 
Q 959 750 1161 570 
Q 1363 391 1709 391 
Q 2188 391 2477 730 
Q 2766 1069 2766 1631 
L 2766 1759 
L 2194 1759 
z
M 3341 1997 
L 3341 0 
L 2766 0 
L 2766 531 
Q 2569 213 2275 61 
Q 1981 -91 1556 -91 
Q 1019 -91 701 211 
Q 384 513 384 1019 
Q 384 1609 779 1909 
Q 1175 2209 1959 2209 
L 2766 2209 
L 2766 2266 
Q 2766 2663 2505 2880 
Q 2244 3097 1772 3097 
Q 1472 3097 1187 3025 
Q 903 2953 641 2809 
L 641 3341 
Q 956 3463 1253 3523 
Q 1550 3584 1831 3584 
Q 2591 3584 2966 3190 
Q 3341 2797 3341 1997 
z
" transform="scale(0.015625)"/>
        <path id="DejaVuSans-5f" d="M 3263 -1063 
L 3263 -1509 
L -63 -1509 
L -63 -1063 
L 3263 -1063 
z
" transform="scale(0.015625)"/>
        <path id="DejaVuSans-75" d="M 544 1381 
L 544 3500 
L 1119 3500 
L 1119 1403 
Q 1119 906 1312 657 
Q 1506 409 1894 409 
Q 2359 409 2629 706 
Q 2900 1003 2900 1516 
L 2900 3500 
L 3475 3500 
L 3475 0 
L 2900 0 
L 2900 538 
Q 2691 219 2414 64 
Q 2138 -91 1772 -91 
Q 1169 -91 856 284 
Q 544 659 544 1381 
z
M 1991 3584 
L 1991 3584 
z
" transform="scale(0.015625)"/>
        <path id="DejaVuSans-6e" d="M 3513 2113 
L 3513 0 
L 2938 0 
L 2938 2094 
Q 2938 2591 2744 2837 
Q 2550 3084 2163 3084 
Q 1697 3084 1428 2787 
Q 1159 2491 1159 1978 
L 1159 0 
L 581 0 
L 581 3500 
L 1159 3500 
L 1159 2956 
Q 1366 3272 1645 3428 
Q 1925 3584 2291 3584 
Q 2894 3584 3203 3211 
Q 3513 2838 3513 2113 
z
" transform="scale(0.015625)"/>
        <path id="DejaVuSans-64" d="M 2906 2969 
L 2906 4863 
L 3481 4863 
L 3481 0 
L 2906 0 
L 2906 525 
Q 2725 213 2448 61 
Q 2172 -91 1784 -91 
Q 1150 -91 751 415 
Q 353 922 353 1747 
Q 353 2572 751 3078 
Q 1150 3584 1784 3584 
Q 2172 3584 2448 3432 
Q 2725 3281 2906 2969 
z
M 947 1747 
Q 947 1113 1208 752 
Q 1469 391 1925 391 
Q 2381 391 2643 752 
Q 2906 1113 2906 1747 
Q 2906 2381 2643 2742 
Q 2381 3103 1925 3103 
Q 1469 3103 1208 2742 
Q 947 2381 947 1747 
z
" transform="scale(0.015625)"/>
        <path id="DejaVuSans-72" d="M 2631 2963 
Q 2534 3019 2420 3045 
Q 2306 3072 2169 3072 
Q 1681 3072 1420 2755 
Q 1159 2438 1159 1844 
L 1159 0 
L 581 0 
L 581 3500 
L 1159 3500 
L 1159 2956 
Q 1341 3275 1631 3429 
Q 1922 3584 2338 3584 
Q 2397 3584 2469 3576 
Q 2541 3569 2628 3553 
L 2631 2963 
z
" transform="scale(0.015625)"/>
        <path id="DejaVuSans-67" d="M 2906 1791 
Q 2906 2416 2648 2759 
Q 2391 3103 1925 3103 
Q 1463 3103 1205 2759 
Q 947 2416 947 1791 
Q 947 1169 1205 825 
Q 1463 481 1925 481 
Q 2391 481 2648 825 
Q 2906 1169 2906 1791 
z
M 3481 434 
Q 3481 -459 3084 -895 
Q 2688 -1331 1869 -1331 
Q 1566 -1331 1297 -1286 
Q 1028 -1241 775 -1147 
L 775 -588 
Q 1028 -725 1275 -790 
Q 1522 -856 1778 -856 
Q 2344 -856 2625 -561 
Q 2906 -266 2906 331 
L 2906 616 
Q 2728 306 2450 153 
Q 2172 0 1784 0 
Q 1141 0 747 490 
Q 353 981 353 1791 
Q 353 2603 747 3093 
Q 1141 3584 1784 3584 
Q 2172 3584 2450 3431 
Q 2728 3278 2906 2969 
L 2906 3500 
L 3481 3500 
L 3481 434 
z
" transform="scale(0.015625)"/>
        <path id="DejaVuSans-6f" d="M 1959 3097 
Q 1497 3097 1228 2736 
Q 959 2375 959 1747 
Q 959 1119 1226 758 
Q 1494 397 1959 397 
Q 2419 397 2687 759 
Q 2956 1122 2956 1747 
Q 2956 2369 2687 2733 
Q 2419 3097 1959 3097 
z
M 1959 3584 
Q 2709 3584 3137 3096 
Q 3566 2609 3566 1747 
Q 3566 888 3137 398 
Q 2709 -91 1959 -91 
Q 1206 -91 779 398 
Q 353 888 353 1747 
Q 353 2609 779 3096 
Q 1206 3584 1959 3584 
z
" transform="scale(0.015625)"/>
        <path id="DejaVuSans-63" d="M 3122 3366 
L 3122 2828 
Q 2878 2963 2633 3030 
Q 2388 3097 2138 3097 
Q 1578 3097 1268 2742 
Q 959 2388 959 1747 
Q 959 1106 1268 751 
Q 1578 397 2138 397 
Q 2388 397 2633 464 
Q 2878 531 3122 666 
L 3122 134 
Q 2881 22 2623 -34 
Q 2366 -91 2075 -91 
Q 1284 -91 818 406 
Q 353 903 353 1747 
Q 353 2603 823 3093 
Q 1294 3584 2113 3584 
Q 2378 3584 2631 3529 
Q 2884 3475 3122 3366 
z
" transform="scale(0.015625)"/>
       </defs>
       <use xlink:href="#DejaVuSans-62"/>
       <use xlink:href="#DejaVuSans-65" x="63.476562"/>
       <use xlink:href="#DejaVuSans-74" x="125"/>
       <use xlink:href="#DejaVuSans-61" x="164.208984"/>
       <use xlink:href="#DejaVuSans-5f" x="225.488281"/>
       <use xlink:href="#DejaVuSans-75" x="275.488281"/>
       <use xlink:href="#DejaVuSans-6e" x="338.867188"/>
       <use xlink:href="#DejaVuSans-64" x="402.246094"/>
       <use xlink:href="#DejaVuSans-65" x="465.722656"/>
       <use xlink:href="#DejaVuSans-72" x="527.246094"/>
       <use xlink:href="#DejaVuSans-67" x="566.609375"/>
       <use xlink:href="#DejaVuSans-72" x="630.085938"/>
       <use xlink:href="#DejaVuSans-61" x="671.199219"/>
       <use xlink:href="#DejaVuSans-64" x="732.478516"/>
       <use xlink:href="#DejaVuSans-5f" x="795.955078"/>
       <use xlink:href="#DejaVuSans-65" x="845.955078"/>
       <use xlink:href="#DejaVuSans-64" x="907.478516"/>
       <use xlink:href="#DejaVuSans-75" x="970.955078"/>
       <use xlink:href="#DejaVuSans-5f" x="1034.333984"/>
       <use xlink:href="#DejaVuSans-6f" x="1084.333984"/>
       <use xlink:href="#DejaVuSans-63" x="1145.515625"/>
       <use xlink:href="#DejaVuSans-63" x="1200.496094"/>
      </g>
     </g>
    </g>
    <g id="ytick_2">
     <g id="text_8">
      <!-- beta_undergrad_edu_ind -->
      <g transform="translate(-126.462188 1087.238906) scale(0.14 -0.14)">
       <defs>
        <path id="DejaVuSans-69" d="M 603 3500 
L 1178 3500 
L 1178 0 
L 603 0 
L 603 3500 
z
M 603 4863 
L 1178 4863 
L 1178 4134 
L 603 4134 
L 603 4863 
z
" transform="scale(0.015625)"/>
       </defs>
       <use xlink:href="#DejaVuSans-62"/>
       <use xlink:href="#DejaVuSans-65" x="63.476562"/>
       <use xlink:href="#DejaVuSans-74" x="125"/>
       <use xlink:href="#DejaVuSans-61" x="164.208984"/>
       <use xlink:href="#DejaVuSans-5f" x="225.488281"/>
       <use xlink:href="#DejaVuSans-75" x="275.488281"/>
       <use xlink:href="#DejaVuSans-6e" x="338.867188"/>
       <use xlink:href="#DejaVuSans-64" x="402.246094"/>
       <use xlink:href="#DejaVuSans-65" x="465.722656"/>
       <use xlink:href="#DejaVuSans-72" x="527.246094"/>
       <use xlink:href="#DejaVuSans-67" x="566.609375"/>
       <use xlink:href="#DejaVuSans-72" x="630.085938"/>
       <use xlink:href="#DejaVuSans-61" x="671.199219"/>
       <use xlink:href="#DejaVuSans-64" x="732.478516"/>
       <use xlink:href="#DejaVuSans-5f" x="795.955078"/>
       <use xlink:href="#DejaVuSans-65" x="845.955078"/>
       <use xlink:href="#DejaVuSans-64" x="907.478516"/>
       <use xlink:href="#DejaVuSans-75" x="970.955078"/>
       <use xlink:href="#DejaVuSans-5f" x="1034.333984"/>
       <use xlink:href="#DejaVuSans-69" x="1084.333984"/>
       <use xlink:href="#DejaVuSans-6e" x="1112.117188"/>
       <use xlink:href="#DejaVuSans-64" x="1175.496094"/>
      </g>
     </g>
    </g>
    <g id="ytick_3">
     <g id="text_9">
      <!-- beta_sex_occ -->
      <g transform="translate(-46.480625 1014.374906) scale(0.14 -0.14)">
       <defs>
        <path id="DejaVuSans-73" d="M 2834 3397 
L 2834 2853 
Q 2591 2978 2328 3040 
Q 2066 3103 1784 3103 
Q 1356 3103 1142 2972 
Q 928 2841 928 2578 
Q 928 2378 1081 2264 
Q 1234 2150 1697 2047 
L 1894 2003 
Q 2506 1872 2764 1633 
Q 3022 1394 3022 966 
Q 3022 478 2636 193 
Q 2250 -91 1575 -91 
Q 1294 -91 989 -36 
Q 684 19 347 128 
L 347 722 
Q 666 556 975 473 
Q 1284 391 1588 391 
Q 1994 391 2212 530 
Q 2431 669 2431 922 
Q 2431 1156 2273 1281 
Q 2116 1406 1581 1522 
L 1381 1569 
Q 847 1681 609 1914 
Q 372 2147 372 2553 
Q 372 3047 722 3315 
Q 1072 3584 1716 3584 
Q 2034 3584 2315 3537 
Q 2597 3491 2834 3397 
z
" transform="scale(0.015625)"/>
        <path id="DejaVuSans-78" d="M 3513 3500 
L 2247 1797 
L 3578 0 
L 2900 0 
L 1881 1375 
L 863 0 
L 184 0 
L 1544 1831 
L 300 3500 
L 978 3500 
L 1906 2253 
L 2834 3500 
L 3513 3500 
z
" transform="scale(0.015625)"/>
       </defs>
       <use xlink:href="#DejaVuSans-62"/>
       <use xlink:href="#DejaVuSans-65" x="63.476562"/>
       <use xlink:href="#DejaVuSans-74" x="125"/>
       <use xlink:href="#DejaVuSans-61" x="164.208984"/>
       <use xlink:href="#DejaVuSans-5f" x="225.488281"/>
       <use xlink:href="#DejaVuSans-73" x="275.488281"/>
       <use xlink:href="#DejaVuSans-65" x="327.587891"/>
       <use xlink:href="#DejaVuSans-78" x="387.361328"/>
       <use xlink:href="#DejaVuSans-5f" x="446.541016"/>
       <use xlink:href="#DejaVuSans-6f" x="496.541016"/>
       <use xlink:href="#DejaVuSans-63" x="557.722656"/>
       <use xlink:href="#DejaVuSans-63" x="612.703125"/>
      </g>
     </g>
    </g>
    <g id="ytick_4">
     <g id="text_10">
      <!-- beta_sex_ind -->
      <g transform="translate(-44.168438 941.510906) scale(0.14 -0.14)">
       <use xlink:href="#DejaVuSans-62"/>
       <use xlink:href="#DejaVuSans-65" x="63.476562"/>
       <use xlink:href="#DejaVuSans-74" x="125"/>
       <use xlink:href="#DejaVuSans-61" x="164.208984"/>
       <use xlink:href="#DejaVuSans-5f" x="225.488281"/>
       <use xlink:href="#DejaVuSans-73" x="275.488281"/>
       <use xlink:href="#DejaVuSans-65" x="327.587891"/>
       <use xlink:href="#DejaVuSans-78" x="387.361328"/>
       <use xlink:href="#DejaVuSans-5f" x="446.541016"/>
       <use xlink:href="#DejaVuSans-69" x="496.541016"/>
       <use xlink:href="#DejaVuSans-6e" x="524.324219"/>
       <use xlink:href="#DejaVuSans-64" x="587.703125"/>
      </g>
     </g>
    </g>
    <g id="ytick_5">
     <g id="text_11">
      <!-- beta_postsec_edu_occ -->
      <g transform="translate(-109.7475 868.646906) scale(0.14 -0.14)">
       <defs>
        <path id="DejaVuSans-70" d="M 1159 525 
L 1159 -1331 
L 581 -1331 
L 581 3500 
L 1159 3500 
L 1159 2969 
Q 1341 3281 1617 3432 
Q 1894 3584 2278 3584 
Q 2916 3584 3314 3078 
Q 3713 2572 3713 1747 
Q 3713 922 3314 415 
Q 2916 -91 2278 -91 
Q 1894 -91 1617 61 
Q 1341 213 1159 525 
z
M 3116 1747 
Q 3116 2381 2855 2742 
Q 2594 3103 2138 3103 
Q 1681 3103 1420 2742 
Q 1159 2381 1159 1747 
Q 1159 1113 1420 752 
Q 1681 391 2138 391 
Q 2594 391 2855 752 
Q 3116 1113 3116 1747 
z
" transform="scale(0.015625)"/>
       </defs>
       <use xlink:href="#DejaVuSans-62"/>
       <use xlink:href="#DejaVuSans-65" x="63.476562"/>
       <use xlink:href="#DejaVuSans-74" x="125"/>
       <use xlink:href="#DejaVuSans-61" x="164.208984"/>
       <use xlink:href="#DejaVuSans-5f" x="225.488281"/>
       <use xlink:href="#DejaVuSans-70" x="275.488281"/>
       <use xlink:href="#DejaVuSans-6f" x="338.964844"/>
       <use xlink:href="#DejaVuSans-73" x="400.146484"/>
       <use xlink:href="#DejaVuSans-74" x="452.246094"/>
       <use xlink:href="#DejaVuSans-73" x="491.455078"/>
       <use xlink:href="#DejaVuSans-65" x="543.554688"/>
       <use xlink:href="#DejaVuSans-63" x="605.078125"/>
       <use xlink:href="#DejaVuSans-5f" x="660.058594"/>
       <use xlink:href="#DejaVuSans-65" x="710.058594"/>
       <use xlink:href="#DejaVuSans-64" x="771.582031"/>
       <use xlink:href="#DejaVuSans-75" x="835.058594"/>
       <use xlink:href="#DejaVuSans-5f" x="898.4375"/>
       <use xlink:href="#DejaVuSans-6f" x="948.4375"/>
       <use xlink:href="#DejaVuSans-63" x="1009.619141"/>
       <use xlink:href="#DejaVuSans-63" x="1064.599609"/>
      </g>
     </g>
    </g>
    <g id="ytick_6">
     <g id="text_12">
      <!-- beta_postsec_edu_ind -->
      <g transform="translate(-107.435313 795.782906) scale(0.14 -0.14)">
       <use xlink:href="#DejaVuSans-62"/>
       <use xlink:href="#DejaVuSans-65" x="63.476562"/>
       <use xlink:href="#DejaVuSans-74" x="125"/>
       <use xlink:href="#DejaVuSans-61" x="164.208984"/>
       <use xlink:href="#DejaVuSans-5f" x="225.488281"/>
       <use xlink:href="#DejaVuSans-70" x="275.488281"/>
       <use xlink:href="#DejaVuSans-6f" x="338.964844"/>
       <use xlink:href="#DejaVuSans-73" x="400.146484"/>
       <use xlink:href="#DejaVuSans-74" x="452.246094"/>
       <use xlink:href="#DejaVuSans-73" x="491.455078"/>
       <use xlink:href="#DejaVuSans-65" x="543.554688"/>
       <use xlink:href="#DejaVuSans-63" x="605.078125"/>
       <use xlink:href="#DejaVuSans-5f" x="660.058594"/>
       <use xlink:href="#DejaVuSans-65" x="710.058594"/>
       <use xlink:href="#DejaVuSans-64" x="771.582031"/>
       <use xlink:href="#DejaVuSans-75" x="835.058594"/>
       <use xlink:href="#DejaVuSans-5f" x="898.4375"/>
       <use xlink:href="#DejaVuSans-69" x="948.4375"/>
       <use xlink:href="#DejaVuSans-6e" x="976.220703"/>
       <use xlink:href="#DejaVuSans-64" x="1039.599609"/>
      </g>
     </g>
    </g>
    <g id="ytick_7">
     <g id="text_13">
      <!-- beta_highschool_edu_occ -->
      <g transform="translate(-131.314063 722.918906) scale(0.14 -0.14)">
       <defs>
        <path id="DejaVuSans-68" d="M 3513 2113 
L 3513 0 
L 2938 0 
L 2938 2094 
Q 2938 2591 2744 2837 
Q 2550 3084 2163 3084 
Q 1697 3084 1428 2787 
Q 1159 2491 1159 1978 
L 1159 0 
L 581 0 
L 581 4863 
L 1159 4863 
L 1159 2956 
Q 1366 3272 1645 3428 
Q 1925 3584 2291 3584 
Q 2894 3584 3203 3211 
Q 3513 2838 3513 2113 
z
" transform="scale(0.015625)"/>
        <path id="DejaVuSans-6c" d="M 603 4863 
L 1178 4863 
L 1178 0 
L 603 0 
L 603 4863 
z
" transform="scale(0.015625)"/>
       </defs>
       <use xlink:href="#DejaVuSans-62"/>
       <use xlink:href="#DejaVuSans-65" x="63.476562"/>
       <use xlink:href="#DejaVuSans-74" x="125"/>
       <use xlink:href="#DejaVuSans-61" x="164.208984"/>
       <use xlink:href="#DejaVuSans-5f" x="225.488281"/>
       <use xlink:href="#DejaVuSans-68" x="275.488281"/>
       <use xlink:href="#DejaVuSans-69" x="338.867188"/>
       <use xlink:href="#DejaVuSans-67" x="366.650391"/>
       <use xlink:href="#DejaVuSans-68" x="430.126953"/>
       <use xlink:href="#DejaVuSans-73" x="493.505859"/>
       <use xlink:href="#DejaVuSans-63" x="545.605469"/>
       <use xlink:href="#DejaVuSans-68" x="600.585938"/>
       <use xlink:href="#DejaVuSans-6f" x="663.964844"/>
       <use xlink:href="#DejaVuSans-6f" x="725.146484"/>
       <use xlink:href="#DejaVuSans-6c" x="786.328125"/>
       <use xlink:href="#DejaVuSans-5f" x="814.111328"/>
       <use xlink:href="#DejaVuSans-65" x="864.111328"/>
       <use xlink:href="#DejaVuSans-64" x="925.634766"/>
       <use xlink:href="#DejaVuSans-75" x="989.111328"/>
       <use xlink:href="#DejaVuSans-5f" x="1052.490234"/>
       <use xlink:href="#DejaVuSans-6f" x="1102.490234"/>
       <use xlink:href="#DejaVuSans-63" x="1163.671875"/>
       <use xlink:href="#DejaVuSans-63" x="1218.652344"/>
      </g>
     </g>
    </g>
    <g id="ytick_8">
     <g id="text_14">
      <!-- beta_highschool_edu_ind -->
      <g transform="translate(-129.001875 650.054906) scale(0.14 -0.14)">
       <use xlink:href="#DejaVuSans-62"/>
       <use xlink:href="#DejaVuSans-65" x="63.476562"/>
       <use xlink:href="#DejaVuSans-74" x="125"/>
       <use xlink:href="#DejaVuSans-61" x="164.208984"/>
       <use xlink:href="#DejaVuSans-5f" x="225.488281"/>
       <use xlink:href="#DejaVuSans-68" x="275.488281"/>
       <use xlink:href="#DejaVuSans-69" x="338.867188"/>
       <use xlink:href="#DejaVuSans-67" x="366.650391"/>
       <use xlink:href="#DejaVuSans-68" x="430.126953"/>
       <use xlink:href="#DejaVuSans-73" x="493.505859"/>
       <use xlink:href="#DejaVuSans-63" x="545.605469"/>
       <use xlink:href="#DejaVuSans-68" x="600.585938"/>
       <use xlink:href="#DejaVuSans-6f" x="663.964844"/>
       <use xlink:href="#DejaVuSans-6f" x="725.146484"/>
       <use xlink:href="#DejaVuSans-6c" x="786.328125"/>
       <use xlink:href="#DejaVuSans-5f" x="814.111328"/>
       <use xlink:href="#DejaVuSans-65" x="864.111328"/>
       <use xlink:href="#DejaVuSans-64" x="925.634766"/>
       <use xlink:href="#DejaVuSans-75" x="989.111328"/>
       <use xlink:href="#DejaVuSans-5f" x="1052.490234"/>
       <use xlink:href="#DejaVuSans-69" x="1102.490234"/>
       <use xlink:href="#DejaVuSans-6e" x="1130.273438"/>
       <use xlink:href="#DejaVuSans-64" x="1193.652344"/>
      </g>
     </g>
    </g>
    <g id="ytick_9">
     <g id="text_15">
      <!-- beta_graduate_edu_occ -->
      <g transform="translate(-119.571563 577.190906) scale(0.14 -0.14)">
       <use xlink:href="#DejaVuSans-62"/>
       <use xlink:href="#DejaVuSans-65" x="63.476562"/>
       <use xlink:href="#DejaVuSans-74" x="125"/>
       <use xlink:href="#DejaVuSans-61" x="164.208984"/>
       <use xlink:href="#DejaVuSans-5f" x="225.488281"/>
       <use xlink:href="#DejaVuSans-67" x="275.488281"/>
       <use xlink:href="#DejaVuSans-72" x="338.964844"/>
       <use xlink:href="#DejaVuSans-61" x="380.078125"/>
       <use xlink:href="#DejaVuSans-64" x="441.357422"/>
       <use xlink:href="#DejaVuSans-75" x="504.833984"/>
       <use xlink:href="#DejaVuSans-61" x="568.212891"/>
       <use xlink:href="#DejaVuSans-74" x="629.492188"/>
       <use xlink:href="#DejaVuSans-65" x="668.701172"/>
       <use xlink:href="#DejaVuSans-5f" x="730.224609"/>
       <use xlink:href="#DejaVuSans-65" x="780.224609"/>
       <use xlink:href="#DejaVuSans-64" x="841.748047"/>
       <use xlink:href="#DejaVuSans-75" x="905.224609"/>
       <use xlink:href="#DejaVuSans-5f" x="968.603516"/>
       <use xlink:href="#DejaVuSans-6f" x="1018.603516"/>
       <use xlink:href="#DejaVuSans-63" x="1079.785156"/>
       <use xlink:href="#DejaVuSans-63" x="1134.765625"/>
      </g>
     </g>
    </g>
    <g id="ytick_10">
     <g id="text_16">
      <!-- beta_graduate_edu_ind -->
      <g transform="translate(-117.259375 504.326906) scale(0.14 -0.14)">
       <use xlink:href="#DejaVuSans-62"/>
       <use xlink:href="#DejaVuSans-65" x="63.476562"/>
       <use xlink:href="#DejaVuSans-74" x="125"/>
       <use xlink:href="#DejaVuSans-61" x="164.208984"/>
       <use xlink:href="#DejaVuSans-5f" x="225.488281"/>
       <use xlink:href="#DejaVuSans-67" x="275.488281"/>
       <use xlink:href="#DejaVuSans-72" x="338.964844"/>
       <use xlink:href="#DejaVuSans-61" x="380.078125"/>
       <use xlink:href="#DejaVuSans-64" x="441.357422"/>
       <use xlink:href="#DejaVuSans-75" x="504.833984"/>
       <use xlink:href="#DejaVuSans-61" x="568.212891"/>
       <use xlink:href="#DejaVuSans-74" x="629.492188"/>
       <use xlink:href="#DejaVuSans-65" x="668.701172"/>
       <use xlink:href="#DejaVuSans-5f" x="730.224609"/>
       <use xlink:href="#DejaVuSans-65" x="780.224609"/>
       <use xlink:href="#DejaVuSans-64" x="841.748047"/>
       <use xlink:href="#DejaVuSans-75" x="905.224609"/>
       <use xlink:href="#DejaVuSans-5f" x="968.603516"/>
       <use xlink:href="#DejaVuSans-69" x="1018.603516"/>
       <use xlink:href="#DejaVuSans-6e" x="1046.386719"/>
       <use xlink:href="#DejaVuSans-64" x="1109.765625"/>
      </g>
     </g>
    </g>
    <g id="ytick_11">
     <g id="text_17">
      <!-- beta_exp_occ -->
      <g transform="translate(-48.075313 431.462906) scale(0.14 -0.14)">
       <use xlink:href="#DejaVuSans-62"/>
       <use xlink:href="#DejaVuSans-65" x="63.476562"/>
       <use xlink:href="#DejaVuSans-74" x="125"/>
       <use xlink:href="#DejaVuSans-61" x="164.208984"/>
       <use xlink:href="#DejaVuSans-5f" x="225.488281"/>
       <use xlink:href="#DejaVuSans-65" x="275.488281"/>
       <use xlink:href="#DejaVuSans-78" x="335.261719"/>
       <use xlink:href="#DejaVuSans-70" x="394.441406"/>
       <use xlink:href="#DejaVuSans-5f" x="457.917969"/>
       <use xlink:href="#DejaVuSans-6f" x="507.917969"/>
       <use xlink:href="#DejaVuSans-63" x="569.099609"/>
       <use xlink:href="#DejaVuSans-63" x="624.080078"/>
      </g>
     </g>
    </g>
    <g id="ytick_12">
     <g id="text_18">
      <!-- beta_exp_ind -->
      <g transform="translate(-45.763125 358.598906) scale(0.14 -0.14)">
       <use xlink:href="#DejaVuSans-62"/>
       <use xlink:href="#DejaVuSans-65" x="63.476562"/>
       <use xlink:href="#DejaVuSans-74" x="125"/>
       <use xlink:href="#DejaVuSans-61" x="164.208984"/>
       <use xlink:href="#DejaVuSans-5f" x="225.488281"/>
       <use xlink:href="#DejaVuSans-65" x="275.488281"/>
       <use xlink:href="#DejaVuSans-78" x="335.261719"/>
       <use xlink:href="#DejaVuSans-70" x="394.441406"/>
       <use xlink:href="#DejaVuSans-5f" x="457.917969"/>
       <use xlink:href="#DejaVuSans-69" x="507.917969"/>
       <use xlink:href="#DejaVuSans-6e" x="535.701172"/>
       <use xlink:href="#DejaVuSans-64" x="599.080078"/>
      </g>
     </g>
    </g>
    <g id="ytick_13">
     <g id="text_19">
      <!-- beta_elementary_edu_occ -->
      <g transform="translate(-136.257813 285.734906) scale(0.14 -0.14)">
       <defs>
        <path id="DejaVuSans-6d" d="M 3328 2828 
Q 3544 3216 3844 3400 
Q 4144 3584 4550 3584 
Q 5097 3584 5394 3201 
Q 5691 2819 5691 2113 
L 5691 0 
L 5113 0 
L 5113 2094 
Q 5113 2597 4934 2840 
Q 4756 3084 4391 3084 
Q 3944 3084 3684 2787 
Q 3425 2491 3425 1978 
L 3425 0 
L 2847 0 
L 2847 2094 
Q 2847 2600 2669 2842 
Q 2491 3084 2119 3084 
Q 1678 3084 1418 2786 
Q 1159 2488 1159 1978 
L 1159 0 
L 581 0 
L 581 3500 
L 1159 3500 
L 1159 2956 
Q 1356 3278 1631 3431 
Q 1906 3584 2284 3584 
Q 2666 3584 2933 3390 
Q 3200 3197 3328 2828 
z
" transform="scale(0.015625)"/>
        <path id="DejaVuSans-79" d="M 2059 -325 
Q 1816 -950 1584 -1140 
Q 1353 -1331 966 -1331 
L 506 -1331 
L 506 -850 
L 844 -850 
Q 1081 -850 1212 -737 
Q 1344 -625 1503 -206 
L 1606 56 
L 191 3500 
L 800 3500 
L 1894 763 
L 2988 3500 
L 3597 3500 
L 2059 -325 
z
" transform="scale(0.015625)"/>
       </defs>
       <use xlink:href="#DejaVuSans-62"/>
       <use xlink:href="#DejaVuSans-65" x="63.476562"/>
       <use xlink:href="#DejaVuSans-74" x="125"/>
       <use xlink:href="#DejaVuSans-61" x="164.208984"/>
       <use xlink:href="#DejaVuSans-5f" x="225.488281"/>
       <use xlink:href="#DejaVuSans-65" x="275.488281"/>
       <use xlink:href="#DejaVuSans-6c" x="337.011719"/>
       <use xlink:href="#DejaVuSans-65" x="364.794922"/>
       <use xlink:href="#DejaVuSans-6d" x="426.318359"/>
       <use xlink:href="#DejaVuSans-65" x="523.730469"/>
       <use xlink:href="#DejaVuSans-6e" x="585.253906"/>
       <use xlink:href="#DejaVuSans-74" x="648.632812"/>
       <use xlink:href="#DejaVuSans-61" x="687.841797"/>
       <use xlink:href="#DejaVuSans-72" x="749.121094"/>
       <use xlink:href="#DejaVuSans-79" x="790.234375"/>
       <use xlink:href="#DejaVuSans-5f" x="849.414062"/>
       <use xlink:href="#DejaVuSans-65" x="899.414062"/>
       <use xlink:href="#DejaVuSans-64" x="960.9375"/>
       <use xlink:href="#DejaVuSans-75" x="1024.414062"/>
       <use xlink:href="#DejaVuSans-5f" x="1087.792969"/>
       <use xlink:href="#DejaVuSans-6f" x="1137.792969"/>
       <use xlink:href="#DejaVuSans-63" x="1198.974609"/>
       <use xlink:href="#DejaVuSans-63" x="1253.955078"/>
      </g>
     </g>
    </g>
    <g id="ytick_14">
     <g id="text_20">
      <!-- beta_elementary_edu_ind -->
      <g transform="translate(-133.945625 212.870906) scale(0.14 -0.14)">
       <use xlink:href="#DejaVuSans-62"/>
       <use xlink:href="#DejaVuSans-65" x="63.476562"/>
       <use xlink:href="#DejaVuSans-74" x="125"/>
       <use xlink:href="#DejaVuSans-61" x="164.208984"/>
       <use xlink:href="#DejaVuSans-5f" x="225.488281"/>
       <use xlink:href="#DejaVuSans-65" x="275.488281"/>
       <use xlink:href="#DejaVuSans-6c" x="337.011719"/>
       <use xlink:href="#DejaVuSans-65" x="364.794922"/>
       <use xlink:href="#DejaVuSans-6d" x="426.318359"/>
       <use xlink:href="#DejaVuSans-65" x="523.730469"/>
       <use xlink:href="#DejaVuSans-6e" x="585.253906"/>
       <use xlink:href="#DejaVuSans-74" x="648.632812"/>
       <use xlink:href="#DejaVuSans-61" x="687.841797"/>
       <use xlink:href="#DejaVuSans-72" x="749.121094"/>
       <use xlink:href="#DejaVuSans-79" x="790.234375"/>
       <use xlink:href="#DejaVuSans-5f" x="849.414062"/>
       <use xlink:href="#DejaVuSans-65" x="899.414062"/>
       <use xlink:href="#DejaVuSans-64" x="960.9375"/>
       <use xlink:href="#DejaVuSans-75" x="1024.414062"/>
       <use xlink:href="#DejaVuSans-5f" x="1087.792969"/>
       <use xlink:href="#DejaVuSans-69" x="1137.792969"/>
       <use xlink:href="#DejaVuSans-6e" x="1165.576172"/>
       <use xlink:href="#DejaVuSans-64" x="1228.955078"/>
      </g>
     </g>
    </g>
   </g>
   <g id="LineCollection_1">
    <path d="M 296.374919 1154.784 
L 373.581818 1154.784 
" clip-path="url(#p5d0b38cf02)" style="fill: none; stroke: #1f77b4; stroke-width: 1.5"/>
   </g>
   <g id="LineCollection_2">
    <path d="M 320.554524 1154.784 
L 347.664622 1154.784 
" clip-path="url(#p5d0b38cf02)" style="fill: none; stroke: #1f77b4; stroke-width: 3"/>
   </g>
   <g id="line2d_7">
    <defs>
     <path id="mf6f99e92a9" d="M 0 2.25 
C 0.596707 2.25 1.169055 2.012926 1.59099 1.59099 
C 2.012926 1.169055 2.25 0.596707 2.25 0 
C 2.25 -0.596707 2.012926 -1.169055 1.59099 -1.59099 
C 1.169055 -2.012926 0.596707 -2.25 0 -2.25 
C -0.596707 -2.25 -1.169055 -2.012926 -1.59099 -1.59099 
C -2.012926 -1.169055 -2.25 -0.596707 -2.25 0 
C -2.25 0.596707 -2.012926 1.169055 -1.59099 1.59099 
C -1.169055 2.012926 -0.596707 2.25 0 2.25 
z
" style="stroke: #1f77b4"/>
    </defs>
    <g clip-path="url(#p5d0b38cf02)">
     <use xlink:href="#mf6f99e92a9" x="333.84421" y="1154.784" style="fill: #ffffff; stroke: #1f77b4"/>
    </g>
   </g>
   <g id="LineCollection_3">
    <path d="M 69.218182 1081.92 
L 140.19228 1081.92 
" clip-path="url(#p5d0b38cf02)" style="fill: none; stroke: #1f77b4; stroke-width: 1.5"/>
   </g>
   <g id="LineCollection_4">
    <path d="M 91.686835 1081.92 
L 117.123176 1081.92 
" clip-path="url(#p5d0b38cf02)" style="fill: none; stroke: #1f77b4; stroke-width: 3"/>
   </g>
   <g id="line2d_8">
    <g clip-path="url(#p5d0b38cf02)">
     <use xlink:href="#mf6f99e92a9" x="104.58451" y="1081.92" style="fill: #ffffff; stroke: #1f77b4"/>
    </g>
   </g>
   <g id="LineCollection_5">
    <path d="M 85.114048 1009.056 
L 151.24605 1009.056 
" clip-path="url(#p5d0b38cf02)" style="fill: none; stroke: #1f77b4; stroke-width: 1.5"/>
   </g>
   <g id="LineCollection_6">
    <path d="M 107.031447 1009.056 
L 130.011974 1009.056 
" clip-path="url(#p5d0b38cf02)" style="fill: none; stroke: #1f77b4; stroke-width: 3"/>
   </g>
   <g id="line2d_9">
    <g clip-path="url(#p5d0b38cf02)">
     <use xlink:href="#mf6f99e92a9" x="118.625756" y="1009.056" style="fill: #ffffff; stroke: #1f77b4"/>
    </g>
   </g>
   <g id="LineCollection_7">
    <path d="M 184.002241 936.192 
L 236.735473 936.192 
" clip-path="url(#p5d0b38cf02)" style="fill: none; stroke: #1f77b4; stroke-width: 1.5"/>
   </g>
   <g id="LineCollection_8">
    <path d="M 200.921831 936.192 
L 219.417403 936.192 
" clip-path="url(#p5d0b38cf02)" style="fill: none; stroke: #1f77b4; stroke-width: 3"/>
   </g>
   <g id="line2d_10">
    <g clip-path="url(#p5d0b38cf02)">
     <use xlink:href="#mf6f99e92a9" x="210.104004" y="936.192" style="fill: #ffffff; stroke: #1f77b4"/>
    </g>
   </g>
   <g id="LineCollection_9">
    <path d="M 209.33065 863.328 
L 263.90496 863.328 
" clip-path="url(#p5d0b38cf02)" style="fill: none; stroke: #1f77b4; stroke-width: 1.5"/>
   </g>
   <g id="LineCollection_10">
    <path d="M 226.509481 863.328 
L 246.361103 863.328 
" clip-path="url(#p5d0b38cf02)" style="fill: none; stroke: #1f77b4; stroke-width: 3"/>
   </g>
   <g id="line2d_11">
    <g clip-path="url(#p5d0b38cf02)">
     <use xlink:href="#mf6f99e92a9" x="236.386113" y="863.328" style="fill: #ffffff; stroke: #1f77b4"/>
    </g>
   </g>
   <g id="LineCollection_11">
    <path d="M 137.344687 790.464 
L 185.777987 790.464 
" clip-path="url(#p5d0b38cf02)" style="fill: none; stroke: #1f77b4; stroke-width: 1.5"/>
   </g>
   <g id="LineCollection_12">
    <path d="M 154.296483 790.464 
L 171.866108 790.464 
" clip-path="url(#p5d0b38cf02)" style="fill: none; stroke: #1f77b4; stroke-width: 3"/>
   </g>
   <g id="line2d_12">
    <g clip-path="url(#p5d0b38cf02)">
     <use xlink:href="#mf6f99e92a9" x="163.132963" y="790.464" style="fill: #ffffff; stroke: #1f77b4"/>
    </g>
   </g>
   <g id="LineCollection_13">
    <path d="M 124.644251 717.6 
L 182.450222 717.6 
" clip-path="url(#p5d0b38cf02)" style="fill: none; stroke: #1f77b4; stroke-width: 1.5"/>
   </g>
   <g id="LineCollection_14">
    <path d="M 142.659832 717.6 
L 163.35974 717.6 
" clip-path="url(#p5d0b38cf02)" style="fill: none; stroke: #1f77b4; stroke-width: 3"/>
   </g>
   <g id="line2d_13">
    <g clip-path="url(#p5d0b38cf02)">
     <use xlink:href="#mf6f99e92a9" x="153.162864" y="717.6" style="fill: #ffffff; stroke: #1f77b4"/>
    </g>
   </g>
   <g id="LineCollection_15">
    <path d="M 202.085932 644.736 
L 260.169682 644.736 
" clip-path="url(#p5d0b38cf02)" style="fill: none; stroke: #1f77b4; stroke-width: 1.5"/>
   </g>
   <g id="LineCollection_16">
    <path d="M 221.339872 644.736 
L 241.650658 644.736 
" clip-path="url(#p5d0b38cf02)" style="fill: none; stroke: #1f77b4; stroke-width: 3"/>
   </g>
   <g id="line2d_14">
    <g clip-path="url(#p5d0b38cf02)">
     <use xlink:href="#mf6f99e92a9" x="231.342326" y="644.736" style="fill: #ffffff; stroke: #1f77b4"/>
    </g>
   </g>
   <g id="LineCollection_17">
    <path d="M 135.207776 571.872 
L 273.869157 571.872 
" clip-path="url(#p5d0b38cf02)" style="fill: none; stroke: #1f77b4; stroke-width: 1.5"/>
   </g>
   <g id="LineCollection_18">
    <path d="M 180.831874 571.872 
L 230.643962 571.872 
" clip-path="url(#p5d0b38cf02)" style="fill: none; stroke: #1f77b4; stroke-width: 3"/>
   </g>
   <g id="line2d_15">
    <g clip-path="url(#p5d0b38cf02)">
     <use xlink:href="#mf6f99e92a9" x="205.91147" y="571.872" style="fill: #ffffff; stroke: #1f77b4"/>
    </g>
   </g>
   <g id="LineCollection_19">
    <path d="M 194.595792 499.008 
L 314.16038 499.008 
" clip-path="url(#p5d0b38cf02)" style="fill: none; stroke: #1f77b4; stroke-width: 1.5"/>
   </g>
   <g id="LineCollection_20">
    <path d="M 231.247926 499.008 
L 273.770167 499.008 
" clip-path="url(#p5d0b38cf02)" style="fill: none; stroke: #1f77b4; stroke-width: 3"/>
   </g>
   <g id="line2d_16">
    <g clip-path="url(#p5d0b38cf02)">
     <use xlink:href="#mf6f99e92a9" x="252.309198" y="499.008" style="fill: #ffffff; stroke: #1f77b4"/>
    </g>
   </g>
   <g id="LineCollection_21">
    <path d="M 220.980471 426.144 
L 271.537601 426.144 
" clip-path="url(#p5d0b38cf02)" style="fill: none; stroke: #1f77b4; stroke-width: 1.5"/>
   </g>
   <g id="LineCollection_22">
    <path d="M 237.587528 426.144 
L 255.664377 426.144 
" clip-path="url(#p5d0b38cf02)" style="fill: none; stroke: #1f77b4; stroke-width: 3"/>
   </g>
   <g id="line2d_17">
    <g clip-path="url(#p5d0b38cf02)">
     <use xlink:href="#mf6f99e92a9" x="246.590822" y="426.144" style="fill: #ffffff; stroke: #1f77b4"/>
    </g>
   </g>
   <g id="LineCollection_23">
    <path d="M 136.191111 353.28 
L 180.040749 353.28 
" clip-path="url(#p5d0b38cf02)" style="fill: none; stroke: #1f77b4; stroke-width: 1.5"/>
   </g>
   <g id="LineCollection_24">
    <path d="M 149.646552 353.28 
L 165.234607 353.28 
" clip-path="url(#p5d0b38cf02)" style="fill: none; stroke: #1f77b4; stroke-width: 3"/>
   </g>
   <g id="line2d_18">
    <g clip-path="url(#p5d0b38cf02)">
     <use xlink:href="#mf6f99e92a9" x="157.341131" y="353.28" style="fill: #ffffff; stroke: #1f77b4"/>
    </g>
   </g>
   <g id="LineCollection_25">
    <path d="M 143.88884 280.416 
L 208.105502 280.416 
" clip-path="url(#p5d0b38cf02)" style="fill: none; stroke: #1f77b4; stroke-width: 1.5"/>
   </g>
   <g id="LineCollection_26">
    <path d="M 165.294225 280.416 
L 187.7188 280.416 
" clip-path="url(#p5d0b38cf02)" style="fill: none; stroke: #1f77b4; stroke-width: 3"/>
   </g>
   <g id="line2d_19">
    <g clip-path="url(#p5d0b38cf02)">
     <use xlink:href="#mf6f99e92a9" x="176.218844" y="280.416" style="fill: #ffffff; stroke: #1f77b4"/>
    </g>
   </g>
   <g id="LineCollection_27">
    <path d="M 160.496705 207.552 
L 226.894951 207.552 
" clip-path="url(#p5d0b38cf02)" style="fill: none; stroke: #1f77b4; stroke-width: 1.5"/>
   </g>
   <g id="LineCollection_28">
    <path d="M 181.144994 207.552 
L 204.929501 207.552 
" clip-path="url(#p5d0b38cf02)" style="fill: none; stroke: #1f77b4; stroke-width: 3"/>
   </g>
   <g id="line2d_20">
    <g clip-path="url(#p5d0b38cf02)">
     <use xlink:href="#mf6f99e92a9" x="193.038503" y="207.552" style="fill: #ffffff; stroke: #1f77b4"/>
    </g>
   </g>
   <g id="patch_3">
    <path d="M 54 1179.072 
L 388.8 1179.072 
" style="fill: none; stroke: #000000; stroke-width: 0.8; stroke-linejoin: miter; stroke-linecap: square"/>
   </g>
   <g id="patch_4">
    <path d="M 54 158.976 
L 388.8 158.976 
" style="fill: none; stroke: #000000; stroke-width: 0.8; stroke-linejoin: miter; stroke-linecap: square"/>
   </g>
   <g id="text_21">
    <!-- 94.0% HDI -->
    <g transform="translate(178.9075 152.976) scale(0.16 -0.16)">
     <defs>
      <path id="DejaVuSans-39" d="M 703 97 
L 703 672 
Q 941 559 1184 500 
Q 1428 441 1663 441 
Q 2288 441 2617 861 
Q 2947 1281 2994 2138 
Q 2813 1869 2534 1725 
Q 2256 1581 1919 1581 
Q 1219 1581 811 2004 
Q 403 2428 403 3163 
Q 403 3881 828 4315 
Q 1253 4750 1959 4750 
Q 2769 4750 3195 4129 
Q 3622 3509 3622 2328 
Q 3622 1225 3098 567 
Q 2575 -91 1691 -91 
Q 1453 -91 1209 -44 
Q 966 3 703 97 
z
M 1959 2075 
Q 2384 2075 2632 2365 
Q 2881 2656 2881 3163 
Q 2881 3666 2632 3958 
Q 2384 4250 1959 4250 
Q 1534 4250 1286 3958 
Q 1038 3666 1038 3163 
Q 1038 2656 1286 2365 
Q 1534 2075 1959 2075 
z
" transform="scale(0.015625)"/>
      <path id="DejaVuSans-34" d="M 2419 4116 
L 825 1625 
L 2419 1625 
L 2419 4116 
z
M 2253 4666 
L 3047 4666 
L 3047 1625 
L 3713 1625 
L 3713 1100 
L 3047 1100 
L 3047 0 
L 2419 0 
L 2419 1100 
L 313 1100 
L 313 1709 
L 2253 4666 
z
" transform="scale(0.015625)"/>
      <path id="DejaVuSans-25" d="M 4653 2053 
Q 4381 2053 4226 1822 
Q 4072 1591 4072 1178 
Q 4072 772 4226 539 
Q 4381 306 4653 306 
Q 4919 306 5073 539 
Q 5228 772 5228 1178 
Q 5228 1588 5073 1820 
Q 4919 2053 4653 2053 
z
M 4653 2450 
Q 5147 2450 5437 2106 
Q 5728 1763 5728 1178 
Q 5728 594 5436 251 
Q 5144 -91 4653 -91 
Q 4153 -91 3862 251 
Q 3572 594 3572 1178 
Q 3572 1766 3864 2108 
Q 4156 2450 4653 2450 
z
M 1428 4353 
Q 1159 4353 1004 4120 
Q 850 3888 850 3481 
Q 850 3069 1003 2837 
Q 1156 2606 1428 2606 
Q 1700 2606 1854 2837 
Q 2009 3069 2009 3481 
Q 2009 3884 1853 4118 
Q 1697 4353 1428 4353 
z
M 4250 4750 
L 4750 4750 
L 1831 -91 
L 1331 -91 
L 4250 4750 
z
M 1428 4750 
Q 1922 4750 2215 4408 
Q 2509 4066 2509 3481 
Q 2509 2891 2217 2550 
Q 1925 2209 1428 2209 
Q 931 2209 642 2551 
Q 353 2894 353 3481 
Q 353 4063 643 4406 
Q 934 4750 1428 4750 
z
" transform="scale(0.015625)"/>
      <path id="DejaVuSans-20" transform="scale(0.015625)"/>
      <path id="DejaVuSans-48" d="M 628 4666 
L 1259 4666 
L 1259 2753 
L 3553 2753 
L 3553 4666 
L 4184 4666 
L 4184 0 
L 3553 0 
L 3553 2222 
L 1259 2222 
L 1259 0 
L 628 0 
L 628 4666 
z
" transform="scale(0.015625)"/>
      <path id="DejaVuSans-44" d="M 1259 4147 
L 1259 519 
L 2022 519 
Q 2988 519 3436 956 
Q 3884 1394 3884 2338 
Q 3884 3275 3436 3711 
Q 2988 4147 2022 4147 
L 1259 4147 
z
M 628 4666 
L 1925 4666 
Q 3281 4666 3915 4102 
Q 4550 3538 4550 2338 
Q 4550 1131 3912 565 
Q 3275 0 1925 0 
L 628 0 
L 628 4666 
z
" transform="scale(0.015625)"/>
      <path id="DejaVuSans-49" d="M 628 4666 
L 1259 4666 
L 1259 0 
L 628 0 
L 628 4666 
z
" transform="scale(0.015625)"/>
     </defs>
     <use xlink:href="#DejaVuSans-39"/>
     <use xlink:href="#DejaVuSans-34" x="63.623047"/>
     <use xlink:href="#DejaVuSans-2e" x="127.246094"/>
     <use xlink:href="#DejaVuSans-30" x="159.033203"/>
     <use xlink:href="#DejaVuSans-25" x="222.65625"/>
     <use xlink:href="#DejaVuSans-20" x="317.675781"/>
     <use xlink:href="#DejaVuSans-48" x="349.462891"/>
     <use xlink:href="#DejaVuSans-44" x="424.658203"/>
     <use xlink:href="#DejaVuSans-49" x="501.660156"/>
    </g>
   </g>
  </g>
 </g>
 <defs>
  <clipPath id="p5d0b38cf02">
   <rect x="54" y="158.976" width="334.8" height="1020.096"/>
  </clipPath>
 </defs>
</svg>
