<?xml version="1.0" encoding="utf-8" standalone="no"?>
<!DOCTYPE svg PUBLIC "-//W3C//DTD SVG 1.1//EN"
  "http://www.w3.org/Graphics/SVG/1.1/DTD/svg11.dtd">
<svg xmlns:xlink="http://www.w3.org/1999/xlink" width="1080pt" height="216pt" viewBox="0 0 1080 216" xmlns="http://www.w3.org/2000/svg" version="1.1">
 <metadata>
  <rdf:RDF xmlns:dc="http://purl.org/dc/elements/1.1/" xmlns:cc="http://creativecommons.org/ns#" xmlns:rdf="http://www.w3.org/1999/02/22-rdf-syntax-ns#">
   <cc:Work>
    <dc:type rdf:resource="http://purl.org/dc/dcmitype/StillImage"/>
    <dc:date>2023-12-04T12:55:38.204912</dc:date>
    <dc:format>image/svg+xml</dc:format>
    <dc:creator>
     <cc:Agent>
      <dc:title>Matplotlib v3.8.0, https://matplotlib.org/</dc:title>
     </cc:Agent>
    </dc:creator>
   </cc:Work>
  </rdf:RDF>
 </metadata>
 <defs>
  <style type="text/css">*{stroke-linejoin: round; stroke-linecap: butt}</style>
 </defs>
 <g id="figure_1">
  <g id="patch_1">
   <path d="M 0 216 
L 1080 216 
L 1080 0 
L 0 0 
z
" style="fill: #ffffff"/>
  </g>
  <g id="axes_1">
   <g id="patch_2">
    <path d="M 135 192.24 
L 381.176471 192.24 
L 381.176471 25.92 
L 135 25.92 
z
" style="fill: #ffffff"/>
   </g>
   <g id="PolyCollection_1">
    <defs>
     <path id="m85230481a4" d="M 152.903978 -23.776206 
L 152.903978 -23.76 
L 153.993199 -23.76 
L 155.082421 -23.76 
L 156.171643 -23.76 
L 157.260864 -23.76 
L 158.350086 -23.76 
L 159.439308 -23.76 
L 160.52853 -23.76 
L 161.617751 -23.76 
L 162.706973 -23.76 
L 163.796195 -23.76 
L 164.885416 -23.76 
L 165.974638 -23.76 
L 167.06386 -23.76 
L 168.153082 -23.76 
L 169.242303 -23.76 
L 170.331525 -23.76 
L 171.420747 -23.76 
L 172.509968 -23.76 
L 173.59919 -23.76 
L 174.688412 -23.76 
L 175.777634 -23.76 
L 176.866855 -23.76 
L 177.956077 -23.76 
L 179.045299 -23.76 
L 180.13452 -23.76 
L 181.223742 -23.76 
L 182.312964 -23.76 
L 183.402186 -23.76 
L 184.491407 -23.76 
L 185.580629 -23.76 
L 186.669851 -23.76 
L 187.759072 -23.76 
L 188.848294 -23.76 
L 189.937516 -23.76 
L 191.026738 -23.76 
L 192.115959 -23.76 
L 193.205181 -23.76 
L 194.294403 -23.76 
L 195.383624 -23.76 
L 196.472846 -23.76 
L 197.562068 -23.76 
L 198.65129 -23.76 
L 199.740511 -23.76 
L 200.829733 -23.76 
L 201.918955 -23.76 
L 203.008176 -23.76 
L 204.097398 -23.76 
L 205.18662 -23.76 
L 206.275842 -23.76 
L 207.365063 -23.76 
L 208.454285 -23.76 
L 209.543507 -23.76 
L 210.632728 -23.76 
L 211.72195 -23.76 
L 212.811172 -23.76 
L 213.900394 -23.76 
L 214.989615 -23.76 
L 216.078837 -23.76 
L 217.168059 -23.76 
L 218.25728 -23.76 
L 219.346502 -23.76 
L 220.435724 -23.76 
L 221.524946 -23.76 
L 222.614167 -23.76 
L 223.703389 -23.76 
L 224.792611 -23.76 
L 225.881832 -23.76 
L 226.971054 -23.76 
L 228.060276 -23.76 
L 229.149498 -23.76 
L 230.238719 -23.76 
L 231.327941 -23.76 
L 232.417163 -23.76 
L 233.506384 -23.76 
L 234.595606 -23.76 
L 235.684828 -23.76 
L 236.77405 -23.76 
L 237.863271 -23.76 
L 238.952493 -23.76 
L 240.041715 -23.76 
L 241.130936 -23.76 
L 242.220158 -23.76 
L 243.30938 -23.76 
L 244.398602 -23.76 
L 245.487823 -23.76 
L 246.577045 -23.76 
L 247.666267 -23.76 
L 248.755488 -23.76 
L 249.84471 -23.76 
L 250.933932 -23.76 
L 252.023154 -23.76 
L 253.112375 -23.76 
L 254.201597 -23.76 
L 255.290819 -23.76 
L 256.38004 -23.76 
L 257.469262 -23.76 
L 258.558484 -23.76 
L 259.647706 -23.76 
L 260.736927 -23.76 
L 261.826149 -23.76 
L 262.915371 -23.76 
L 264.004592 -23.76 
L 265.093814 -23.76 
L 266.183036 -23.76 
L 267.272258 -23.76 
L 268.361479 -23.76 
L 269.450701 -23.76 
L 270.539923 -23.76 
L 271.629144 -23.76 
L 272.718366 -23.76 
L 273.807588 -23.76 
L 274.89681 -23.76 
L 275.986031 -23.76 
L 277.075253 -23.76 
L 278.164475 -23.76 
L 279.253696 -23.76 
L 280.342918 -23.76 
L 281.43214 -23.76 
L 282.521362 -23.76 
L 283.610583 -23.76 
L 284.699805 -23.76 
L 285.789027 -23.76 
L 286.878248 -23.76 
L 287.96747 -23.76 
L 289.056692 -23.76 
L 290.145914 -23.76 
L 291.235135 -23.76 
L 292.324357 -23.76 
L 293.413579 -23.76 
L 294.5028 -23.76 
L 295.592022 -23.76 
L 296.681244 -23.76 
L 297.770466 -23.76 
L 298.859687 -23.76 
L 299.948909 -23.76 
L 301.038131 -23.76 
L 302.127352 -23.76 
L 303.216574 -23.76 
L 304.305796 -23.76 
L 305.395018 -23.76 
L 306.484239 -23.76 
L 307.573461 -23.76 
L 308.662683 -23.76 
L 309.751904 -23.76 
L 310.841126 -23.76 
L 311.930348 -23.76 
L 313.01957 -23.76 
L 314.108791 -23.76 
L 315.198013 -23.76 
L 316.287235 -23.76 
L 317.376456 -23.76 
L 318.465678 -23.76 
L 319.5549 -23.76 
L 320.644122 -23.76 
L 321.733343 -23.76 
L 322.822565 -23.76 
L 323.911787 -23.76 
L 325.001008 -23.76 
L 326.09023 -23.76 
L 327.179452 -23.76 
L 328.268674 -23.76 
L 329.357895 -23.76 
L 330.447117 -23.76 
L 331.536339 -23.76 
L 332.62556 -23.76 
L 333.714782 -23.76 
L 334.804004 -23.76 
L 335.893226 -23.76 
L 336.982447 -23.76 
L 338.071669 -23.76 
L 339.160891 -23.76 
L 340.250112 -23.76 
L 341.339334 -23.76 
L 342.428556 -23.76 
L 343.517778 -23.76 
L 344.606999 -23.76 
L 345.696221 -23.76 
L 346.785443 -23.76 
L 347.874664 -23.76 
L 348.963886 -23.76 
L 350.053108 -23.76 
L 351.14233 -23.76 
L 352.231551 -23.76 
L 353.320773 -23.76 
L 354.409995 -23.76 
L 355.499216 -23.76 
L 356.588438 -23.76 
L 357.67766 -23.76 
L 358.766882 -23.76 
L 359.856103 -23.76 
L 360.945325 -23.76 
L 362.034547 -23.76 
L 363.123768 -23.76 
L 364.21299 -23.76 
L 365.302212 -23.76 
L 366.391434 -23.76 
L 367.480655 -23.76 
L 368.569877 -23.76 
L 369.659099 -23.76 
L 369.659099 -23.760186 
L 369.659099 -23.760186 
L 368.569877 -23.760516 
L 367.480655 -23.761289 
L 366.391434 -23.762915 
L 365.302212 -23.766002 
L 364.21299 -23.77135 
L 363.123768 -23.779896 
L 362.034547 -23.792603 
L 360.945325 -23.810252 
L 359.856103 -23.83306 
L 358.766882 -23.860194 
L 357.67766 -23.889552 
L 356.588438 -23.918232 
L 355.499216 -23.943739 
L 354.409995 -23.965232 
L 353.320773 -23.983876 
L 352.231551 -24.001984 
L 351.14233 -24.021637 
L 350.053108 -24.043783 
L 348.963886 -24.068189 
L 347.874664 -24.093974 
L 346.785443 -24.120361 
L 345.696221 -24.147501 
L 344.606999 -24.176922 
L 343.517778 -24.210762 
L 342.428556 -24.249623 
L 341.339334 -24.290506 
L 340.250112 -24.327202 
L 339.160891 -24.353795 
L 338.071669 -24.368891 
L 336.982447 -24.376954 
L 335.893226 -24.385491 
L 334.804004 -24.400319 
L 333.714782 -24.422388 
L 332.62556 -24.447888 
L 331.536339 -24.471096 
L 330.447117 -24.488306 
L 329.357895 -24.500909 
L 328.268674 -24.515664 
L 327.179452 -24.541436 
L 326.09023 -24.584201 
L 325.001008 -24.643785 
L 323.911787 -24.714474 
L 322.822565 -24.788481 
L 321.733343 -24.859428 
L 320.644122 -24.923774 
L 319.5549 -24.980147 
L 318.465678 -25.027899 
L 317.376456 -25.066445 
L 316.287235 -25.095903 
L 315.198013 -25.117809 
L 314.108791 -25.134216 
L 313.01957 -25.145573 
L 311.930348 -25.150285 
L 310.841126 -25.148002 
L 309.751904 -25.144438 
L 308.662683 -25.152988 
L 307.573461 -25.191017 
L 306.484239 -25.27338 
L 305.395018 -25.407035 
L 304.305796 -25.587975 
L 303.216574 -25.800028 
L 302.127352 -26.016744 
L 301.038131 -26.208695 
L 299.948909 -26.354718 
L 298.859687 -26.450033 
L 297.770466 -26.50467 
L 296.681244 -26.533958 
L 295.592022 -26.550168 
L 294.5028 -26.561796 
L 293.413579 -26.577434 
L 292.324357 -26.606666 
L 291.235135 -26.65589 
L 290.145914 -26.724339 
L 289.056692 -26.804957 
L 287.96747 -26.888547 
L 286.878248 -26.967014 
L 285.789027 -27.035254 
L 284.699805 -27.094206 
L 283.610583 -27.154832 
L 282.521362 -27.238581 
L 281.43214 -27.370794 
L 280.342918 -27.569196 
L 279.253696 -27.83425 
L 278.164475 -28.147595 
L 277.075253 -28.47981 
L 275.986031 -28.803169 
L 274.89681 -29.102327 
L 273.807588 -29.377893 
L 272.718366 -29.642653 
L 271.629144 -29.913679 
L 270.539923 -30.203863 
L 269.450701 -30.515769 
L 268.361479 -30.841046 
L 267.272258 -31.16746 
L 266.183036 -31.490357 
L 265.093814 -31.820195 
L 264.004592 -32.179585 
L 262.915371 -32.591741 
L 261.826149 -33.06893 
L 260.736927 -33.608364 
L 259.647706 -34.197047 
L 258.558484 -34.821698 
L 257.469262 -35.476778 
L 256.38004 -36.163976 
L 255.290819 -36.882607 
L 254.201597 -37.619538 
L 253.112375 -38.349979 
L 252.023154 -39.051422 
L 250.933932 -39.720696 
L 249.84471 -40.380911 
L 248.755488 -41.07299 
L 247.666267 -41.836566 
L 246.577045 -42.690073 
L 245.487823 -43.619746 
L 244.398602 -44.583863 
L 243.30938 -45.53175 
L 242.220158 -46.428612 
L 241.130936 -47.272738 
L 240.041715 -48.095716 
L 238.952493 -48.946626 
L 237.863271 -49.869767 
L 236.77405 -50.886513 
L 235.684828 -51.98752 
L 234.595606 -53.137143 
L 233.506384 -54.28901 
L 232.417163 -55.40765 
L 231.327941 -56.485917 
L 230.238719 -57.547776 
L 229.149498 -58.634522 
L 228.060276 -59.784358 
L 226.971054 -61.019648 
L 225.881832 -62.348704 
L 224.792611 -63.776769 
L 223.703389 -65.31448 
L 222.614167 -66.975915 
L 221.524946 -68.768093 
L 220.435724 -70.681779 
L 219.346502 -72.69362 
L 218.25728 -74.781102 
L 217.168059 -76.940462 
L 216.078837 -79.1933 
L 214.989615 -81.575164 
L 213.900394 -84.113375 
L 212.811172 -86.81028 
L 211.72195 -89.644282 
L 210.632728 -92.587362 
L 209.543507 -95.625072 
L 208.454285 -98.763471 
L 207.365063 -102.017846 
L 206.275842 -105.390817 
L 205.18662 -108.852567 
L 204.097398 -112.332505 
L 203.008176 -115.725951 
L 201.918955 -118.914874 
L 200.829733 -121.796578 
L 199.740511 -124.307966 
L 198.65129 -126.431534 
L 197.562068 -128.178069 
L 196.472846 -129.556268 
L 195.383624 -130.549419 
L 194.294403 -131.115407 
L 193.205181 -131.211776 
L 192.115959 -130.832081 
L 191.026738 -130.032074 
L 189.937516 -128.928342 
L 188.848294 -127.667077 
L 187.759072 -126.379143 
L 186.669851 -125.147095 
L 185.580629 -124.001246 
L 184.491407 -122.939966 
L 183.402186 -121.951537 
L 182.312964 -121.01751 
L 181.223742 -120.098852 
L 180.13452 -119.12511 
L 179.045299 -118.002342 
L 177.956077 -116.631987 
L 176.866855 -114.917616 
L 175.777634 -112.749262 
L 174.688412 -109.982739 
L 173.59919 -106.443325 
L 172.509968 -101.966424 
L 171.420747 -96.459035 
L 170.331525 -89.949885 
L 169.242303 -82.602672 
L 168.153082 -74.688468 
L 167.06386 -66.535368 
L 165.974638 -58.482168 
L 164.885416 -50.852105 
L 163.796195 -43.940719 
L 162.706973 -37.998246 
L 161.617751 -33.195385 
L 160.52853 -29.584601 
L 159.439308 -27.084077 
L 158.350086 -25.502068 
L 157.260864 -24.593627 
L 156.171643 -24.122518 
L 155.082421 -23.902708 
L 153.993199 -23.810692 
L 152.903978 -23.776206 
z
" style="stroke: #2ca02c"/>
    </defs>
    <g clip-path="url(#p91a014d0ee)">
     <use xlink:href="#m85230481a4" x="0" y="216" style="fill: #2ca02c; fill-opacity: 0.5; stroke: #2ca02c"/>
    </g>
   </g>
   <g id="PolyCollection_2">
    <defs>
     <path id="m55e19ca4c5" d="M 153.700426 -23.761951 
L 153.700426 -23.76 
L 154.75501 -23.76 
L 155.809595 -23.76 
L 156.864179 -23.76 
L 157.918763 -23.76 
L 158.973348 -23.76 
L 160.027932 -23.76 
L 161.082516 -23.76 
L 162.137101 -23.76 
L 163.191685 -23.76 
L 164.246269 -23.76 
L 165.300854 -23.76 
L 166.355438 -23.76 
L 167.410023 -23.76 
L 168.464607 -23.76 
L 169.519191 -23.76 
L 170.573776 -23.76 
L 171.62836 -23.76 
L 172.682944 -23.76 
L 173.737529 -23.76 
L 174.792113 -23.76 
L 175.846697 -23.76 
L 176.901282 -23.76 
L 177.955866 -23.76 
L 179.010451 -23.76 
L 180.065035 -23.76 
L 181.119619 -23.76 
L 182.174204 -23.76 
L 183.228788 -23.76 
L 184.283372 -23.76 
L 185.337957 -23.76 
L 186.392541 -23.76 
L 187.447125 -23.76 
L 188.50171 -23.76 
L 189.556294 -23.76 
L 190.610879 -23.76 
L 191.665463 -23.76 
L 192.720047 -23.76 
L 193.774632 -23.76 
L 194.829216 -23.76 
L 195.8838 -23.76 
L 196.938385 -23.76 
L 197.992969 -23.76 
L 199.047553 -23.76 
L 200.102138 -23.76 
L 201.156722 -23.76 
L 202.211307 -23.76 
L 203.265891 -23.76 
L 204.320475 -23.76 
L 205.37506 -23.76 
L 206.429644 -23.76 
L 207.484228 -23.76 
L 208.538813 -23.76 
L 209.593397 -23.76 
L 210.647981 -23.76 
L 211.702566 -23.76 
L 212.75715 -23.76 
L 213.811735 -23.76 
L 214.866319 -23.76 
L 215.920903 -23.76 
L 216.975488 -23.76 
L 218.030072 -23.76 
L 219.084656 -23.76 
L 220.139241 -23.76 
L 221.193825 -23.76 
L 222.248409 -23.76 
L 223.302994 -23.76 
L 224.357578 -23.76 
L 225.412163 -23.76 
L 226.466747 -23.76 
L 227.521331 -23.76 
L 228.575916 -23.76 
L 229.6305 -23.76 
L 230.685084 -23.76 
L 231.739669 -23.76 
L 232.794253 -23.76 
L 233.848837 -23.76 
L 234.903422 -23.76 
L 235.958006 -23.76 
L 237.012591 -23.76 
L 238.067175 -23.76 
L 239.121759 -23.76 
L 240.176344 -23.76 
L 241.230928 -23.76 
L 242.285512 -23.76 
L 243.340097 -23.76 
L 244.394681 -23.76 
L 245.449265 -23.76 
L 246.50385 -23.76 
L 247.558434 -23.76 
L 248.613019 -23.76 
L 249.667603 -23.76 
L 250.722187 -23.76 
L 251.776772 -23.76 
L 252.831356 -23.76 
L 253.88594 -23.76 
L 254.940525 -23.76 
L 255.995109 -23.76 
L 257.049693 -23.76 
L 258.104278 -23.76 
L 259.158862 -23.76 
L 260.213447 -23.76 
L 261.268031 -23.76 
L 262.322615 -23.76 
L 263.3772 -23.76 
L 264.431784 -23.76 
L 265.486368 -23.76 
L 266.540953 -23.76 
L 267.595537 -23.76 
L 268.650121 -23.76 
L 269.704706 -23.76 
L 270.75929 -23.76 
L 271.813875 -23.76 
L 272.868459 -23.76 
L 273.923043 -23.76 
L 274.977628 -23.76 
L 276.032212 -23.76 
L 277.086796 -23.76 
L 278.141381 -23.76 
L 279.195965 -23.76 
L 280.25055 -23.76 
L 281.305134 -23.76 
L 282.359718 -23.76 
L 283.414303 -23.76 
L 284.468887 -23.76 
L 285.523471 -23.76 
L 286.578056 -23.76 
L 287.63264 -23.76 
L 288.687224 -23.76 
L 289.741809 -23.76 
L 290.796393 -23.76 
L 291.850978 -23.76 
L 292.905562 -23.76 
L 293.960146 -23.76 
L 295.014731 -23.76 
L 296.069315 -23.76 
L 297.123899 -23.76 
L 298.178484 -23.76 
L 299.233068 -23.76 
L 300.287652 -23.76 
L 301.342237 -23.76 
L 302.396821 -23.76 
L 303.451406 -23.76 
L 304.50599 -23.76 
L 305.560574 -23.76 
L 306.615159 -23.76 
L 307.669743 -23.76 
L 308.724327 -23.76 
L 309.778912 -23.76 
L 310.833496 -23.76 
L 311.88808 -23.76 
L 312.942665 -23.76 
L 313.997249 -23.76 
L 315.051834 -23.76 
L 316.106418 -23.76 
L 317.161002 -23.76 
L 318.215587 -23.76 
L 319.270171 -23.76 
L 320.324755 -23.76 
L 321.37934 -23.76 
L 322.433924 -23.76 
L 323.488508 -23.76 
L 324.543093 -23.76 
L 325.597677 -23.76 
L 326.652262 -23.76 
L 327.706846 -23.76 
L 328.76143 -23.76 
L 329.816015 -23.76 
L 330.870599 -23.76 
L 331.925183 -23.76 
L 332.979768 -23.76 
L 334.034352 -23.76 
L 335.088936 -23.76 
L 336.143521 -23.76 
L 337.198105 -23.76 
L 338.25269 -23.76 
L 339.307274 -23.76 
L 340.361858 -23.76 
L 341.416443 -23.76 
L 342.471027 -23.76 
L 343.525611 -23.76 
L 344.580196 -23.76 
L 345.63478 -23.76 
L 346.689364 -23.76 
L 347.743949 -23.76 
L 348.798533 -23.76 
L 349.853118 -23.76 
L 350.907702 -23.76 
L 351.962286 -23.76 
L 353.016871 -23.76 
L 354.071455 -23.76 
L 355.126039 -23.76 
L 356.180624 -23.76 
L 357.235208 -23.76 
L 358.289792 -23.76 
L 359.344377 -23.76 
L 360.398961 -23.76 
L 361.453546 -23.76 
L 362.50813 -23.76 
L 363.562714 -23.76 
L 363.562714 -23.760219 
L 363.562714 -23.760219 
L 362.50813 -23.76064 
L 361.453546 -23.761655 
L 360.398961 -23.763798 
L 359.344377 -23.767761 
L 358.289792 -23.774189 
L 357.235208 -23.783343 
L 356.180624 -23.794767 
L 355.126039 -23.807168 
L 354.071455 -23.818623 
L 353.016871 -23.827092 
L 351.962286 -23.83114 
L 350.907702 -23.830624 
L 349.853118 -23.826969 
L 348.798533 -23.822691 
L 347.743949 -23.820271 
L 346.689364 -23.821014 
L 345.63478 -23.824678 
L 344.580196 -23.830033 
L 343.525611 -23.835828 
L 342.471027 -23.841362 
L 341.416443 -23.846319 
L 340.361858 -23.850253 
L 339.307274 -23.852406 
L 338.25269 -23.85212 
L 337.198105 -23.849371 
L 336.143521 -23.844823 
L 335.088936 -23.8394 
L 334.034352 -23.833929 
L 332.979768 -23.82923 
L 331.925183 -23.826393 
L 330.870599 -23.826705 
L 329.816015 -23.831076 
L 328.76143 -23.839341 
L 327.706846 -23.850059 
L 326.652262 -23.861164 
L 325.597677 -23.871257 
L 324.543093 -23.880735 
L 323.488508 -23.891798 
L 322.433924 -23.906994 
L 321.37934 -23.927112 
L 320.324755 -23.949978 
L 319.270171 -23.971162 
L 318.215587 -23.986283 
L 317.161002 -23.993446 
L 316.106418 -23.994393 
L 315.051834 -23.993626 
L 313.997249 -23.995968 
L 312.942665 -24.004004 
L 311.88808 -24.017211 
L 310.833496 -24.033437 
L 309.778912 -24.051422 
L 308.724327 -24.072089 
L 307.669743 -24.097535 
L 306.615159 -24.128759 
L 305.560574 -24.164056 
L 304.50599 -24.199044 
L 303.451406 -24.227966 
L 302.396821 -24.245489 
L 301.342237 -24.24858 
L 300.287652 -24.238104 
L 299.233068 -24.219339 
L 298.178484 -24.200624 
L 297.123899 -24.190561 
L 296.069315 -24.195586 
L 295.014731 -24.219506 
L 293.960146 -24.264361 
L 292.905562 -24.330432 
L 291.850978 -24.41465 
L 290.796393 -24.509578 
L 289.741809 -24.605404 
L 288.687224 -24.694098 
L 287.63264 -24.77209 
L 286.578056 -24.83924 
L 285.523471 -24.895934 
L 284.468887 -24.941816 
L 283.414303 -24.977375 
L 282.359718 -25.00633 
L 281.305134 -25.036039 
L 280.25055 -25.075259 
L 279.195965 -25.130864 
L 278.141381 -25.205761 
L 277.086796 -25.299068 
L 276.032212 -25.407913 
L 274.977628 -25.529283 
L 273.923043 -25.660935 
L 272.868459 -25.80205 
L 271.813875 -25.954732 
L 270.75929 -26.125634 
L 269.704706 -26.325159 
L 268.650121 -26.563114 
L 267.595537 -26.843265 
L 266.540953 -27.160484 
L 265.486368 -27.501964 
L 264.431784 -27.85189 
L 263.3772 -28.198532 
L 262.322615 -28.541217 
L 261.268031 -28.891769 
L 260.213447 -29.266998 
L 259.158862 -29.677461 
L 258.104278 -30.123315 
L 257.049693 -30.601019 
L 255.995109 -31.112308 
L 254.940525 -31.665469 
L 253.88594 -32.270164 
L 252.831356 -32.934837 
L 251.776772 -33.670412 
L 250.722187 -34.494965 
L 249.667603 -35.434059 
L 248.613019 -36.517849 
L 247.558434 -37.778105 
L 246.50385 -39.244192 
L 245.449265 -40.934799 
L 244.394681 -42.845877 
L 243.340097 -44.940566 
L 242.285512 -47.148337 
L 241.230928 -49.376647 
L 240.176344 -51.531763 
L 239.121759 -53.540052 
L 238.067175 -55.360432 
L 237.012591 -56.983368 
L 235.958006 -58.418951 
L 234.903422 -59.682332 
L 233.848837 -60.785359 
L 232.794253 -61.737686 
L 231.739669 -62.552634 
L 230.685084 -63.249568 
L 229.6305 -63.849269 
L 228.575916 -64.367575 
L 227.521331 -64.816176 
L 226.466747 -65.212526 
L 225.412163 -65.589904 
L 224.357578 -65.996446 
L 223.302994 -66.481875 
L 222.248409 -67.081536 
L 221.193825 -67.807455 
L 220.139241 -68.648468 
L 219.084656 -69.57664 
L 218.030072 -70.558738 
L 216.975488 -71.572716 
L 215.920903 -72.624975 
L 214.866319 -73.758026 
L 213.811735 -75.038217 
L 212.75715 -76.523065 
L 211.702566 -78.221875 
L 210.647981 -80.070731 
L 209.593397 -81.936702 
L 208.538813 -83.650309 
L 207.484228 -85.051356 
L 206.429644 -86.030271 
L 205.37506 -86.553276 
L 204.320475 -86.665411 
L 203.265891 -86.46662 
L 202.211307 -86.060834 
L 201.156722 -85.494749 
L 200.102138 -84.721942 
L 199.047553 -83.623958 
L 197.992969 -82.083371 
L 196.938385 -80.062524 
L 195.8838 -77.636054 
L 194.829216 -74.961638 
L 193.774632 -72.216056 
L 192.720047 -69.537955 
L 191.665463 -67.00354 
L 190.610879 -64.636744 
L 189.556294 -62.436512 
L 188.50171 -60.397141 
L 187.447125 -58.506918 
L 186.392541 -56.731701 
L 185.337957 -55.006801 
L 184.283372 -53.25541 
L 183.228788 -51.426981 
L 182.174204 -49.527393 
L 181.119619 -47.616157 
L 180.065035 -45.772056 
L 179.010451 -44.052824 
L 177.955866 -42.475309 
L 176.901282 -41.022385 
L 175.846697 -39.662292 
L 174.792113 -38.362297 
L 173.737529 -37.091205 
L 172.682944 -35.819142 
L 171.62836 -34.524218 
L 170.573776 -33.2044 
L 169.519191 -31.883187 
L 168.464607 -30.60109 
L 167.410023 -29.397746 
L 166.355438 -28.297774 
L 165.300854 -27.309552 
L 164.246269 -26.434886 
L 163.191685 -25.679446 
L 162.137101 -25.054802 
L 161.082516 -24.571006 
L 160.027932 -24.226616 
L 158.973348 -24.00445 
L 157.918763 -23.875803 
L 156.864179 -23.809347 
L 155.809595 -23.778839 
L 154.75501 -23.766423 
L 153.700426 -23.761951 
z
" style="stroke: #d62728"/>
    </defs>
    <g clip-path="url(#p91a014d0ee)">
     <use xlink:href="#m55e19ca4c5" x="0" y="216" style="fill: #d62728; fill-opacity: 0.5; stroke: #d62728"/>
    </g>
   </g>
   <g id="matplotlib.axis_1">
    <g id="xtick_1">
     <g id="line2d_1">
      <defs>
       <path id="m31cd569e95" d="M 0 0 
L 0 3.5 
" style="stroke: #000000; stroke-width: 0.8"/>
      </defs>
      <g>
       <use xlink:href="#m31cd569e95" x="162.29986" y="192.24" style="stroke: #000000; stroke-width: 0.8"/>
      </g>
     </g>
     <g id="text_1">
      <!-- 0 -->
      <g transform="translate(159.11861 206.838437) scale(0.1 -0.1)">
       <defs>
        <path id="DejaVuSans-30" d="M 2034 4250 
Q 1547 4250 1301 3770 
Q 1056 3291 1056 2328 
Q 1056 1369 1301 889 
Q 1547 409 2034 409 
Q 2525 409 2770 889 
Q 3016 1369 3016 2328 
Q 3016 3291 2770 3770 
Q 2525 4250 2034 4250 
z
M 2034 4750 
Q 2819 4750 3233 4129 
Q 3647 3509 3647 2328 
Q 3647 1150 3233 529 
Q 2819 -91 2034 -91 
Q 1250 -91 836 529 
Q 422 1150 422 2328 
Q 422 3509 836 4129 
Q 1250 4750 2034 4750 
z
" transform="scale(0.015625)"/>
       </defs>
       <use xlink:href="#DejaVuSans-30"/>
      </g>
     </g>
    </g>
    <g id="xtick_2">
     <g id="line2d_2">
      <g>
       <use xlink:href="#m31cd569e95" x="195.379969" y="192.24" style="stroke: #000000; stroke-width: 0.8"/>
      </g>
     </g>
     <g id="text_2">
      <!-- 50000 -->
      <g transform="translate(179.473719 206.838437) scale(0.1 -0.1)">
       <defs>
        <path id="DejaVuSans-35" d="M 691 4666 
L 3169 4666 
L 3169 4134 
L 1269 4134 
L 1269 2991 
Q 1406 3038 1543 3061 
Q 1681 3084 1819 3084 
Q 2600 3084 3056 2656 
Q 3513 2228 3513 1497 
Q 3513 744 3044 326 
Q 2575 -91 1722 -91 
Q 1428 -91 1123 -41 
Q 819 9 494 109 
L 494 744 
Q 775 591 1075 516 
Q 1375 441 1709 441 
Q 2250 441 2565 725 
Q 2881 1009 2881 1497 
Q 2881 1984 2565 2268 
Q 2250 2553 1709 2553 
Q 1456 2553 1204 2497 
Q 953 2441 691 2322 
L 691 4666 
z
" transform="scale(0.015625)"/>
       </defs>
       <use xlink:href="#DejaVuSans-35"/>
       <use xlink:href="#DejaVuSans-30" x="63.623047"/>
       <use xlink:href="#DejaVuSans-30" x="127.246094"/>
       <use xlink:href="#DejaVuSans-30" x="190.869141"/>
       <use xlink:href="#DejaVuSans-30" x="254.492188"/>
      </g>
     </g>
    </g>
    <g id="xtick_3">
     <g id="line2d_3">
      <g>
       <use xlink:href="#m31cd569e95" x="228.460079" y="192.24" style="stroke: #000000; stroke-width: 0.8"/>
      </g>
     </g>
     <g id="text_3">
      <!-- 100000 -->
      <g transform="translate(209.372579 206.838437) scale(0.1 -0.1)">
       <defs>
        <path id="DejaVuSans-31" d="M 794 531 
L 1825 531 
L 1825 4091 
L 703 3866 
L 703 4441 
L 1819 4666 
L 2450 4666 
L 2450 531 
L 3481 531 
L 3481 0 
L 794 0 
L 794 531 
z
" transform="scale(0.015625)"/>
       </defs>
       <use xlink:href="#DejaVuSans-31"/>
       <use xlink:href="#DejaVuSans-30" x="63.623047"/>
       <use xlink:href="#DejaVuSans-30" x="127.246094"/>
       <use xlink:href="#DejaVuSans-30" x="190.869141"/>
       <use xlink:href="#DejaVuSans-30" x="254.492188"/>
       <use xlink:href="#DejaVuSans-30" x="318.115234"/>
      </g>
     </g>
    </g>
    <g id="xtick_4">
     <g id="line2d_4">
      <g>
       <use xlink:href="#m31cd569e95" x="261.540188" y="192.24" style="stroke: #000000; stroke-width: 0.8"/>
      </g>
     </g>
     <g id="text_4">
      <!-- 150000 -->
      <g transform="translate(242.452688 206.838437) scale(0.1 -0.1)">
       <use xlink:href="#DejaVuSans-31"/>
       <use xlink:href="#DejaVuSans-35" x="63.623047"/>
       <use xlink:href="#DejaVuSans-30" x="127.246094"/>
       <use xlink:href="#DejaVuSans-30" x="190.869141"/>
       <use xlink:href="#DejaVuSans-30" x="254.492188"/>
       <use xlink:href="#DejaVuSans-30" x="318.115234"/>
      </g>
     </g>
    </g>
    <g id="xtick_5">
     <g id="line2d_5">
      <g>
       <use xlink:href="#m31cd569e95" x="294.620298" y="192.24" style="stroke: #000000; stroke-width: 0.8"/>
      </g>
     </g>
     <g id="text_5">
      <!-- 200000 -->
      <g transform="translate(275.532798 206.838437) scale(0.1 -0.1)">
       <defs>
        <path id="DejaVuSans-32" d="M 1228 531 
L 3431 531 
L 3431 0 
L 469 0 
L 469 531 
Q 828 903 1448 1529 
Q 2069 2156 2228 2338 
Q 2531 2678 2651 2914 
Q 2772 3150 2772 3378 
Q 2772 3750 2511 3984 
Q 2250 4219 1831 4219 
Q 1534 4219 1204 4116 
Q 875 4013 500 3803 
L 500 4441 
Q 881 4594 1212 4672 
Q 1544 4750 1819 4750 
Q 2544 4750 2975 4387 
Q 3406 4025 3406 3419 
Q 3406 3131 3298 2873 
Q 3191 2616 2906 2266 
Q 2828 2175 2409 1742 
Q 1991 1309 1228 531 
z
" transform="scale(0.015625)"/>
       </defs>
       <use xlink:href="#DejaVuSans-32"/>
       <use xlink:href="#DejaVuSans-30" x="63.623047"/>
       <use xlink:href="#DejaVuSans-30" x="127.246094"/>
       <use xlink:href="#DejaVuSans-30" x="190.869141"/>
       <use xlink:href="#DejaVuSans-30" x="254.492188"/>
       <use xlink:href="#DejaVuSans-30" x="318.115234"/>
      </g>
     </g>
    </g>
    <g id="xtick_6">
     <g id="line2d_6">
      <g>
       <use xlink:href="#m31cd569e95" x="327.700407" y="192.24" style="stroke: #000000; stroke-width: 0.8"/>
      </g>
     </g>
     <g id="text_6">
      <!-- 250000 -->
      <g transform="translate(308.612907 206.838437) scale(0.1 -0.1)">
       <use xlink:href="#DejaVuSans-32"/>
       <use xlink:href="#DejaVuSans-35" x="63.623047"/>
       <use xlink:href="#DejaVuSans-30" x="127.246094"/>
       <use xlink:href="#DejaVuSans-30" x="190.869141"/>
       <use xlink:href="#DejaVuSans-30" x="254.492188"/>
       <use xlink:href="#DejaVuSans-30" x="318.115234"/>
      </g>
     </g>
    </g>
    <g id="xtick_7">
     <g id="line2d_7">
      <g>
       <use xlink:href="#m31cd569e95" x="360.780517" y="192.24" style="stroke: #000000; stroke-width: 0.8"/>
      </g>
     </g>
     <g id="text_7">
      <!-- 300000 -->
      <g transform="translate(341.693017 206.838437) scale(0.1 -0.1)">
       <defs>
        <path id="DejaVuSans-33" d="M 2597 2516 
Q 3050 2419 3304 2112 
Q 3559 1806 3559 1356 
Q 3559 666 3084 287 
Q 2609 -91 1734 -91 
Q 1441 -91 1130 -33 
Q 819 25 488 141 
L 488 750 
Q 750 597 1062 519 
Q 1375 441 1716 441 
Q 2309 441 2620 675 
Q 2931 909 2931 1356 
Q 2931 1769 2642 2001 
Q 2353 2234 1838 2234 
L 1294 2234 
L 1294 2753 
L 1863 2753 
Q 2328 2753 2575 2939 
Q 2822 3125 2822 3475 
Q 2822 3834 2567 4026 
Q 2313 4219 1838 4219 
Q 1578 4219 1281 4162 
Q 984 4106 628 3988 
L 628 4550 
Q 988 4650 1302 4700 
Q 1616 4750 1894 4750 
Q 2613 4750 3031 4423 
Q 3450 4097 3450 3541 
Q 3450 3153 3228 2886 
Q 3006 2619 2597 2516 
z
" transform="scale(0.015625)"/>
       </defs>
       <use xlink:href="#DejaVuSans-33"/>
       <use xlink:href="#DejaVuSans-30" x="63.623047"/>
       <use xlink:href="#DejaVuSans-30" x="127.246094"/>
       <use xlink:href="#DejaVuSans-30" x="190.869141"/>
       <use xlink:href="#DejaVuSans-30" x="254.492188"/>
       <use xlink:href="#DejaVuSans-30" x="318.115234"/>
      </g>
     </g>
    </g>
    <g id="text_8">
     <!-- salary -->
     <g transform="translate(242.951517 220.516562) scale(0.1 -0.1)">
      <defs>
       <path id="DejaVuSans-73" d="M 2834 3397 
L 2834 2853 
Q 2591 2978 2328 3040 
Q 2066 3103 1784 3103 
Q 1356 3103 1142 2972 
Q 928 2841 928 2578 
Q 928 2378 1081 2264 
Q 1234 2150 1697 2047 
L 1894 2003 
Q 2506 1872 2764 1633 
Q 3022 1394 3022 966 
Q 3022 478 2636 193 
Q 2250 -91 1575 -91 
Q 1294 -91 989 -36 
Q 684 19 347 128 
L 347 722 
Q 666 556 975 473 
Q 1284 391 1588 391 
Q 1994 391 2212 530 
Q 2431 669 2431 922 
Q 2431 1156 2273 1281 
Q 2116 1406 1581 1522 
L 1381 1569 
Q 847 1681 609 1914 
Q 372 2147 372 2553 
Q 372 3047 722 3315 
Q 1072 3584 1716 3584 
Q 2034 3584 2315 3537 
Q 2597 3491 2834 3397 
z
" transform="scale(0.015625)"/>
       <path id="DejaVuSans-61" d="M 2194 1759 
Q 1497 1759 1228 1600 
Q 959 1441 959 1056 
Q 959 750 1161 570 
Q 1363 391 1709 391 
Q 2188 391 2477 730 
Q 2766 1069 2766 1631 
L 2766 1759 
L 2194 1759 
z
M 3341 1997 
L 3341 0 
L 2766 0 
L 2766 531 
Q 2569 213 2275 61 
Q 1981 -91 1556 -91 
Q 1019 -91 701 211 
Q 384 513 384 1019 
Q 384 1609 779 1909 
Q 1175 2209 1959 2209 
L 2766 2209 
L 2766 2266 
Q 2766 2663 2505 2880 
Q 2244 3097 1772 3097 
Q 1472 3097 1187 3025 
Q 903 2953 641 2809 
L 641 3341 
Q 956 3463 1253 3523 
Q 1550 3584 1831 3584 
Q 2591 3584 2966 3190 
Q 3341 2797 3341 1997 
z
" transform="scale(0.015625)"/>
       <path id="DejaVuSans-6c" d="M 603 4863 
L 1178 4863 
L 1178 0 
L 603 0 
L 603 4863 
z
" transform="scale(0.015625)"/>
       <path id="DejaVuSans-72" d="M 2631 2963 
Q 2534 3019 2420 3045 
Q 2306 3072 2169 3072 
Q 1681 3072 1420 2755 
Q 1159 2438 1159 1844 
L 1159 0 
L 581 0 
L 581 3500 
L 1159 3500 
L 1159 2956 
Q 1341 3275 1631 3429 
Q 1922 3584 2338 3584 
Q 2397 3584 2469 3576 
Q 2541 3569 2628 3553 
L 2631 2963 
z
" transform="scale(0.015625)"/>
       <path id="DejaVuSans-79" d="M 2059 -325 
Q 1816 -950 1584 -1140 
Q 1353 -1331 966 -1331 
L 506 -1331 
L 506 -850 
L 844 -850 
Q 1081 -850 1212 -737 
Q 1344 -625 1503 -206 
L 1606 56 
L 191 3500 
L 800 3500 
L 1894 763 
L 2988 3500 
L 3597 3500 
L 2059 -325 
z
" transform="scale(0.015625)"/>
      </defs>
      <use xlink:href="#DejaVuSans-73"/>
      <use xlink:href="#DejaVuSans-61" x="52.099609"/>
      <use xlink:href="#DejaVuSans-6c" x="113.378906"/>
      <use xlink:href="#DejaVuSans-61" x="141.162109"/>
      <use xlink:href="#DejaVuSans-72" x="202.441406"/>
      <use xlink:href="#DejaVuSans-79" x="243.554688"/>
     </g>
    </g>
   </g>
   <g id="matplotlib.axis_2">
    <g id="ytick_1">
     <g id="line2d_8">
      <defs>
       <path id="mb8efca4e36" d="M 0 0 
L -3.5 0 
" style="stroke: #000000; stroke-width: 0.8"/>
      </defs>
      <g>
       <use xlink:href="#mb8efca4e36" x="135" y="192.24" style="stroke: #000000; stroke-width: 0.8"/>
      </g>
     </g>
     <g id="text_9">
      <!-- 0.0 -->
      <g transform="translate(112.096875 196.039219) scale(0.1 -0.1)">
       <defs>
        <path id="DejaVuSans-2e" d="M 684 794 
L 1344 794 
L 1344 0 
L 684 0 
L 684 794 
z
" transform="scale(0.015625)"/>
       </defs>
       <use xlink:href="#DejaVuSans-30"/>
       <use xlink:href="#DejaVuSans-2e" x="63.623047"/>
       <use xlink:href="#DejaVuSans-30" x="95.410156"/>
      </g>
     </g>
    </g>
    <g id="ytick_2">
     <g id="line2d_9">
      <g>
       <use xlink:href="#mb8efca4e36" x="135" y="164.505502" style="stroke: #000000; stroke-width: 0.8"/>
      </g>
     </g>
     <g id="text_10">
      <!-- 0.2 -->
      <g transform="translate(112.096875 168.304721) scale(0.1 -0.1)">
       <use xlink:href="#DejaVuSans-30"/>
       <use xlink:href="#DejaVuSans-2e" x="63.623047"/>
       <use xlink:href="#DejaVuSans-32" x="95.410156"/>
      </g>
     </g>
    </g>
    <g id="ytick_3">
     <g id="line2d_10">
      <g>
       <use xlink:href="#mb8efca4e36" x="135" y="136.771004" style="stroke: #000000; stroke-width: 0.8"/>
      </g>
     </g>
     <g id="text_11">
      <!-- 0.4 -->
      <g transform="translate(112.096875 140.570223) scale(0.1 -0.1)">
       <defs>
        <path id="DejaVuSans-34" d="M 2419 4116 
L 825 1625 
L 2419 1625 
L 2419 4116 
z
M 2253 4666 
L 3047 4666 
L 3047 1625 
L 3713 1625 
L 3713 1100 
L 3047 1100 
L 3047 0 
L 2419 0 
L 2419 1100 
L 313 1100 
L 313 1709 
L 2253 4666 
z
" transform="scale(0.015625)"/>
       </defs>
       <use xlink:href="#DejaVuSans-30"/>
       <use xlink:href="#DejaVuSans-2e" x="63.623047"/>
       <use xlink:href="#DejaVuSans-34" x="95.410156"/>
      </g>
     </g>
    </g>
    <g id="ytick_4">
     <g id="line2d_11">
      <g>
       <use xlink:href="#mb8efca4e36" x="135" y="109.036507" style="stroke: #000000; stroke-width: 0.8"/>
      </g>
     </g>
     <g id="text_12">
      <!-- 0.6 -->
      <g transform="translate(112.096875 112.835725) scale(0.1 -0.1)">
       <defs>
        <path id="DejaVuSans-36" d="M 2113 2584 
Q 1688 2584 1439 2293 
Q 1191 2003 1191 1497 
Q 1191 994 1439 701 
Q 1688 409 2113 409 
Q 2538 409 2786 701 
Q 3034 994 3034 1497 
Q 3034 2003 2786 2293 
Q 2538 2584 2113 2584 
z
M 3366 4563 
L 3366 3988 
Q 3128 4100 2886 4159 
Q 2644 4219 2406 4219 
Q 1781 4219 1451 3797 
Q 1122 3375 1075 2522 
Q 1259 2794 1537 2939 
Q 1816 3084 2150 3084 
Q 2853 3084 3261 2657 
Q 3669 2231 3669 1497 
Q 3669 778 3244 343 
Q 2819 -91 2113 -91 
Q 1303 -91 875 529 
Q 447 1150 447 2328 
Q 447 3434 972 4092 
Q 1497 4750 2381 4750 
Q 2619 4750 2861 4703 
Q 3103 4656 3366 4563 
z
" transform="scale(0.015625)"/>
       </defs>
       <use xlink:href="#DejaVuSans-30"/>
       <use xlink:href="#DejaVuSans-2e" x="63.623047"/>
       <use xlink:href="#DejaVuSans-36" x="95.410156"/>
      </g>
     </g>
    </g>
    <g id="ytick_5">
     <g id="line2d_12">
      <g>
       <use xlink:href="#mb8efca4e36" x="135" y="81.302009" style="stroke: #000000; stroke-width: 0.8"/>
      </g>
     </g>
     <g id="text_13">
      <!-- 0.8 -->
      <g transform="translate(112.096875 85.101228) scale(0.1 -0.1)">
       <defs>
        <path id="DejaVuSans-38" d="M 2034 2216 
Q 1584 2216 1326 1975 
Q 1069 1734 1069 1313 
Q 1069 891 1326 650 
Q 1584 409 2034 409 
Q 2484 409 2743 651 
Q 3003 894 3003 1313 
Q 3003 1734 2745 1975 
Q 2488 2216 2034 2216 
z
M 1403 2484 
Q 997 2584 770 2862 
Q 544 3141 544 3541 
Q 544 4100 942 4425 
Q 1341 4750 2034 4750 
Q 2731 4750 3128 4425 
Q 3525 4100 3525 3541 
Q 3525 3141 3298 2862 
Q 3072 2584 2669 2484 
Q 3125 2378 3379 2068 
Q 3634 1759 3634 1313 
Q 3634 634 3220 271 
Q 2806 -91 2034 -91 
Q 1263 -91 848 271 
Q 434 634 434 1313 
Q 434 1759 690 2068 
Q 947 2378 1403 2484 
z
M 1172 3481 
Q 1172 3119 1398 2916 
Q 1625 2713 2034 2713 
Q 2441 2713 2670 2916 
Q 2900 3119 2900 3481 
Q 2900 3844 2670 4047 
Q 2441 4250 2034 4250 
Q 1625 4250 1398 4047 
Q 1172 3844 1172 3481 
z
" transform="scale(0.015625)"/>
       </defs>
       <use xlink:href="#DejaVuSans-30"/>
       <use xlink:href="#DejaVuSans-2e" x="63.623047"/>
       <use xlink:href="#DejaVuSans-38" x="95.410156"/>
      </g>
     </g>
    </g>
    <g id="ytick_6">
     <g id="line2d_13">
      <g>
       <use xlink:href="#mb8efca4e36" x="135" y="53.567511" style="stroke: #000000; stroke-width: 0.8"/>
      </g>
     </g>
     <g id="text_14">
      <!-- 1.0 -->
      <g transform="translate(112.096875 57.36673) scale(0.1 -0.1)">
       <use xlink:href="#DejaVuSans-31"/>
       <use xlink:href="#DejaVuSans-2e" x="63.623047"/>
       <use xlink:href="#DejaVuSans-30" x="95.410156"/>
      </g>
     </g>
    </g>
    <g id="text_15">
     <!-- Density -->
     <g transform="translate(106.017187 128.088594) rotate(-90) scale(0.1 -0.1)">
      <defs>
       <path id="DejaVuSans-44" d="M 1259 4147 
L 1259 519 
L 2022 519 
Q 2988 519 3436 956 
Q 3884 1394 3884 2338 
Q 3884 3275 3436 3711 
Q 2988 4147 2022 4147 
L 1259 4147 
z
M 628 4666 
L 1925 4666 
Q 3281 4666 3915 4102 
Q 4550 3538 4550 2338 
Q 4550 1131 3912 565 
Q 3275 0 1925 0 
L 628 0 
L 628 4666 
z
" transform="scale(0.015625)"/>
       <path id="DejaVuSans-65" d="M 3597 1894 
L 3597 1613 
L 953 1613 
Q 991 1019 1311 708 
Q 1631 397 2203 397 
Q 2534 397 2845 478 
Q 3156 559 3463 722 
L 3463 178 
Q 3153 47 2828 -22 
Q 2503 -91 2169 -91 
Q 1331 -91 842 396 
Q 353 884 353 1716 
Q 353 2575 817 3079 
Q 1281 3584 2069 3584 
Q 2775 3584 3186 3129 
Q 3597 2675 3597 1894 
z
M 3022 2063 
Q 3016 2534 2758 2815 
Q 2500 3097 2075 3097 
Q 1594 3097 1305 2825 
Q 1016 2553 972 2059 
L 3022 2063 
z
" transform="scale(0.015625)"/>
       <path id="DejaVuSans-6e" d="M 3513 2113 
L 3513 0 
L 2938 0 
L 2938 2094 
Q 2938 2591 2744 2837 
Q 2550 3084 2163 3084 
Q 1697 3084 1428 2787 
Q 1159 2491 1159 1978 
L 1159 0 
L 581 0 
L 581 3500 
L 1159 3500 
L 1159 2956 
Q 1366 3272 1645 3428 
Q 1925 3584 2291 3584 
Q 2894 3584 3203 3211 
Q 3513 2838 3513 2113 
z
" transform="scale(0.015625)"/>
       <path id="DejaVuSans-69" d="M 603 3500 
L 1178 3500 
L 1178 0 
L 603 0 
L 603 3500 
z
M 603 4863 
L 1178 4863 
L 1178 4134 
L 603 4134 
L 603 4863 
z
" transform="scale(0.015625)"/>
       <path id="DejaVuSans-74" d="M 1172 4494 
L 1172 3500 
L 2356 3500 
L 2356 3053 
L 1172 3053 
L 1172 1153 
Q 1172 725 1289 603 
Q 1406 481 1766 481 
L 2356 481 
L 2356 0 
L 1766 0 
Q 1100 0 847 248 
Q 594 497 594 1153 
L 594 3053 
L 172 3053 
L 172 3500 
L 594 3500 
L 594 4494 
L 1172 4494 
z
" transform="scale(0.015625)"/>
      </defs>
      <use xlink:href="#DejaVuSans-44"/>
      <use xlink:href="#DejaVuSans-65" x="77.001953"/>
      <use xlink:href="#DejaVuSans-6e" x="138.525391"/>
      <use xlink:href="#DejaVuSans-73" x="201.904297"/>
      <use xlink:href="#DejaVuSans-69" x="254.003906"/>
      <use xlink:href="#DejaVuSans-74" x="281.787109"/>
      <use xlink:href="#DejaVuSans-79" x="320.996094"/>
     </g>
    </g>
    <g id="text_16">
     <!-- 1e−5 -->
     <g transform="translate(135 22.92) scale(0.1 -0.1)">
      <defs>
       <path id="DejaVuSans-2212" d="M 678 2272 
L 4684 2272 
L 4684 1741 
L 678 1741 
L 678 2272 
z
" transform="scale(0.015625)"/>
      </defs>
      <use xlink:href="#DejaVuSans-31"/>
      <use xlink:href="#DejaVuSans-65" x="63.623047"/>
      <use xlink:href="#DejaVuSans-2212" x="125.146484"/>
      <use xlink:href="#DejaVuSans-35" x="208.935547"/>
     </g>
    </g>
   </g>
   <g id="patch_3">
    <path d="M 135 192.24 
L 135 25.92 
" style="fill: none; stroke: #000000; stroke-width: 0.8; stroke-linejoin: miter; stroke-linecap: square"/>
   </g>
   <g id="patch_4">
    <path d="M 381.176471 192.24 
L 381.176471 25.92 
" style="fill: none; stroke: #000000; stroke-width: 0.8; stroke-linejoin: miter; stroke-linecap: square"/>
   </g>
   <g id="patch_5">
    <path d="M 135 192.24 
L 381.176471 192.24 
" style="fill: none; stroke: #000000; stroke-width: 0.8; stroke-linejoin: miter; stroke-linecap: square"/>
   </g>
   <g id="patch_6">
    <path d="M 135 25.92 
L 381.176471 25.92 
" style="fill: none; stroke: #000000; stroke-width: 0.8; stroke-linejoin: miter; stroke-linecap: square"/>
   </g>
   <g id="legend_1">
    <g id="patch_7">
     <path d="M 335.813971 77.954375 
L 374.176471 77.954375 
Q 376.176471 77.954375 376.176471 75.954375 
L 376.176471 32.92 
Q 376.176471 30.92 374.176471 30.92 
L 335.813971 30.92 
Q 333.813971 30.92 333.813971 32.92 
L 333.813971 75.954375 
Q 333.813971 77.954375 335.813971 77.954375 
z
" style="fill: #ffffff; opacity: 0.8; stroke: #cccccc; stroke-linejoin: miter"/>
    </g>
    <g id="text_17">
     <!-- union -->
     <g transform="translate(341.040533 42.518438) scale(0.1 -0.1)">
      <defs>
       <path id="DejaVuSans-75" d="M 544 1381 
L 544 3500 
L 1119 3500 
L 1119 1403 
Q 1119 906 1312 657 
Q 1506 409 1894 409 
Q 2359 409 2629 706 
Q 2900 1003 2900 1516 
L 2900 3500 
L 3475 3500 
L 3475 0 
L 2900 0 
L 2900 538 
Q 2691 219 2414 64 
Q 2138 -91 1772 -91 
Q 1169 -91 856 284 
Q 544 659 544 1381 
z
M 1991 3584 
L 1991 3584 
z
" transform="scale(0.015625)"/>
       <path id="DejaVuSans-6f" d="M 1959 3097 
Q 1497 3097 1228 2736 
Q 959 2375 959 1747 
Q 959 1119 1226 758 
Q 1494 397 1959 397 
Q 2419 397 2687 759 
Q 2956 1122 2956 1747 
Q 2956 2369 2687 2733 
Q 2419 3097 1959 3097 
z
M 1959 3584 
Q 2709 3584 3137 3096 
Q 3566 2609 3566 1747 
Q 3566 888 3137 398 
Q 2709 -91 1959 -91 
Q 1206 -91 779 398 
Q 353 888 353 1747 
Q 353 2609 779 3096 
Q 1206 3584 1959 3584 
z
" transform="scale(0.015625)"/>
      </defs>
      <use xlink:href="#DejaVuSans-75"/>
      <use xlink:href="#DejaVuSans-6e" x="63.378906"/>
      <use xlink:href="#DejaVuSans-69" x="126.757812"/>
      <use xlink:href="#DejaVuSans-6f" x="154.541016"/>
      <use xlink:href="#DejaVuSans-6e" x="215.722656"/>
     </g>
    </g>
    <g id="patch_8">
     <path d="M 337.813971 57.196562 
L 357.813971 57.196562 
L 357.813971 50.196562 
L 337.813971 50.196562 
z
" style="fill: #d62728; fill-opacity: 0.5; stroke: #d62728; stroke-linejoin: miter"/>
    </g>
    <g id="text_18">
     <!-- 1 -->
     <g transform="translate(365.813971 57.196562) scale(0.1 -0.1)">
      <use xlink:href="#DejaVuSans-31"/>
     </g>
    </g>
    <g id="patch_9">
     <path d="M 337.813971 71.874687 
L 357.813971 71.874687 
L 357.813971 64.874687 
L 337.813971 64.874687 
z
" style="fill: #2ca02c; fill-opacity: 0.5; stroke: #2ca02c; stroke-linejoin: miter"/>
    </g>
    <g id="text_19">
     <!-- 0 -->
     <g transform="translate(365.813971 71.874687) scale(0.1 -0.1)">
      <use xlink:href="#DejaVuSans-30"/>
     </g>
    </g>
   </g>
  </g>
  <g id="axes_2">
   <g id="patch_10">
    <path d="M 430.411765 192.24 
L 676.588235 192.24 
L 676.588235 25.92 
L 430.411765 25.92 
z
" style="fill: #ffffff"/>
   </g>
   <g id="PolyCollection_3">
    <defs>
     <path id="m6730c09249" d="M 448.999352 -23.776887 
L 448.999352 -23.76 
L 450.071771 -23.76 
L 451.14419 -23.76 
L 452.21661 -23.76 
L 453.289029 -23.76 
L 454.361448 -23.76 
L 455.433867 -23.76 
L 456.506286 -23.76 
L 457.578705 -23.76 
L 458.651124 -23.76 
L 459.723543 -23.76 
L 460.795963 -23.76 
L 461.868382 -23.76 
L 462.940801 -23.76 
L 464.01322 -23.76 
L 465.085639 -23.76 
L 466.158058 -23.76 
L 467.230477 -23.76 
L 468.302896 -23.76 
L 469.375315 -23.76 
L 470.447735 -23.76 
L 471.520154 -23.76 
L 472.592573 -23.76 
L 473.664992 -23.76 
L 474.737411 -23.76 
L 475.80983 -23.76 
L 476.882249 -23.76 
L 477.954668 -23.76 
L 479.027088 -23.76 
L 480.099507 -23.76 
L 481.171926 -23.76 
L 482.244345 -23.76 
L 483.316764 -23.76 
L 484.389183 -23.76 
L 485.461602 -23.76 
L 486.534021 -23.76 
L 487.60644 -23.76 
L 488.67886 -23.76 
L 489.751279 -23.76 
L 490.823698 -23.76 
L 491.896117 -23.76 
L 492.968536 -23.76 
L 494.040955 -23.76 
L 495.113374 -23.76 
L 496.185793 -23.76 
L 497.258213 -23.76 
L 498.330632 -23.76 
L 499.403051 -23.76 
L 500.47547 -23.76 
L 501.547889 -23.76 
L 502.620308 -23.76 
L 503.692727 -23.76 
L 504.765146 -23.76 
L 505.837565 -23.76 
L 506.909985 -23.76 
L 507.982404 -23.76 
L 509.054823 -23.76 
L 510.127242 -23.76 
L 511.199661 -23.76 
L 512.27208 -23.76 
L 513.344499 -23.76 
L 514.416918 -23.76 
L 515.489338 -23.76 
L 516.561757 -23.76 
L 517.634176 -23.76 
L 518.706595 -23.76 
L 519.779014 -23.76 
L 520.851433 -23.76 
L 521.923852 -23.76 
L 522.996271 -23.76 
L 524.068691 -23.76 
L 525.14111 -23.76 
L 526.213529 -23.76 
L 527.285948 -23.76 
L 528.358367 -23.76 
L 529.430786 -23.76 
L 530.503205 -23.76 
L 531.575624 -23.76 
L 532.648043 -23.76 
L 533.720463 -23.76 
L 534.792882 -23.76 
L 535.865301 -23.76 
L 536.93772 -23.76 
L 538.010139 -23.76 
L 539.082558 -23.76 
L 540.154977 -23.76 
L 541.227396 -23.76 
L 542.299816 -23.76 
L 543.372235 -23.76 
L 544.444654 -23.76 
L 545.517073 -23.76 
L 546.589492 -23.76 
L 547.661911 -23.76 
L 548.73433 -23.76 
L 549.806749 -23.76 
L 550.879168 -23.76 
L 551.951588 -23.76 
L 553.024007 -23.76 
L 554.096426 -23.76 
L 555.168845 -23.76 
L 556.241264 -23.76 
L 557.313683 -23.76 
L 558.386102 -23.76 
L 559.458521 -23.76 
L 560.530941 -23.76 
L 561.60336 -23.76 
L 562.675779 -23.76 
L 563.748198 -23.76 
L 564.820617 -23.76 
L 565.893036 -23.76 
L 566.965455 -23.76 
L 568.037874 -23.76 
L 569.110293 -23.76 
L 570.182713 -23.76 
L 571.255132 -23.76 
L 572.327551 -23.76 
L 573.39997 -23.76 
L 574.472389 -23.76 
L 575.544808 -23.76 
L 576.617227 -23.76 
L 577.689646 -23.76 
L 578.762066 -23.76 
L 579.834485 -23.76 
L 580.906904 -23.76 
L 581.979323 -23.76 
L 583.051742 -23.76 
L 584.124161 -23.76 
L 585.19658 -23.76 
L 586.268999 -23.76 
L 587.341418 -23.76 
L 588.413838 -23.76 
L 589.486257 -23.76 
L 590.558676 -23.76 
L 591.631095 -23.76 
L 592.703514 -23.76 
L 593.775933 -23.76 
L 594.848352 -23.76 
L 595.920771 -23.76 
L 596.993191 -23.76 
L 598.06561 -23.76 
L 599.138029 -23.76 
L 600.210448 -23.76 
L 601.282867 -23.76 
L 602.355286 -23.76 
L 603.427705 -23.76 
L 604.500124 -23.76 
L 605.572543 -23.76 
L 606.644963 -23.76 
L 607.717382 -23.76 
L 608.789801 -23.76 
L 609.86222 -23.76 
L 610.934639 -23.76 
L 612.007058 -23.76 
L 613.079477 -23.76 
L 614.151896 -23.76 
L 615.224316 -23.76 
L 616.296735 -23.76 
L 617.369154 -23.76 
L 618.441573 -23.76 
L 619.513992 -23.76 
L 620.586411 -23.76 
L 621.65883 -23.76 
L 622.731249 -23.76 
L 623.803669 -23.76 
L 624.876088 -23.76 
L 625.948507 -23.76 
L 627.020926 -23.76 
L 628.093345 -23.76 
L 629.165764 -23.76 
L 630.238183 -23.76 
L 631.310602 -23.76 
L 632.383021 -23.76 
L 633.455441 -23.76 
L 634.52786 -23.76 
L 635.600279 -23.76 
L 636.672698 -23.76 
L 637.745117 -23.76 
L 638.817536 -23.76 
L 639.889955 -23.76 
L 640.962374 -23.76 
L 642.034794 -23.76 
L 643.107213 -23.76 
L 644.179632 -23.76 
L 645.252051 -23.76 
L 646.32447 -23.76 
L 647.396889 -23.76 
L 648.469308 -23.76 
L 649.541727 -23.76 
L 650.614146 -23.76 
L 651.686566 -23.76 
L 652.758985 -23.76 
L 653.831404 -23.76 
L 654.903823 -23.76 
L 655.976242 -23.76 
L 657.048661 -23.76 
L 658.12108 -23.76 
L 659.193499 -23.76 
L 660.265919 -23.76 
L 661.338338 -23.76 
L 662.410757 -23.76 
L 662.410757 -23.760232 
L 662.410757 -23.760232 
L 661.338338 -23.760715 
L 660.265919 -23.761969 
L 659.193499 -23.764877 
L 658.12108 -23.770891 
L 657.048661 -23.781987 
L 655.976242 -23.800195 
L 654.903823 -23.826661 
L 653.831404 -23.860537 
L 652.758985 -23.898471 
L 651.686566 -23.935406 
L 650.614146 -23.966536 
L 649.541727 -23.989274 
L 648.469308 -24.003944 
L 647.396889 -24.013021 
L 646.32447 -24.019903 
L 645.252051 -24.028004 
L 644.179632 -24.040019 
L 643.107213 -24.05708 
L 642.034794 -24.078483 
L 640.962374 -24.102888 
L 639.889955 -24.130311 
L 638.817536 -24.162515 
L 637.745117 -24.200388 
L 636.672698 -24.240431 
L 635.600279 -24.274609 
L 634.52786 -24.295168 
L 633.455441 -24.300762 
L 632.383021 -24.298264 
L 631.310602 -24.29855 
L 630.238183 -24.310045 
L 629.165764 -24.334812 
L 628.093345 -24.368644 
L 627.020926 -24.403854 
L 625.948507 -24.433525 
L 624.876088 -24.456088 
L 623.803669 -24.47753 
L 622.731249 -24.508473 
L 621.65883 -24.557308 
L 620.586411 -24.624694 
L 619.513992 -24.703734 
L 618.441573 -24.784723 
L 617.369154 -24.859903 
L 616.296735 -24.925185 
L 615.224316 -24.979103 
L 614.151896 -25.020874 
L 613.079477 -25.049545 
L 612.007058 -25.065402 
L 610.934639 -25.072346 
L 609.86222 -25.077541 
L 608.789801 -25.086642 
L 607.717382 -25.098975 
L 606.644963 -25.109194 
L 605.572543 -25.115601 
L 604.500124 -25.12715 
L 603.427705 -25.161817 
L 602.355286 -25.2379 
L 601.282867 -25.365759 
L 600.210448 -25.543982 
L 599.138029 -25.758025 
L 598.06561 -25.980374 
L 596.993191 -26.176456 
L 595.920771 -26.31882 
L 594.848352 -26.401686 
L 593.775933 -26.442231 
L 592.703514 -26.465369 
L 591.631095 -26.486173 
L 590.558676 -26.50718 
L 589.486257 -26.530456 
L 588.413838 -26.567169 
L 587.341418 -26.632085 
L 586.268999 -26.730555 
L 585.19658 -26.854283 
L 584.124161 -26.989241 
L 583.051742 -27.123861 
L 581.979323 -27.248594 
L 580.906904 -27.352453 
L 579.834485 -27.426826 
L 578.762066 -27.476031 
L 577.689646 -27.523499 
L 576.617227 -27.60518 
L 575.544808 -27.753323 
L 574.472389 -27.981486 
L 573.39997 -28.279886 
L 572.327551 -28.622451 
L 571.255132 -28.979302 
L 570.182713 -29.326223 
L 569.110293 -29.647787 
L 568.037874 -29.937809 
L 566.965455 -30.201247 
L 565.893036 -30.455029 
L 564.820617 -30.722037 
L 563.748198 -31.019371 
L 562.675779 -31.350712 
L 561.60336 -31.709965 
L 560.530941 -32.091792 
L 559.458521 -32.498674 
L 558.386102 -32.93991 
L 557.313683 -33.425891 
L 556.241264 -33.962882 
L 555.168845 -34.55213 
L 554.096426 -35.195175 
L 553.024007 -35.901162 
L 551.951588 -36.685037 
L 550.879168 -37.551087 
L 549.806749 -38.475142 
L 548.73433 -39.407778 
L 547.661911 -40.303223 
L 546.589492 -41.151869 
L 545.517073 -41.989505 
L 544.444654 -42.877104 
L 543.372235 -43.866714 
L 542.299816 -44.974039 
L 541.227396 -46.171227 
L 540.154977 -47.403379 
L 539.082558 -48.621132 
L 538.010139 -49.811177 
L 536.93772 -51.00558 
L 535.865301 -52.263814 
L 534.792882 -53.639657 
L 533.720463 -55.153901 
L 532.648043 -56.787017 
L 531.575624 -58.491428 
L 530.503205 -60.213383 
L 529.430786 -61.913922 
L 528.358367 -63.581467 
L 527.285948 -65.230367 
L 526.213529 -66.884015 
L 525.14111 -68.551534 
L 524.068691 -70.215594 
L 522.996271 -71.843409 
L 521.923852 -73.41491 
L 520.851433 -74.948453 
L 519.779014 -76.507145 
L 518.706595 -78.181778 
L 517.634176 -80.057173 
L 516.561757 -82.17551 
L 515.489338 -84.51546 
L 514.416918 -87.003207 
L 513.344499 -89.553889 
L 512.27208 -92.120204 
L 511.199661 -94.719116 
L 510.127242 -97.422507 
L 509.054823 -100.318537 
L 507.982404 -103.463945 
L 506.909985 -106.851026 
L 505.837565 -110.40713 
L 504.765146 -114.028403 
L 503.692727 -117.629222 
L 502.620308 -121.17799 
L 501.547889 -124.697744 
L 500.47547 -128.231218 
L 499.403051 -131.791159 
L 498.330632 -135.325517 
L 497.258213 -138.718631 
L 496.185793 -141.827632 
L 495.113374 -144.530879 
L 494.040955 -146.758085 
L 492.968536 -148.486466 
L 491.896117 -149.713062 
L 490.823698 -150.428773 
L 489.751279 -150.612937 
L 488.67886 -150.248564 
L 487.60644 -149.346182 
L 486.534021 -147.963714 
L 485.461602 -146.212646 
L 484.389183 -144.242683 
L 483.316764 -142.204051 
L 482.244345 -140.201351 
L 481.171926 -138.265643 
L 480.099507 -136.366268 
L 479.027088 -134.456578 
L 477.954668 -132.518109 
L 476.882249 -130.567588 
L 475.80983 -128.626224 
L 474.737411 -126.684399 
L 473.664992 -124.688889 
L 472.592573 -122.545722 
L 471.520154 -120.116612 
L 470.447735 -117.20848 
L 469.375315 -113.581396 
L 468.302896 -108.995718 
L 467.230477 -103.289272 
L 466.158058 -96.449437 
L 465.085639 -88.641851 
L 464.01322 -80.178211 
L 462.940801 -71.43958 
L 461.868382 -62.797819 
L 460.795963 -54.574685 
L 459.723543 -47.044692 
L 458.651124 -40.45048 
L 457.578705 -34.992047 
L 456.506286 -30.781755 
L 455.433867 -27.797476 
L 454.361448 -25.876609 
L 453.289029 -24.764205 
L 452.21661 -24.188569 
L 451.14419 -23.923725 
L 450.071771 -23.815771 
L 448.999352 -23.776887 
z
" style="stroke: #2ca02c"/>
    </defs>
    <g clip-path="url(#p96a80d5b8e)">
     <use xlink:href="#m6730c09249" x="0" y="216" style="fill: #2ca02c; fill-opacity: 0.5; stroke: #2ca02c"/>
    </g>
   </g>
   <g id="PolyCollection_4">
    <defs>
     <path id="ma8d003243d" d="M 447.98821 -23.761552 
L 447.98821 -23.76 
L 449.080723 -23.76 
L 450.173237 -23.76 
L 451.26575 -23.76 
L 452.358264 -23.76 
L 453.450777 -23.76 
L 454.543291 -23.76 
L 455.635804 -23.76 
L 456.728318 -23.76 
L 457.820831 -23.76 
L 458.913345 -23.76 
L 460.005858 -23.76 
L 461.098372 -23.76 
L 462.190885 -23.76 
L 463.283399 -23.76 
L 464.375912 -23.76 
L 465.468426 -23.76 
L 466.560939 -23.76 
L 467.653453 -23.76 
L 468.745966 -23.76 
L 469.83848 -23.76 
L 470.930993 -23.76 
L 472.023507 -23.76 
L 473.11602 -23.76 
L 474.208534 -23.76 
L 475.301047 -23.76 
L 476.393561 -23.76 
L 477.486074 -23.76 
L 478.578588 -23.76 
L 479.671101 -23.76 
L 480.763615 -23.76 
L 481.856128 -23.76 
L 482.948642 -23.76 
L 484.041155 -23.76 
L 485.133669 -23.76 
L 486.226182 -23.76 
L 487.318696 -23.76 
L 488.411209 -23.76 
L 489.503723 -23.76 
L 490.596236 -23.76 
L 491.68875 -23.76 
L 492.781263 -23.76 
L 493.873777 -23.76 
L 494.96629 -23.76 
L 496.058804 -23.76 
L 497.151317 -23.76 
L 498.243831 -23.76 
L 499.336344 -23.76 
L 500.428858 -23.76 
L 501.521371 -23.76 
L 502.613885 -23.76 
L 503.706398 -23.76 
L 504.798912 -23.76 
L 505.891425 -23.76 
L 506.983939 -23.76 
L 508.076452 -23.76 
L 509.168966 -23.76 
L 510.261479 -23.76 
L 511.353993 -23.76 
L 512.446506 -23.76 
L 513.53902 -23.76 
L 514.631533 -23.76 
L 515.724047 -23.76 
L 516.81656 -23.76 
L 517.909074 -23.76 
L 519.001587 -23.76 
L 520.094101 -23.76 
L 521.186614 -23.76 
L 522.279128 -23.76 
L 523.371641 -23.76 
L 524.464155 -23.76 
L 525.556668 -23.76 
L 526.649182 -23.76 
L 527.741695 -23.76 
L 528.834209 -23.76 
L 529.926722 -23.76 
L 531.019236 -23.76 
L 532.111749 -23.76 
L 533.204263 -23.76 
L 534.296776 -23.76 
L 535.38929 -23.76 
L 536.481803 -23.76 
L 537.574317 -23.76 
L 538.66683 -23.76 
L 539.759344 -23.76 
L 540.851857 -23.76 
L 541.944371 -23.76 
L 543.036884 -23.76 
L 544.129398 -23.76 
L 545.221911 -23.76 
L 546.314425 -23.76 
L 547.406938 -23.76 
L 548.499452 -23.76 
L 549.591965 -23.76 
L 550.684479 -23.76 
L 551.776992 -23.76 
L 552.869506 -23.76 
L 553.962019 -23.76 
L 555.054533 -23.76 
L 556.147046 -23.76 
L 557.23956 -23.76 
L 558.332073 -23.76 
L 559.424587 -23.76 
L 560.5171 -23.76 
L 561.609614 -23.76 
L 562.702127 -23.76 
L 563.794641 -23.76 
L 564.887154 -23.76 
L 565.979668 -23.76 
L 567.072181 -23.76 
L 568.164695 -23.76 
L 569.257208 -23.76 
L 570.349722 -23.76 
L 571.442235 -23.76 
L 572.534749 -23.76 
L 573.627262 -23.76 
L 574.719776 -23.76 
L 575.812289 -23.76 
L 576.904803 -23.76 
L 577.997316 -23.76 
L 579.08983 -23.76 
L 580.182343 -23.76 
L 581.274857 -23.76 
L 582.36737 -23.76 
L 583.459884 -23.76 
L 584.552397 -23.76 
L 585.64491 -23.76 
L 586.737424 -23.76 
L 587.829937 -23.76 
L 588.922451 -23.76 
L 590.014964 -23.76 
L 591.107478 -23.76 
L 592.199991 -23.76 
L 593.292505 -23.76 
L 594.385018 -23.76 
L 595.477532 -23.76 
L 596.570045 -23.76 
L 597.662559 -23.76 
L 598.755072 -23.76 
L 599.847586 -23.76 
L 600.940099 -23.76 
L 602.032613 -23.76 
L 603.125126 -23.76 
L 604.21764 -23.76 
L 605.310153 -23.76 
L 606.402667 -23.76 
L 607.49518 -23.76 
L 608.587694 -23.76 
L 609.680207 -23.76 
L 610.772721 -23.76 
L 611.865234 -23.76 
L 612.957748 -23.76 
L 614.050261 -23.76 
L 615.142775 -23.76 
L 616.235288 -23.76 
L 617.327802 -23.76 
L 618.420315 -23.76 
L 619.512829 -23.76 
L 620.605342 -23.76 
L 621.697856 -23.76 
L 622.790369 -23.76 
L 623.882883 -23.76 
L 624.975396 -23.76 
L 626.06791 -23.76 
L 627.160423 -23.76 
L 628.252937 -23.76 
L 629.34545 -23.76 
L 630.437964 -23.76 
L 631.530477 -23.76 
L 632.622991 -23.76 
L 633.715504 -23.76 
L 634.808018 -23.76 
L 635.900531 -23.76 
L 636.993045 -23.76 
L 638.085558 -23.76 
L 639.178072 -23.76 
L 640.270585 -23.76 
L 641.363099 -23.76 
L 642.455612 -23.76 
L 643.548126 -23.76 
L 644.640639 -23.76 
L 645.733153 -23.76 
L 646.825666 -23.76 
L 647.91818 -23.76 
L 649.010693 -23.76 
L 650.103207 -23.76 
L 651.19572 -23.76 
L 652.288234 -23.76 
L 653.380747 -23.76 
L 654.473261 -23.76 
L 655.565774 -23.76 
L 656.658288 -23.76 
L 657.750801 -23.76 
L 658.843315 -23.76 
L 659.935828 -23.76 
L 661.028342 -23.76 
L 662.120855 -23.76 
L 663.213369 -23.76 
L 664.305882 -23.76 
L 665.398396 -23.76 
L 665.398396 -23.760157 
L 665.398396 -23.760157 
L 664.305882 -23.760407 
L 663.213369 -23.760944 
L 662.120855 -23.761959 
L 661.028342 -23.763643 
L 659.935828 -23.766082 
L 658.843315 -23.769153 
L 657.750801 -23.772499 
L 656.658288 -23.775666 
L 655.565774 -23.778348 
L 654.473261 -23.780614 
L 653.380747 -23.782953 
L 652.288234 -23.786116 
L 651.19572 -23.790852 
L 650.103207 -23.797669 
L 649.010693 -23.806646 
L 647.91818 -23.817334 
L 646.825666 -23.828794 
L 645.733153 -23.83988 
L 644.640639 -23.849661 
L 643.548126 -23.857781 
L 642.455612 -23.864519 
L 641.363099 -23.870563 
L 640.270585 -23.876686 
L 639.178072 -23.883495 
L 638.085558 -23.891255 
L 636.993045 -23.899747 
L 635.900531 -23.908227 
L 634.808018 -23.915641 
L 633.715504 -23.921033 
L 632.622991 -23.923857 
L 631.530477 -23.923943 
L 630.437964 -23.921234 
L 629.34545 -23.915712 
L 628.252937 -23.907672 
L 627.160423 -23.898091 
L 626.06791 -23.888605 
L 624.975396 -23.880951 
L 623.882883 -23.876217 
L 622.790369 -23.874512 
L 621.697856 -23.875355 
L 620.605342 -23.878529 
L 619.512829 -23.884691 
L 618.420315 -23.895149 
L 617.327802 -23.910906 
L 616.235288 -23.931654 
L 615.142775 -23.955528 
L 614.050261 -23.979796 
L 612.957748 -24.002016 
L 611.865234 -24.020894 
L 610.772721 -24.036354 
L 609.680207 -24.048874 
L 608.587694 -24.058717 
L 607.49518 -24.065754 
L 606.402667 -24.070078 
L 605.310153 -24.072783 
L 604.21764 -24.076091 
L 603.125126 -24.082589 
L 602.032613 -24.094207 
L 600.940099 -24.111716 
L 599.847586 -24.134781 
L 598.755072 -24.162051 
L 597.662559 -24.190944 
L 596.570045 -24.217646 
L 595.477532 -24.238177 
L 594.385018 -24.250456 
L 593.292505 -24.256094 
L 592.199991 -24.260345 
L 591.107478 -24.269971 
L 590.014964 -24.290331 
L 588.922451 -24.323326 
L 587.829937 -24.367002 
L 586.737424 -24.416524 
L 585.64491 -24.465907 
L 584.552397 -24.509919 
L 583.459884 -24.545696 
L 582.36737 -24.573686 
L 581.274857 -24.597796 
L 580.182343 -24.624724 
L 579.08983 -24.662414 
L 577.997316 -24.717724 
L 576.904803 -24.793867 
L 575.812289 -24.888714 
L 574.719776 -24.994918 
L 573.627262 -25.102263 
L 572.534749 -25.201784 
L 571.442235 -25.290313 
L 570.349722 -25.373451 
L 569.257208 -25.465108 
L 568.164695 -25.583081 
L 567.072181 -25.742242 
L 565.979668 -25.948385 
L 564.887154 -26.195905 
L 563.794641 -26.470818 
L 562.702127 -26.757806 
L 561.609614 -27.047364 
L 560.5171 -27.339027 
L 559.424587 -27.639504 
L 558.332073 -27.957944 
L 557.23956 -28.301274 
L 556.147046 -28.67097 
L 555.054533 -29.061735 
L 553.962019 -29.463293 
L 552.869506 -29.866059 
L 551.776992 -30.268349 
L 550.684479 -30.680229 
L 549.591965 -31.121027 
L 548.499452 -31.612661 
L 547.406938 -32.174157 
L 546.314425 -32.821404 
L 545.221911 -33.572066 
L 544.129398 -34.451764 
L 543.036884 -35.495654 
L 541.944371 -36.740484 
L 540.851857 -38.207029 
L 539.759344 -39.88002 
L 538.66683 -41.697415 
L 537.574317 -43.558235 
L 536.481803 -45.348399 
L 535.38929 -46.973251 
L 534.296776 -48.381178 
L 533.204263 -49.567496 
L 532.111749 -50.558375 
L 531.019236 -51.384926 
L 529.926722 -52.062359 
L 528.834209 -52.585956 
L 527.741695 -52.945234 
L 526.649182 -53.145777 
L 525.556668 -53.222971 
L 524.464155 -53.237846 
L 523.371641 -53.258267 
L 522.279128 -53.338197 
L 521.186614 -53.506332 
L 520.094101 -53.766525 
L 519.001587 -54.105364 
L 517.909074 -54.501856 
L 516.81656 -54.936812 
L 515.724047 -55.400555 
L 514.631533 -55.897031 
L 513.53902 -56.443162 
L 512.446506 -57.064229 
L 511.353993 -57.787013 
L 510.261479 -58.631986 
L 509.168966 -59.605982 
L 508.076452 -60.697623 
L 506.983939 -61.876998 
L 505.891425 -63.097926 
L 504.798912 -64.299135 
L 503.706398 -65.403804 
L 502.613885 -66.322835 
L 501.521371 -66.968479 
L 500.428858 -67.276977 
L 499.336344 -67.227317 
L 498.243831 -66.840258 
L 497.151317 -66.154061 
L 496.058804 -65.19268 
L 494.96629 -63.951169 
L 493.873777 -62.411047 
L 492.781263 -60.574221 
L 491.68875 -58.488959 
L 490.596236 -56.248809 
L 489.503723 -53.967449 
L 488.411209 -51.748781 
L 487.318696 -49.669776 
L 486.226182 -47.77895 
L 485.133669 -46.10117 
L 484.041155 -44.639401 
L 482.948642 -43.373226 
L 481.856128 -42.261423 
L 480.763615 -41.253604 
L 479.671101 -40.306406 
L 478.578588 -39.393453 
L 477.486074 -38.50271 
L 476.393561 -37.625923 
L 475.301047 -36.751442 
L 474.208534 -35.867282 
L 473.11602 -34.97079 
L 472.023507 -34.07495 
L 470.930993 -33.204602 
L 469.83848 -32.384534 
L 468.745966 -31.62749 
L 467.653453 -30.929262 
L 466.560939 -30.272212 
L 465.468426 -29.633347 
L 464.375912 -28.992006 
L 463.283399 -28.334797 
L 462.190885 -27.658384 
L 461.098372 -26.971401 
L 460.005858 -26.295067 
L 458.913345 -25.660501 
L 457.820831 -25.10151 
L 456.728318 -24.644723 
L 455.635804 -24.301562 
L 454.543291 -24.066045 
L 453.450777 -23.918994 
L 452.358264 -23.835685 
L 451.26575 -23.792929 
L 450.173237 -23.773068 
L 449.080723 -23.764723 
L 447.98821 -23.761552 
z
" style="stroke: #d62728"/>
    </defs>
    <g clip-path="url(#p96a80d5b8e)">
     <use xlink:href="#ma8d003243d" x="0" y="216" style="fill: #d62728; fill-opacity: 0.5; stroke: #d62728"/>
    </g>
   </g>
   <g id="matplotlib.axis_3">
    <g id="xtick_8">
     <g id="line2d_14">
      <g>
       <use xlink:href="#m31cd569e95" x="457.711624" y="192.24" style="stroke: #000000; stroke-width: 0.8"/>
      </g>
     </g>
     <g id="text_20">
      <!-- 0 -->
      <g transform="translate(454.530374 206.838437) scale(0.1 -0.1)">
       <use xlink:href="#DejaVuSans-30"/>
      </g>
     </g>
    </g>
    <g id="xtick_9">
     <g id="line2d_15">
      <g>
       <use xlink:href="#m31cd569e95" x="490.791734" y="192.24" style="stroke: #000000; stroke-width: 0.8"/>
      </g>
     </g>
     <g id="text_21">
      <!-- 50000 -->
      <g transform="translate(474.885484 206.838437) scale(0.1 -0.1)">
       <use xlink:href="#DejaVuSans-35"/>
       <use xlink:href="#DejaVuSans-30" x="63.623047"/>
       <use xlink:href="#DejaVuSans-30" x="127.246094"/>
       <use xlink:href="#DejaVuSans-30" x="190.869141"/>
       <use xlink:href="#DejaVuSans-30" x="254.492188"/>
      </g>
     </g>
    </g>
    <g id="xtick_10">
     <g id="line2d_16">
      <g>
       <use xlink:href="#m31cd569e95" x="523.871843" y="192.24" style="stroke: #000000; stroke-width: 0.8"/>
      </g>
     </g>
     <g id="text_22">
      <!-- 100000 -->
      <g transform="translate(504.784343 206.838437) scale(0.1 -0.1)">
       <use xlink:href="#DejaVuSans-31"/>
       <use xlink:href="#DejaVuSans-30" x="63.623047"/>
       <use xlink:href="#DejaVuSans-30" x="127.246094"/>
       <use xlink:href="#DejaVuSans-30" x="190.869141"/>
       <use xlink:href="#DejaVuSans-30" x="254.492188"/>
       <use xlink:href="#DejaVuSans-30" x="318.115234"/>
      </g>
     </g>
    </g>
    <g id="xtick_11">
     <g id="line2d_17">
      <g>
       <use xlink:href="#m31cd569e95" x="556.951953" y="192.24" style="stroke: #000000; stroke-width: 0.8"/>
      </g>
     </g>
     <g id="text_23">
      <!-- 150000 -->
      <g transform="translate(537.864453 206.838437) scale(0.1 -0.1)">
       <use xlink:href="#DejaVuSans-31"/>
       <use xlink:href="#DejaVuSans-35" x="63.623047"/>
       <use xlink:href="#DejaVuSans-30" x="127.246094"/>
       <use xlink:href="#DejaVuSans-30" x="190.869141"/>
       <use xlink:href="#DejaVuSans-30" x="254.492188"/>
       <use xlink:href="#DejaVuSans-30" x="318.115234"/>
      </g>
     </g>
    </g>
    <g id="xtick_12">
     <g id="line2d_18">
      <g>
       <use xlink:href="#m31cd569e95" x="590.032063" y="192.24" style="stroke: #000000; stroke-width: 0.8"/>
      </g>
     </g>
     <g id="text_24">
      <!-- 200000 -->
      <g transform="translate(570.944563 206.838437) scale(0.1 -0.1)">
       <use xlink:href="#DejaVuSans-32"/>
       <use xlink:href="#DejaVuSans-30" x="63.623047"/>
       <use xlink:href="#DejaVuSans-30" x="127.246094"/>
       <use xlink:href="#DejaVuSans-30" x="190.869141"/>
       <use xlink:href="#DejaVuSans-30" x="254.492188"/>
       <use xlink:href="#DejaVuSans-30" x="318.115234"/>
      </g>
     </g>
    </g>
    <g id="xtick_13">
     <g id="line2d_19">
      <g>
       <use xlink:href="#m31cd569e95" x="623.112172" y="192.24" style="stroke: #000000; stroke-width: 0.8"/>
      </g>
     </g>
     <g id="text_25">
      <!-- 250000 -->
      <g transform="translate(604.024672 206.838437) scale(0.1 -0.1)">
       <use xlink:href="#DejaVuSans-32"/>
       <use xlink:href="#DejaVuSans-35" x="63.623047"/>
       <use xlink:href="#DejaVuSans-30" x="127.246094"/>
       <use xlink:href="#DejaVuSans-30" x="190.869141"/>
       <use xlink:href="#DejaVuSans-30" x="254.492188"/>
       <use xlink:href="#DejaVuSans-30" x="318.115234"/>
      </g>
     </g>
    </g>
    <g id="xtick_14">
     <g id="line2d_20">
      <g>
       <use xlink:href="#m31cd569e95" x="656.192282" y="192.24" style="stroke: #000000; stroke-width: 0.8"/>
      </g>
     </g>
     <g id="text_26">
      <!-- 300000 -->
      <g transform="translate(637.104782 206.838437) scale(0.1 -0.1)">
       <use xlink:href="#DejaVuSans-33"/>
       <use xlink:href="#DejaVuSans-30" x="63.623047"/>
       <use xlink:href="#DejaVuSans-30" x="127.246094"/>
       <use xlink:href="#DejaVuSans-30" x="190.869141"/>
       <use xlink:href="#DejaVuSans-30" x="254.492188"/>
       <use xlink:href="#DejaVuSans-30" x="318.115234"/>
      </g>
     </g>
    </g>
    <g id="text_27">
     <!-- salary -->
     <g transform="translate(538.363281 220.516562) scale(0.1 -0.1)">
      <use xlink:href="#DejaVuSans-73"/>
      <use xlink:href="#DejaVuSans-61" x="52.099609"/>
      <use xlink:href="#DejaVuSans-6c" x="113.378906"/>
      <use xlink:href="#DejaVuSans-61" x="141.162109"/>
      <use xlink:href="#DejaVuSans-72" x="202.441406"/>
      <use xlink:href="#DejaVuSans-79" x="243.554688"/>
     </g>
    </g>
   </g>
   <g id="matplotlib.axis_4">
    <g id="ytick_7">
     <g id="line2d_21">
      <g>
       <use xlink:href="#mb8efca4e36" x="430.411765" y="192.24" style="stroke: #000000; stroke-width: 0.8"/>
      </g>
     </g>
    </g>
    <g id="ytick_8">
     <g id="line2d_22">
      <g>
       <use xlink:href="#mb8efca4e36" x="430.411765" y="164.505502" style="stroke: #000000; stroke-width: 0.8"/>
      </g>
     </g>
    </g>
    <g id="ytick_9">
     <g id="line2d_23">
      <g>
       <use xlink:href="#mb8efca4e36" x="430.411765" y="136.771004" style="stroke: #000000; stroke-width: 0.8"/>
      </g>
     </g>
    </g>
    <g id="ytick_10">
     <g id="line2d_24">
      <g>
       <use xlink:href="#mb8efca4e36" x="430.411765" y="109.036507" style="stroke: #000000; stroke-width: 0.8"/>
      </g>
     </g>
    </g>
    <g id="ytick_11">
     <g id="line2d_25">
      <g>
       <use xlink:href="#mb8efca4e36" x="430.411765" y="81.302009" style="stroke: #000000; stroke-width: 0.8"/>
      </g>
     </g>
    </g>
    <g id="ytick_12">
     <g id="line2d_26">
      <g>
       <use xlink:href="#mb8efca4e36" x="430.411765" y="53.567511" style="stroke: #000000; stroke-width: 0.8"/>
      </g>
     </g>
    </g>
   </g>
   <g id="patch_11">
    <path d="M 430.411765 192.24 
L 430.411765 25.92 
" style="fill: none; stroke: #000000; stroke-width: 0.8; stroke-linejoin: miter; stroke-linecap: square"/>
   </g>
   <g id="patch_12">
    <path d="M 676.588235 192.24 
L 676.588235 25.92 
" style="fill: none; stroke: #000000; stroke-width: 0.8; stroke-linejoin: miter; stroke-linecap: square"/>
   </g>
   <g id="patch_13">
    <path d="M 430.411765 192.24 
L 676.588235 192.24 
" style="fill: none; stroke: #000000; stroke-width: 0.8; stroke-linejoin: miter; stroke-linecap: square"/>
   </g>
   <g id="patch_14">
    <path d="M 430.411765 25.92 
L 676.588235 25.92 
" style="fill: none; stroke: #000000; stroke-width: 0.8; stroke-linejoin: miter; stroke-linecap: square"/>
   </g>
   <g id="legend_2">
    <g id="patch_15">
     <path d="M 599.488235 78.2325 
L 669.588235 78.2325 
Q 671.588235 78.2325 671.588235 76.2325 
L 671.588235 32.92 
Q 671.588235 30.92 669.588235 30.92 
L 599.488235 30.92 
Q 597.488235 30.92 597.488235 32.92 
L 597.488235 76.2325 
Q 597.488235 78.2325 599.488235 78.2325 
z
" style="fill: #ffffff; opacity: 0.8; stroke: #cccccc; stroke-linejoin: miter"/>
    </g>
    <g id="text_28">
     <!-- public_sector -->
     <g transform="translate(601.488235 42.518438) scale(0.1 -0.1)">
      <defs>
       <path id="DejaVuSans-70" d="M 1159 525 
L 1159 -1331 
L 581 -1331 
L 581 3500 
L 1159 3500 
L 1159 2969 
Q 1341 3281 1617 3432 
Q 1894 3584 2278 3584 
Q 2916 3584 3314 3078 
Q 3713 2572 3713 1747 
Q 3713 922 3314 415 
Q 2916 -91 2278 -91 
Q 1894 -91 1617 61 
Q 1341 213 1159 525 
z
M 3116 1747 
Q 3116 2381 2855 2742 
Q 2594 3103 2138 3103 
Q 1681 3103 1420 2742 
Q 1159 2381 1159 1747 
Q 1159 1113 1420 752 
Q 1681 391 2138 391 
Q 2594 391 2855 752 
Q 3116 1113 3116 1747 
z
" transform="scale(0.015625)"/>
       <path id="DejaVuSans-62" d="M 3116 1747 
Q 3116 2381 2855 2742 
Q 2594 3103 2138 3103 
Q 1681 3103 1420 2742 
Q 1159 2381 1159 1747 
Q 1159 1113 1420 752 
Q 1681 391 2138 391 
Q 2594 391 2855 752 
Q 3116 1113 3116 1747 
z
M 1159 2969 
Q 1341 3281 1617 3432 
Q 1894 3584 2278 3584 
Q 2916 3584 3314 3078 
Q 3713 2572 3713 1747 
Q 3713 922 3314 415 
Q 2916 -91 2278 -91 
Q 1894 -91 1617 61 
Q 1341 213 1159 525 
L 1159 0 
L 581 0 
L 581 4863 
L 1159 4863 
L 1159 2969 
z
" transform="scale(0.015625)"/>
       <path id="DejaVuSans-63" d="M 3122 3366 
L 3122 2828 
Q 2878 2963 2633 3030 
Q 2388 3097 2138 3097 
Q 1578 3097 1268 2742 
Q 959 2388 959 1747 
Q 959 1106 1268 751 
Q 1578 397 2138 397 
Q 2388 397 2633 464 
Q 2878 531 3122 666 
L 3122 134 
Q 2881 22 2623 -34 
Q 2366 -91 2075 -91 
Q 1284 -91 818 406 
Q 353 903 353 1747 
Q 353 2603 823 3093 
Q 1294 3584 2113 3584 
Q 2378 3584 2631 3529 
Q 2884 3475 3122 3366 
z
" transform="scale(0.015625)"/>
       <path id="DejaVuSans-5f" d="M 3263 -1063 
L 3263 -1509 
L -63 -1509 
L -63 -1063 
L 3263 -1063 
z
" transform="scale(0.015625)"/>
      </defs>
      <use xlink:href="#DejaVuSans-70"/>
      <use xlink:href="#DejaVuSans-75" x="63.476562"/>
      <use xlink:href="#DejaVuSans-62" x="126.855469"/>
      <use xlink:href="#DejaVuSans-6c" x="190.332031"/>
      <use xlink:href="#DejaVuSans-69" x="218.115234"/>
      <use xlink:href="#DejaVuSans-63" x="245.898438"/>
      <use xlink:href="#DejaVuSans-5f" x="300.878906"/>
      <use xlink:href="#DejaVuSans-73" x="350.878906"/>
      <use xlink:href="#DejaVuSans-65" x="402.978516"/>
      <use xlink:href="#DejaVuSans-63" x="464.501953"/>
      <use xlink:href="#DejaVuSans-74" x="519.482422"/>
      <use xlink:href="#DejaVuSans-6f" x="558.691406"/>
      <use xlink:href="#DejaVuSans-72" x="619.873047"/>
     </g>
    </g>
    <g id="patch_16">
     <path d="M 617.356985 57.474688 
L 637.356985 57.474688 
L 637.356985 50.474688 
L 617.356985 50.474688 
z
" style="fill: #d62728; fill-opacity: 0.5; stroke: #d62728; stroke-linejoin: miter"/>
    </g>
    <g id="text_29">
     <!-- 1 -->
     <g transform="translate(645.356985 57.474688) scale(0.1 -0.1)">
      <use xlink:href="#DejaVuSans-31"/>
     </g>
    </g>
    <g id="patch_17">
     <path d="M 617.356985 72.152813 
L 637.356985 72.152813 
L 637.356985 65.152813 
L 617.356985 65.152813 
z
" style="fill: #2ca02c; fill-opacity: 0.5; stroke: #2ca02c; stroke-linejoin: miter"/>
    </g>
    <g id="text_30">
     <!-- 0 -->
     <g transform="translate(645.356985 72.152813) scale(0.1 -0.1)">
      <use xlink:href="#DejaVuSans-30"/>
     </g>
    </g>
   </g>
  </g>
  <g id="axes_3">
   <g id="patch_18">
    <path d="M 725.823529 192.24 
L 972 192.24 
L 972 25.92 
L 725.823529 25.92 
z
" style="fill: #ffffff"/>
   </g>
   <g id="PolyCollection_5">
    <defs>
     <path id="m9001edc7dd" d="M 744.877773 -23.776008 
L 744.877773 -23.76 
L 745.955435 -23.76 
L 747.033096 -23.76 
L 748.110757 -23.76 
L 749.188418 -23.76 
L 750.26608 -23.76 
L 751.343741 -23.76 
L 752.421402 -23.76 
L 753.499063 -23.76 
L 754.576725 -23.76 
L 755.654386 -23.76 
L 756.732047 -23.76 
L 757.809708 -23.76 
L 758.88737 -23.76 
L 759.965031 -23.76 
L 761.042692 -23.76 
L 762.120353 -23.76 
L 763.198015 -23.76 
L 764.275676 -23.76 
L 765.353337 -23.76 
L 766.430998 -23.76 
L 767.50866 -23.76 
L 768.586321 -23.76 
L 769.663982 -23.76 
L 770.741643 -23.76 
L 771.819305 -23.76 
L 772.896966 -23.76 
L 773.974627 -23.76 
L 775.052288 -23.76 
L 776.12995 -23.76 
L 777.207611 -23.76 
L 778.285272 -23.76 
L 779.362933 -23.76 
L 780.440595 -23.76 
L 781.518256 -23.76 
L 782.595917 -23.76 
L 783.673578 -23.76 
L 784.75124 -23.76 
L 785.828901 -23.76 
L 786.906562 -23.76 
L 787.984223 -23.76 
L 789.061885 -23.76 
L 790.139546 -23.76 
L 791.217207 -23.76 
L 792.294868 -23.76 
L 793.37253 -23.76 
L 794.450191 -23.76 
L 795.527852 -23.76 
L 796.605513 -23.76 
L 797.683174 -23.76 
L 798.760836 -23.76 
L 799.838497 -23.76 
L 800.916158 -23.76 
L 801.993819 -23.76 
L 803.071481 -23.76 
L 804.149142 -23.76 
L 805.226803 -23.76 
L 806.304464 -23.76 
L 807.382126 -23.76 
L 808.459787 -23.76 
L 809.537448 -23.76 
L 810.615109 -23.76 
L 811.692771 -23.76 
L 812.770432 -23.76 
L 813.848093 -23.76 
L 814.925754 -23.76 
L 816.003416 -23.76 
L 817.081077 -23.76 
L 818.158738 -23.76 
L 819.236399 -23.76 
L 820.314061 -23.76 
L 821.391722 -23.76 
L 822.469383 -23.76 
L 823.547044 -23.76 
L 824.624706 -23.76 
L 825.702367 -23.76 
L 826.780028 -23.76 
L 827.857689 -23.76 
L 828.935351 -23.76 
L 830.013012 -23.76 
L 831.090673 -23.76 
L 832.168334 -23.76 
L 833.245996 -23.76 
L 834.323657 -23.76 
L 835.401318 -23.76 
L 836.478979 -23.76 
L 837.556641 -23.76 
L 838.634302 -23.76 
L 839.711963 -23.76 
L 840.789624 -23.76 
L 841.867286 -23.76 
L 842.944947 -23.76 
L 844.022608 -23.76 
L 845.100269 -23.76 
L 846.177931 -23.76 
L 847.255592 -23.76 
L 848.333253 -23.76 
L 849.410914 -23.76 
L 850.488576 -23.76 
L 851.566237 -23.76 
L 852.643898 -23.76 
L 853.721559 -23.76 
L 854.799221 -23.76 
L 855.876882 -23.76 
L 856.954543 -23.76 
L 858.032204 -23.76 
L 859.109866 -23.76 
L 860.187527 -23.76 
L 861.265188 -23.76 
L 862.342849 -23.76 
L 863.420511 -23.76 
L 864.498172 -23.76 
L 865.575833 -23.76 
L 866.653494 -23.76 
L 867.731156 -23.76 
L 868.808817 -23.76 
L 869.886478 -23.76 
L 870.964139 -23.76 
L 872.041801 -23.76 
L 873.119462 -23.76 
L 874.197123 -23.76 
L 875.274784 -23.76 
L 876.352446 -23.76 
L 877.430107 -23.76 
L 878.507768 -23.76 
L 879.585429 -23.76 
L 880.663091 -23.76 
L 881.740752 -23.76 
L 882.818413 -23.76 
L 883.896074 -23.76 
L 884.973736 -23.76 
L 886.051397 -23.76 
L 887.129058 -23.76 
L 888.206719 -23.76 
L 889.284381 -23.76 
L 890.362042 -23.76 
L 891.439703 -23.76 
L 892.517364 -23.76 
L 893.595026 -23.76 
L 894.672687 -23.76 
L 895.750348 -23.76 
L 896.828009 -23.76 
L 897.905671 -23.76 
L 898.983332 -23.76 
L 900.060993 -23.76 
L 901.138654 -23.76 
L 902.216316 -23.76 
L 903.293977 -23.76 
L 904.371638 -23.76 
L 905.449299 -23.76 
L 906.526961 -23.76 
L 907.604622 -23.76 
L 908.682283 -23.76 
L 909.759944 -23.76 
L 910.837606 -23.76 
L 911.915267 -23.76 
L 912.992928 -23.76 
L 914.070589 -23.76 
L 915.148251 -23.76 
L 916.225912 -23.76 
L 917.303573 -23.76 
L 918.381234 -23.76 
L 919.458896 -23.76 
L 920.536557 -23.76 
L 921.614218 -23.76 
L 922.691879 -23.76 
L 923.769541 -23.76 
L 924.847202 -23.76 
L 925.924863 -23.76 
L 927.002524 -23.76 
L 928.080186 -23.76 
L 929.157847 -23.76 
L 930.235508 -23.76 
L 931.313169 -23.76 
L 932.390831 -23.76 
L 933.468492 -23.76 
L 934.546153 -23.76 
L 935.623814 -23.76 
L 936.701476 -23.76 
L 937.779137 -23.76 
L 938.856798 -23.76 
L 939.934459 -23.76 
L 941.012121 -23.76 
L 942.089782 -23.76 
L 943.167443 -23.76 
L 944.245104 -23.76 
L 945.322766 -23.76 
L 946.400427 -23.76 
L 947.478088 -23.76 
L 948.555749 -23.76 
L 949.633411 -23.76 
L 950.711072 -23.76 
L 951.788733 -23.76 
L 952.866394 -23.76 
L 953.944056 -23.76 
L 955.021717 -23.76 
L 956.099378 -23.76 
L 957.177039 -23.76 
L 958.254701 -23.76 
L 959.332362 -23.76 
L 959.332362 -23.760202 
L 959.332362 -23.760202 
L 958.254701 -23.760627 
L 957.177039 -23.761694 
L 956.099378 -23.764022 
L 955.021717 -23.768482 
L 953.944056 -23.776146 
L 952.866394 -23.788275 
L 951.788733 -23.806371 
L 950.711072 -23.831994 
L 949.633411 -23.865854 
L 948.555749 -23.906413 
L 947.478088 -23.949348 
L 946.400427 -23.989139 
L 945.322766 -24.022021 
L 944.245104 -24.047625 
L 943.167443 -24.067841 
L 942.089782 -24.084666 
L 941.012121 -24.099729 
L 939.934459 -24.115366 
L 938.856798 -24.134591 
L 937.779137 -24.159152 
L 936.701476 -24.188353 
L 935.623814 -24.221048 
L 934.546153 -24.258609 
L 933.468492 -24.304001 
L 932.390831 -24.356176 
L 931.313169 -24.406048 
L 930.235508 -24.440714 
L 929.157847 -24.45377 
L 928.080186 -24.451366 
L 927.002524 -24.447301 
L 925.924863 -24.452378 
L 924.847202 -24.468398 
L 923.769541 -24.49013 
L 922.691879 -24.510334 
L 921.614218 -24.523718 
L 920.536557 -24.530303 
L 919.458896 -24.537794 
L 918.381234 -24.559212 
L 917.303573 -24.605097 
L 916.225912 -24.676734 
L 915.148251 -24.766902 
L 914.070589 -24.866094 
L 912.992928 -24.966915 
L 911.915267 -25.063851 
L 910.837606 -25.151555 
L 909.759944 -25.22423 
L 908.682283 -25.276287 
L 907.604622 -25.305314 
L 906.526961 -25.316906 
L 905.449299 -25.325032 
L 904.371638 -25.342333 
L 903.293977 -25.367685 
L 902.216316 -25.386777 
L 901.138654 -25.38905 
L 900.060993 -25.383888 
L 898.983332 -25.398258 
L 897.905671 -25.459397 
L 896.828009 -25.581512 
L 895.750348 -25.76543 
L 894.672687 -26.001246 
L 893.595026 -26.264098 
L 892.517364 -26.511419 
L 891.439703 -26.697422 
L 890.362042 -26.801105 
L 889.284381 -26.84097 
L 888.206719 -26.857362 
L 887.129058 -26.879023 
L 886.051397 -26.910218 
L 884.973736 -26.949388 
L 883.896074 -27.010207 
L 882.818413 -27.115017 
L 881.740752 -27.27034 
L 880.663091 -27.458231 
L 879.585429 -27.652907 
L 878.507768 -27.837838 
L 877.430107 -28.003549 
L 876.352446 -28.138417 
L 875.274784 -28.233906 
L 874.197123 -28.301807 
L 873.119462 -28.381441 
L 872.041801 -28.524693 
L 870.964139 -28.769063 
L 869.886478 -29.117686 
L 868.808817 -29.538122 
L 867.731156 -29.980049 
L 866.653494 -30.401332 
L 865.575833 -30.786148 
L 864.498172 -31.145231 
L 863.420511 -31.504319 
L 862.342849 -31.893908 
L 861.265188 -32.342428 
L 860.187527 -32.865437 
L 859.109866 -33.454193 
L 858.032204 -34.080168 
L 856.954543 -34.718759 
L 855.876882 -35.369455 
L 854.799221 -36.052513 
L 853.721559 -36.792254 
L 852.643898 -37.60738 
L 851.566237 -38.507271 
L 850.488576 -39.484566 
L 849.410914 -40.515289 
L 848.333253 -41.581491 
L 847.255592 -42.695954 
L 846.177931 -43.891588 
L 845.100269 -45.181185 
L 844.022608 -46.538166 
L 842.944947 -47.925568 
L 841.867286 -49.341227 
L 840.789624 -50.834191 
L 839.711963 -52.486741 
L 838.634302 -54.385127 
L 837.556641 -56.593096 
L 836.478979 -59.128358 
L 835.401318 -61.947238 
L 834.323657 -64.950521 
L 833.245996 -68.014849 
L 832.168334 -71.035362 
L 831.090673 -73.955303 
L 830.013012 -76.76743 
L 828.935351 -79.492444 
L 827.857689 -82.150887 
L 826.780028 -84.739765 
L 825.702367 -87.219811 
L 824.624706 -89.52346 
L 823.547044 -91.589609 
L 822.469383 -93.407326 
L 821.391722 -95.032206 
L 820.314061 -96.556715 
L 819.236399 -98.059284 
L 818.158738 -99.579181 
L 817.081077 -101.136886 
L 816.003416 -102.772113 
L 814.925754 -104.557579 
L 813.848093 -106.576581 
L 812.770432 -108.885117 
L 811.692771 -111.484062 
L 810.615109 -114.316199 
L 809.537448 -117.293793 
L 808.459787 -120.34922 
L 807.382126 -123.48288 
L 806.304464 -126.776662 
L 805.226803 -130.358324 
L 804.149142 -134.332339 
L 803.071481 -138.716453 
L 801.993819 -143.421586 
L 800.916158 -148.282697 
L 799.838497 -153.113783 
L 798.760836 -157.753297 
L 797.683174 -162.088161 
L 796.605513 -166.063138 
L 795.527852 -169.677321 
L 794.450191 -172.958265 
L 793.37253 -175.912138 
L 792.294868 -178.472543 
L 791.217207 -180.486777 
L 790.139546 -181.763377 
L 789.061885 -182.16 
L 787.984223 -181.652671 
L 786.906562 -180.338342 
L 785.828901 -178.375869 
L 784.75124 -175.913637 
L 783.673578 -173.051608 
L 782.595917 -169.855326 
L 781.518256 -166.404662 
L 780.440595 -162.834079 
L 779.362933 -159.320336 
L 778.285272 -156.012027 
L 777.207611 -152.951722 
L 776.12995 -150.061822 
L 775.052288 -147.216806 
L 773.974627 -144.342632 
L 772.896966 -141.452089 
L 771.819305 -138.588672 
L 770.741643 -135.748755 
L 769.663982 -132.867841 
L 768.586321 -129.869449 
L 767.50866 -126.695617 
L 766.430998 -123.266989 
L 765.353337 -119.415664 
L 764.275676 -114.875846 
L 763.198015 -109.366043 
L 762.120353 -102.718211 
L 761.042692 -94.974194 
L 759.965031 -86.391579 
L 758.88737 -77.358218 
L 757.809708 -68.272975 
L 756.732047 -59.469528 
L 755.654386 -51.220109 
L 754.576725 -43.784881 
L 753.499063 -37.431928 
L 752.421402 -32.383654 
L 751.343741 -28.722555 
L 750.26608 -26.336954 
L 749.188418 -24.956543 
L 748.110757 -24.253133 
L 747.033096 -23.939333 
L 745.955435 -23.817279 
L 744.877773 -23.776008 
z
" style="stroke: #2ca02c"/>
    </defs>
    <g clip-path="url(#pb6fa4398cd)">
     <use xlink:href="#m9001edc7dd" x="0" y="216" style="fill: #2ca02c; fill-opacity: 0.5; stroke: #2ca02c"/>
    </g>
   </g>
   <g id="PolyCollection_6">
    <defs>
     <path id="mff9468840a" d="M 737.013369 -23.762008 
L 737.013369 -23.76 
L 738.104972 -23.76 
L 739.196576 -23.76 
L 740.288179 -23.76 
L 741.379782 -23.76 
L 742.471386 -23.76 
L 743.562989 -23.76 
L 744.654593 -23.76 
L 745.746196 -23.76 
L 746.837799 -23.76 
L 747.929403 -23.76 
L 749.021006 -23.76 
L 750.112609 -23.76 
L 751.204213 -23.76 
L 752.295816 -23.76 
L 753.387419 -23.76 
L 754.479023 -23.76 
L 755.570626 -23.76 
L 756.66223 -23.76 
L 757.753833 -23.76 
L 758.845436 -23.76 
L 759.93704 -23.76 
L 761.028643 -23.76 
L 762.120246 -23.76 
L 763.21185 -23.76 
L 764.303453 -23.76 
L 765.395057 -23.76 
L 766.48666 -23.76 
L 767.578263 -23.76 
L 768.669867 -23.76 
L 769.76147 -23.76 
L 770.853073 -23.76 
L 771.944677 -23.76 
L 773.03628 -23.76 
L 774.127883 -23.76 
L 775.219487 -23.76 
L 776.31109 -23.76 
L 777.402694 -23.76 
L 778.494297 -23.76 
L 779.5859 -23.76 
L 780.677504 -23.76 
L 781.769107 -23.76 
L 782.86071 -23.76 
L 783.952314 -23.76 
L 785.043917 -23.76 
L 786.135521 -23.76 
L 787.227124 -23.76 
L 788.318727 -23.76 
L 789.410331 -23.76 
L 790.501934 -23.76 
L 791.593537 -23.76 
L 792.685141 -23.76 
L 793.776744 -23.76 
L 794.868347 -23.76 
L 795.959951 -23.76 
L 797.051554 -23.76 
L 798.143158 -23.76 
L 799.234761 -23.76 
L 800.326364 -23.76 
L 801.417968 -23.76 
L 802.509571 -23.76 
L 803.601174 -23.76 
L 804.692778 -23.76 
L 805.784381 -23.76 
L 806.875984 -23.76 
L 807.967588 -23.76 
L 809.059191 -23.76 
L 810.150795 -23.76 
L 811.242398 -23.76 
L 812.334001 -23.76 
L 813.425605 -23.76 
L 814.517208 -23.76 
L 815.608811 -23.76 
L 816.700415 -23.76 
L 817.792018 -23.76 
L 818.883622 -23.76 
L 819.975225 -23.76 
L 821.066828 -23.76 
L 822.158432 -23.76 
L 823.250035 -23.76 
L 824.341638 -23.76 
L 825.433242 -23.76 
L 826.524845 -23.76 
L 827.616448 -23.76 
L 828.708052 -23.76 
L 829.799655 -23.76 
L 830.891259 -23.76 
L 831.982862 -23.76 
L 833.074465 -23.76 
L 834.166069 -23.76 
L 835.257672 -23.76 
L 836.349275 -23.76 
L 837.440879 -23.76 
L 838.532482 -23.76 
L 839.624085 -23.76 
L 840.715689 -23.76 
L 841.807292 -23.76 
L 842.898896 -23.76 
L 843.990499 -23.76 
L 845.082102 -23.76 
L 846.173706 -23.76 
L 847.265309 -23.76 
L 848.356912 -23.76 
L 849.448516 -23.76 
L 850.540119 -23.76 
L 851.631723 -23.76 
L 852.723326 -23.76 
L 853.814929 -23.76 
L 854.906533 -23.76 
L 855.998136 -23.76 
L 857.089739 -23.76 
L 858.181343 -23.76 
L 859.272946 -23.76 
L 860.364549 -23.76 
L 861.456153 -23.76 
L 862.547756 -23.76 
L 863.63936 -23.76 
L 864.730963 -23.76 
L 865.822566 -23.76 
L 866.91417 -23.76 
L 868.005773 -23.76 
L 869.097376 -23.76 
L 870.18898 -23.76 
L 871.280583 -23.76 
L 872.372187 -23.76 
L 873.46379 -23.76 
L 874.555393 -23.76 
L 875.646997 -23.76 
L 876.7386 -23.76 
L 877.830203 -23.76 
L 878.921807 -23.76 
L 880.01341 -23.76 
L 881.105013 -23.76 
L 882.196617 -23.76 
L 883.28822 -23.76 
L 884.379824 -23.76 
L 885.471427 -23.76 
L 886.56303 -23.76 
L 887.654634 -23.76 
L 888.746237 -23.76 
L 889.83784 -23.76 
L 890.929444 -23.76 
L 892.021047 -23.76 
L 893.11265 -23.76 
L 894.204254 -23.76 
L 895.295857 -23.76 
L 896.387461 -23.76 
L 897.479064 -23.76 
L 898.570667 -23.76 
L 899.662271 -23.76 
L 900.753874 -23.76 
L 901.845477 -23.76 
L 902.937081 -23.76 
L 904.028684 -23.76 
L 905.120288 -23.76 
L 906.211891 -23.76 
L 907.303494 -23.76 
L 908.395098 -23.76 
L 909.486701 -23.76 
L 910.578304 -23.76 
L 911.669908 -23.76 
L 912.761511 -23.76 
L 913.853114 -23.76 
L 914.944718 -23.76 
L 916.036321 -23.76 
L 917.127925 -23.76 
L 918.219528 -23.76 
L 919.311131 -23.76 
L 920.402735 -23.76 
L 921.494338 -23.76 
L 922.585941 -23.76 
L 923.677545 -23.76 
L 924.769148 -23.76 
L 925.860752 -23.76 
L 926.952355 -23.76 
L 928.043958 -23.76 
L 929.135562 -23.76 
L 930.227165 -23.76 
L 931.318768 -23.76 
L 932.410372 -23.76 
L 933.501975 -23.76 
L 934.593578 -23.76 
L 935.685182 -23.76 
L 936.776785 -23.76 
L 937.868389 -23.76 
L 938.959992 -23.76 
L 940.051595 -23.76 
L 941.143199 -23.76 
L 942.234802 -23.76 
L 943.326405 -23.76 
L 944.418009 -23.76 
L 945.509612 -23.76 
L 946.601215 -23.76 
L 947.692819 -23.76 
L 948.784422 -23.76 
L 949.876026 -23.76 
L 950.967629 -23.76 
L 952.059232 -23.76 
L 953.150836 -23.76 
L 954.242439 -23.76 
L 954.242439 -23.760092 
L 954.242439 -23.760092 
L 953.150836 -23.760162 
L 952.059232 -23.760276 
L 950.967629 -23.760453 
L 949.876026 -23.760715 
L 948.784422 -23.761088 
L 947.692819 -23.761597 
L 946.601215 -23.762261 
L 945.509612 -23.763088 
L 944.418009 -23.764074 
L 943.326405 -23.765197 
L 942.234802 -23.766417 
L 941.143199 -23.767684 
L 940.051595 -23.768938 
L 938.959992 -23.770124 
L 937.868389 -23.771197 
L 936.776785 -23.772132 
L 935.685182 -23.772924 
L 934.593578 -23.773592 
L 933.501975 -23.774177 
L 932.410372 -23.774734 
L 931.318768 -23.775333 
L 930.227165 -23.776047 
L 929.135562 -23.776946 
L 928.043958 -23.778086 
L 926.952355 -23.7795 
L 925.860752 -23.781183 
L 924.769148 -23.783084 
L 923.677545 -23.785105 
L 922.585941 -23.787106 
L 921.494338 -23.788924 
L 920.402735 -23.790397 
L 919.311131 -23.791389 
L 918.219528 -23.791822 
L 917.127925 -23.791689 
L 916.036321 -23.791065 
L 914.944718 -23.790099 
L 913.853114 -23.788991 
L 912.761511 -23.787968 
L 911.669908 -23.787245 
L 910.578304 -23.787002 
L 909.486701 -23.787367 
L 908.395098 -23.788408 
L 907.303494 -23.790144 
L 906.211891 -23.792569 
L 905.120288 -23.795661 
L 904.028684 -23.799408 
L 902.937081 -23.8038 
L 901.845477 -23.808825 
L 900.753874 -23.814443 
L 899.662271 -23.820569 
L 898.570667 -23.827051 
L 897.479064 -23.833673 
L 896.387461 -23.840166 
L 895.295857 -23.846246 
L 894.204254 -23.85165 
L 893.11265 -23.85618 
L 892.021047 -23.859734 
L 890.929444 -23.862309 
L 889.83784 -23.863991 
L 888.746237 -23.864923 
L 887.654634 -23.865255 
L 886.56303 -23.865114 
L 885.471427 -23.864568 
L 884.379824 -23.863633 
L 883.28822 -23.862292 
L 882.196617 -23.860534 
L 881.105013 -23.858399 
L 880.01341 -23.856016 
L 878.921807 -23.853623 
L 877.830203 -23.851555 
L 876.7386 -23.850221 
L 875.646997 -23.850056 
L 874.555393 -23.851476 
L 873.46379 -23.854832 
L 872.372187 -23.860376 
L 871.280583 -23.86824 
L 870.18898 -23.878424 
L 869.097376 -23.890795 
L 868.005773 -23.905091 
L 866.91417 -23.920944 
L 865.822566 -23.937905 
L 864.730963 -23.955485 
L 863.63936 -23.973205 
L 862.547756 -23.990653 
L 861.456153 -24.007536 
L 860.364549 -24.023725 
L 859.272946 -24.039284 
L 858.181343 -24.054481 
L 857.089739 -24.069774 
L 855.998136 -24.085775 
L 854.906533 -24.103194 
L 853.814929 -24.122764 
L 852.723326 -24.145156 
L 851.631723 -24.170903 
L 850.540119 -24.20033 
L 849.448516 -24.233532 
L 848.356912 -24.270385 
L 847.265309 -24.310615 
L 846.173706 -24.353894 
L 845.082102 -24.399963 
L 843.990499 -24.448724 
L 842.898896 -24.500293 
L 841.807292 -24.55497 
L 840.715689 -24.613126 
L 839.624085 -24.675041 
L 838.532482 -24.740703 
L 837.440879 -24.809655 
L 836.349275 -24.880918 
L 835.257672 -24.953031 
L 834.166069 -25.02422 
L 833.074465 -25.092657 
L 831.982862 -25.156779 
L 830.891259 -25.215575 
L 829.799655 -25.268796 
L 828.708052 -25.317031 
L 827.616448 -25.361637 
L 826.524845 -25.404536 
L 825.433242 -25.447916 
L 824.341638 -25.493899 
L 823.250035 -25.544236 
L 822.158432 -25.600076 
L 821.066828 -25.66185 
L 819.975225 -25.729262 
L 818.883622 -25.801394 
L 817.792018 -25.876884 
L 816.700415 -25.954141 
L 815.608811 -26.031559 
L 814.517208 -26.107703 
L 813.425605 -26.181449 
L 812.334001 -26.252064 
L 811.242398 -26.319256 
L 810.150795 -26.38318 
L 809.059191 -26.44443 
L 807.967588 -26.504001 
L 806.875984 -26.563232 
L 805.784381 -26.623698 
L 804.692778 -26.687062 
L 803.601174 -26.754878 
L 802.509571 -26.828385 
L 801.417968 -26.908308 
L 800.326364 -26.994731 
L 799.234761 -27.087059 
L 798.143158 -27.184101 
L 797.051554 -27.284238 
L 795.959951 -27.385665 
L 794.868347 -27.486619 
L 793.776744 -27.585562 
L 792.685141 -27.681264 
L 791.593537 -27.772804 
L 790.501934 -27.859496 
L 789.410331 -27.940802 
L 788.318727 -28.016283 
L 787.227124 -28.085609 
L 786.135521 -28.148636 
L 785.043917 -28.205508 
L 783.952314 -28.256744 
L 782.86071 -28.303258 
L 781.769107 -28.346279 
L 780.677504 -28.38719 
L 779.5859 -28.427308 
L 778.494297 -28.467644 
L 777.402694 -28.508692 
L 776.31109 -28.550258 
L 775.219487 -28.591341 
L 774.127883 -28.630051 
L 773.03628 -28.66357 
L 771.944677 -28.68816 
L 770.853073 -28.69924 
L 769.76147 -28.691568 
L 768.669867 -28.659534 
L 767.578263 -28.597573 
L 766.48666 -28.500658 
L 765.395057 -28.36483 
L 764.303453 -28.187698 
L 763.21185 -27.968846 
L 762.120246 -27.710099 
L 761.028643 -27.415614 
L 759.93704 -27.091763 
L 758.845436 -26.746822 
L 757.753833 -26.390459 
L 756.66223 -26.033069 
L 755.570626 -25.685014 
L 754.479023 -25.355835 
L 753.387419 -25.053547 
L 752.295816 -24.784099 
L 751.204213 -24.551067 
L 750.112609 -24.355611 
L 749.021006 -24.196699 
L 747.929403 -24.071519 
L 746.837799 -23.976028 
L 745.746196 -23.905519 
L 744.654593 -23.855148 
L 743.562989 -23.820347 
L 742.471386 -23.797104 
L 741.379782 -23.782102 
L 740.288179 -23.772749 
L 739.196576 -23.767117 
L 738.104972 -23.763844 
L 737.013369 -23.762008 
z
" style="stroke: #d62728"/>
    </defs>
    <g clip-path="url(#pb6fa4398cd)">
     <use xlink:href="#mff9468840a" x="0" y="216" style="fill: #d62728; fill-opacity: 0.5; stroke: #d62728"/>
    </g>
   </g>
   <g id="matplotlib.axis_5">
    <g id="xtick_15">
     <g id="line2d_27">
      <g>
       <use xlink:href="#m31cd569e95" x="753.123389" y="192.24" style="stroke: #000000; stroke-width: 0.8"/>
      </g>
     </g>
     <g id="text_31">
      <!-- 0 -->
      <g transform="translate(749.942139 206.838437) scale(0.1 -0.1)">
       <use xlink:href="#DejaVuSans-30"/>
      </g>
     </g>
    </g>
    <g id="xtick_16">
     <g id="line2d_28">
      <g>
       <use xlink:href="#m31cd569e95" x="786.203499" y="192.24" style="stroke: #000000; stroke-width: 0.8"/>
      </g>
     </g>
     <g id="text_32">
      <!-- 50000 -->
      <g transform="translate(770.297249 206.838437) scale(0.1 -0.1)">
       <use xlink:href="#DejaVuSans-35"/>
       <use xlink:href="#DejaVuSans-30" x="63.623047"/>
       <use xlink:href="#DejaVuSans-30" x="127.246094"/>
       <use xlink:href="#DejaVuSans-30" x="190.869141"/>
       <use xlink:href="#DejaVuSans-30" x="254.492188"/>
      </g>
     </g>
    </g>
    <g id="xtick_17">
     <g id="line2d_29">
      <g>
       <use xlink:href="#m31cd569e95" x="819.283608" y="192.24" style="stroke: #000000; stroke-width: 0.8"/>
      </g>
     </g>
     <g id="text_33">
      <!-- 100000 -->
      <g transform="translate(800.196108 206.838437) scale(0.1 -0.1)">
       <use xlink:href="#DejaVuSans-31"/>
       <use xlink:href="#DejaVuSans-30" x="63.623047"/>
       <use xlink:href="#DejaVuSans-30" x="127.246094"/>
       <use xlink:href="#DejaVuSans-30" x="190.869141"/>
       <use xlink:href="#DejaVuSans-30" x="254.492188"/>
       <use xlink:href="#DejaVuSans-30" x="318.115234"/>
      </g>
     </g>
    </g>
    <g id="xtick_18">
     <g id="line2d_30">
      <g>
       <use xlink:href="#m31cd569e95" x="852.363718" y="192.24" style="stroke: #000000; stroke-width: 0.8"/>
      </g>
     </g>
     <g id="text_34">
      <!-- 150000 -->
      <g transform="translate(833.276218 206.838437) scale(0.1 -0.1)">
       <use xlink:href="#DejaVuSans-31"/>
       <use xlink:href="#DejaVuSans-35" x="63.623047"/>
       <use xlink:href="#DejaVuSans-30" x="127.246094"/>
       <use xlink:href="#DejaVuSans-30" x="190.869141"/>
       <use xlink:href="#DejaVuSans-30" x="254.492188"/>
       <use xlink:href="#DejaVuSans-30" x="318.115234"/>
      </g>
     </g>
    </g>
    <g id="xtick_19">
     <g id="line2d_31">
      <g>
       <use xlink:href="#m31cd569e95" x="885.443827" y="192.24" style="stroke: #000000; stroke-width: 0.8"/>
      </g>
     </g>
     <g id="text_35">
      <!-- 200000 -->
      <g transform="translate(866.356327 206.838437) scale(0.1 -0.1)">
       <use xlink:href="#DejaVuSans-32"/>
       <use xlink:href="#DejaVuSans-30" x="63.623047"/>
       <use xlink:href="#DejaVuSans-30" x="127.246094"/>
       <use xlink:href="#DejaVuSans-30" x="190.869141"/>
       <use xlink:href="#DejaVuSans-30" x="254.492188"/>
       <use xlink:href="#DejaVuSans-30" x="318.115234"/>
      </g>
     </g>
    </g>
    <g id="xtick_20">
     <g id="line2d_32">
      <g>
       <use xlink:href="#m31cd569e95" x="918.523937" y="192.24" style="stroke: #000000; stroke-width: 0.8"/>
      </g>
     </g>
     <g id="text_36">
      <!-- 250000 -->
      <g transform="translate(899.436437 206.838437) scale(0.1 -0.1)">
       <use xlink:href="#DejaVuSans-32"/>
       <use xlink:href="#DejaVuSans-35" x="63.623047"/>
       <use xlink:href="#DejaVuSans-30" x="127.246094"/>
       <use xlink:href="#DejaVuSans-30" x="190.869141"/>
       <use xlink:href="#DejaVuSans-30" x="254.492188"/>
       <use xlink:href="#DejaVuSans-30" x="318.115234"/>
      </g>
     </g>
    </g>
    <g id="xtick_21">
     <g id="line2d_33">
      <g>
       <use xlink:href="#m31cd569e95" x="951.604046" y="192.24" style="stroke: #000000; stroke-width: 0.8"/>
      </g>
     </g>
     <g id="text_37">
      <!-- 300000 -->
      <g transform="translate(932.516546 206.838437) scale(0.1 -0.1)">
       <use xlink:href="#DejaVuSans-33"/>
       <use xlink:href="#DejaVuSans-30" x="63.623047"/>
       <use xlink:href="#DejaVuSans-30" x="127.246094"/>
       <use xlink:href="#DejaVuSans-30" x="190.869141"/>
       <use xlink:href="#DejaVuSans-30" x="254.492188"/>
       <use xlink:href="#DejaVuSans-30" x="318.115234"/>
      </g>
     </g>
    </g>
    <g id="text_38">
     <!-- salary -->
     <g transform="translate(833.775046 220.516562) scale(0.1 -0.1)">
      <use xlink:href="#DejaVuSans-73"/>
      <use xlink:href="#DejaVuSans-61" x="52.099609"/>
      <use xlink:href="#DejaVuSans-6c" x="113.378906"/>
      <use xlink:href="#DejaVuSans-61" x="141.162109"/>
      <use xlink:href="#DejaVuSans-72" x="202.441406"/>
      <use xlink:href="#DejaVuSans-79" x="243.554688"/>
     </g>
    </g>
   </g>
   <g id="matplotlib.axis_6">
    <g id="ytick_13">
     <g id="line2d_34">
      <g>
       <use xlink:href="#mb8efca4e36" x="725.823529" y="192.24" style="stroke: #000000; stroke-width: 0.8"/>
      </g>
     </g>
    </g>
    <g id="ytick_14">
     <g id="line2d_35">
      <g>
       <use xlink:href="#mb8efca4e36" x="725.823529" y="164.505502" style="stroke: #000000; stroke-width: 0.8"/>
      </g>
     </g>
    </g>
    <g id="ytick_15">
     <g id="line2d_36">
      <g>
       <use xlink:href="#mb8efca4e36" x="725.823529" y="136.771004" style="stroke: #000000; stroke-width: 0.8"/>
      </g>
     </g>
    </g>
    <g id="ytick_16">
     <g id="line2d_37">
      <g>
       <use xlink:href="#mb8efca4e36" x="725.823529" y="109.036507" style="stroke: #000000; stroke-width: 0.8"/>
      </g>
     </g>
    </g>
    <g id="ytick_17">
     <g id="line2d_38">
      <g>
       <use xlink:href="#mb8efca4e36" x="725.823529" y="81.302009" style="stroke: #000000; stroke-width: 0.8"/>
      </g>
     </g>
    </g>
    <g id="ytick_18">
     <g id="line2d_39">
      <g>
       <use xlink:href="#mb8efca4e36" x="725.823529" y="53.567511" style="stroke: #000000; stroke-width: 0.8"/>
      </g>
     </g>
    </g>
   </g>
   <g id="patch_19">
    <path d="M 725.823529 192.24 
L 725.823529 25.92 
" style="fill: none; stroke: #000000; stroke-width: 0.8; stroke-linejoin: miter; stroke-linecap: square"/>
   </g>
   <g id="patch_20">
    <path d="M 972 192.24 
L 972 25.92 
" style="fill: none; stroke: #000000; stroke-width: 0.8; stroke-linejoin: miter; stroke-linecap: square"/>
   </g>
   <g id="patch_21">
    <path d="M 725.823529 192.24 
L 972 192.24 
" style="fill: none; stroke: #000000; stroke-width: 0.8; stroke-linejoin: miter; stroke-linecap: square"/>
   </g>
   <g id="patch_22">
    <path d="M 725.823529 25.92 
L 972 25.92 
" style="fill: none; stroke: #000000; stroke-width: 0.8; stroke-linejoin: miter; stroke-linecap: square"/>
   </g>
   <g id="legend_3">
    <g id="patch_23">
     <path d="M 916.096875 78.2325 
L 965 78.2325 
Q 967 78.2325 967 76.2325 
L 967 32.92 
Q 967 30.92 965 30.92 
L 916.096875 30.92 
Q 914.096875 30.92 914.096875 32.92 
L 914.096875 76.2325 
Q 914.096875 78.2325 916.096875 78.2325 
z
" style="fill: #ffffff; opacity: 0.8; stroke: #cccccc; stroke-linejoin: miter"/>
    </g>
    <g id="text_39">
     <!-- self_emp -->
     <g transform="translate(918.096875 42.518438) scale(0.1 -0.1)">
      <defs>
       <path id="DejaVuSans-66" d="M 2375 4863 
L 2375 4384 
L 1825 4384 
Q 1516 4384 1395 4259 
Q 1275 4134 1275 3809 
L 1275 3500 
L 2222 3500 
L 2222 3053 
L 1275 3053 
L 1275 0 
L 697 0 
L 697 3053 
L 147 3053 
L 147 3500 
L 697 3500 
L 697 3744 
Q 697 4328 969 4595 
Q 1241 4863 1831 4863 
L 2375 4863 
z
" transform="scale(0.015625)"/>
       <path id="DejaVuSans-6d" d="M 3328 2828 
Q 3544 3216 3844 3400 
Q 4144 3584 4550 3584 
Q 5097 3584 5394 3201 
Q 5691 2819 5691 2113 
L 5691 0 
L 5113 0 
L 5113 2094 
Q 5113 2597 4934 2840 
Q 4756 3084 4391 3084 
Q 3944 3084 3684 2787 
Q 3425 2491 3425 1978 
L 3425 0 
L 2847 0 
L 2847 2094 
Q 2847 2600 2669 2842 
Q 2491 3084 2119 3084 
Q 1678 3084 1418 2786 
Q 1159 2488 1159 1978 
L 1159 0 
L 581 0 
L 581 3500 
L 1159 3500 
L 1159 2956 
Q 1356 3278 1631 3431 
Q 1906 3584 2284 3584 
Q 2666 3584 2933 3390 
Q 3200 3197 3328 2828 
z
" transform="scale(0.015625)"/>
      </defs>
      <use xlink:href="#DejaVuSans-73"/>
      <use xlink:href="#DejaVuSans-65" x="52.099609"/>
      <use xlink:href="#DejaVuSans-6c" x="113.623047"/>
      <use xlink:href="#DejaVuSans-66" x="141.40625"/>
      <use xlink:href="#DejaVuSans-5f" x="176.611328"/>
      <use xlink:href="#DejaVuSans-65" x="226.611328"/>
      <use xlink:href="#DejaVuSans-6d" x="288.134766"/>
      <use xlink:href="#DejaVuSans-70" x="385.546875"/>
     </g>
    </g>
    <g id="patch_24">
     <path d="M 923.367188 57.474688 
L 943.367188 57.474688 
L 943.367188 50.474688 
L 923.367188 50.474688 
z
" style="fill: #d62728; fill-opacity: 0.5; stroke: #d62728; stroke-linejoin: miter"/>
    </g>
    <g id="text_40">
     <!-- 1 -->
     <g transform="translate(951.367188 57.474688) scale(0.1 -0.1)">
      <use xlink:href="#DejaVuSans-31"/>
     </g>
    </g>
    <g id="patch_25">
     <path d="M 923.367188 72.152813 
L 943.367188 72.152813 
L 943.367188 65.152813 
L 923.367188 65.152813 
z
" style="fill: #2ca02c; fill-opacity: 0.5; stroke: #2ca02c; stroke-linejoin: miter"/>
    </g>
    <g id="text_41">
     <!-- 0 -->
     <g transform="translate(951.367188 72.152813) scale(0.1 -0.1)">
      <use xlink:href="#DejaVuSans-30"/>
     </g>
    </g>
   </g>
  </g>
 </g>
 <defs>
  <clipPath id="p91a014d0ee">
   <rect x="135" y="25.92" width="246.176471" height="166.32"/>
  </clipPath>
  <clipPath id="p96a80d5b8e">
   <rect x="430.411765" y="25.92" width="246.176471" height="166.32"/>
  </clipPath>
  <clipPath id="pb6fa4398cd">
   <rect x="725.823529" y="25.92" width="246.176471" height="166.32"/>
  </clipPath>
 </defs>
</svg>
