<?xml version="1.0" encoding="UTF-8" standalone="no"?>
<svg
   width="528.51422pt"
   height="244.3647pt"
   viewBox="0 0 528.51422 244.3647"
   version="1.1"
   id="svg159"
   sodipodi:docname="model_structure_comparison.svg"
   inkscape:version="1.3.2 (1:1.3.2+202311252150+091e20ef0f)"
   inkscape:export-filename="model_structure_comparison.png"
   inkscape:export-xdpi="600"
   inkscape:export-ydpi="600"
   xmlns:inkscape="http://www.inkscape.org/namespaces/inkscape"
   xmlns:sodipodi="http://sodipodi.sourceforge.net/DTD/sodipodi-0.dtd"
   xmlns:xlink="http://www.w3.org/1999/xlink"
   xmlns="http://www.w3.org/2000/svg"
   xmlns:svg="http://www.w3.org/2000/svg"
   xmlns:rdf="http://www.w3.org/1999/02/22-rdf-syntax-ns#"
   xmlns:cc="http://creativecommons.org/ns#"
   xmlns:dc="http://purl.org/dc/elements/1.1/">
  <sodipodi:namedview
     id="namedview159"
     pagecolor="#ffffff"
     bordercolor="#999999"
     borderopacity="1"
     inkscape:showpageshadow="2"
     inkscape:pageopacity="0"
     inkscape:pagecheckerboard="0"
     inkscape:deskcolor="#d1d1d1"
     inkscape:document-units="pt"
     inkscape:zoom="1.2128845"
     inkscape:cx="319.89854"
     inkscape:cy="92.754088"
     inkscape:window-width="1920"
     inkscape:window-height="1043"
     inkscape:window-x="0"
     inkscape:window-y="0"
     inkscape:window-maximized="1"
     inkscape:current-layer="figure_1" />
  <metadata
     id="metadata1">
    <rdf:RDF>
      <cc:Work>
        <dc:type
           rdf:resource="http://purl.org/dc/dcmitype/StillImage" />
        <dc:date>2023-12-04T13:39:03.146027</dc:date>
        <dc:format>image/svg+xml</dc:format>
        <dc:creator>
          <cc:Agent>
            <dc:title>Matplotlib v3.8.0, https://matplotlib.org/</dc:title>
          </cc:Agent>
        </dc:creator>
      </cc:Work>
    </rdf:RDF>
  </metadata>
  <defs
     id="defs1">
    <style
       type="text/css"
       id="style1">*{stroke-linejoin: round; stroke-linecap: butt}</style>
  </defs>
  <g
     id="figure_1"
     transform="translate(26.784347,10.892755)">
    <g
       id="axes_1">
      <g
         id="matplotlib.axis_1">
        <g
           id="xtick_1">
          <g
             id="line2d_1">
            <defs
               id="defs2">
              <path
                 id="m6278e40521"
                 d="M 0,0 V 3.5"
                 style="stroke:#000000;stroke-width:0.8" />
            </defs>
            <g
               id="g2">
              <use
                 xlink:href="#m6278e40521"
                 x="107.73257"
                 y="192.24001"
                 style="stroke:#000000;stroke-width:0.8"
                 id="use2" />
            </g>
          </g>
          <g
             id="text_1">
            <!-- −54400 -->
            <g
               transform="matrix(0.08,0,0,-0.08,91.655696,205.31875)"
               id="g8">
              <defs
                 id="defs3">
                <path
                   id="DejaVuSans-2212"
                   d="M 678,2272 H 4684 V 1741 H 678 Z"
                   transform="scale(0.015625)" />
                <path
                   id="DejaVuSans-35"
                   d="M 691,4666 H 3169 V 4134 H 1269 V 2991 q 137,47 274,70 138,23 276,23 781,0 1237,-428 457,-428 457,-1159 Q 3513,744 3044,326 2575,-91 1722,-91 1428,-91 1123,-41 819,9 494,109 v 635 q 281,-153 581,-228 300,-75 634,-75 541,0 856,284 316,284 316,772 0,487 -316,771 -315,285 -856,285 -253,0 -505,-56 -251,-56 -513,-175 z"
                   transform="scale(0.015625)" />
                <path
                   id="DejaVuSans-34"
                   d="M 2419,4116 825,1625 h 1594 z m -166,550 h 794 V 1625 h 666 V 1100 H 3047 V 0 H 2419 V 1100 H 313 v 609 z"
                   transform="scale(0.015625)" />
                <path
                   id="DejaVuSans-30"
                   d="m 2034,4250 q -487,0 -733,-480 -245,-479 -245,-1442 0,-959 245,-1439 246,-480 733,-480 491,0 736,480 246,480 246,1439 0,963 -246,1442 -245,480 -736,480 z m 0,500 q 785,0 1199,-621 414,-620 414,-1801 0,-1178 -414,-1799 -414,-620 -1199,-620 -784,0 -1198,620 -414,621 -414,1799 0,1181 414,1801 414,621 1198,621 z"
                   transform="scale(0.015625)" />
              </defs>
              <use
                 xlink:href="#DejaVuSans-2212"
                 id="use3" />
              <use
                 xlink:href="#DejaVuSans-35"
                 x="83.789062"
                 id="use4" />
              <use
                 xlink:href="#DejaVuSans-34"
                 x="147.41211"
                 id="use5" />
              <use
                 xlink:href="#DejaVuSans-34"
                 x="211.03516"
                 id="use6" />
              <use
                 xlink:href="#DejaVuSans-30"
                 x="274.6582"
                 id="use7" />
              <use
                 xlink:href="#DejaVuSans-30"
                 x="338.28125"
                 id="use8" />
            </g>
          </g>
        </g>
        <g
           id="xtick_2">
          <g
             id="line2d_2">
            <g
               id="g9">
              <use
                 xlink:href="#m6278e40521"
                 x="172.73952"
                 y="192.24001"
                 style="stroke:#000000;stroke-width:0.8"
                 id="use9" />
            </g>
          </g>
          <g
             id="text_2">
            <!-- −54200 -->
            <g
               transform="matrix(0.08,0,0,-0.08,156.66264,205.31875)"
               id="g15">
              <defs
                 id="defs9">
                <path
                   id="DejaVuSans-32"
                   d="M 1228,531 H 3431 V 0 H 469 v 531 q 359,372 979,998 621,627 780,809 303,340 423,576 121,236 121,464 0,372 -261,606 -261,235 -680,235 -297,0 -627,-103 -329,-103 -704,-313 v 638 q 381,153 712,231 332,78 607,78 725,0 1156,-363 431,-362 431,-968 0,-288 -108,-546 -107,-257 -392,-607 -78,-91 -497,-524 Q 1991,1309 1228,531 Z"
                   transform="scale(0.015625)" />
              </defs>
              <use
                 xlink:href="#DejaVuSans-2212"
                 id="use10" />
              <use
                 xlink:href="#DejaVuSans-35"
                 x="83.789062"
                 id="use11" />
              <use
                 xlink:href="#DejaVuSans-34"
                 x="147.41211"
                 id="use12" />
              <use
                 xlink:href="#DejaVuSans-32"
                 x="211.03516"
                 id="use13" />
              <use
                 xlink:href="#DejaVuSans-30"
                 x="274.6582"
                 id="use14" />
              <use
                 xlink:href="#DejaVuSans-30"
                 x="338.28125"
                 id="use15" />
            </g>
          </g>
        </g>
        <g
           id="xtick_3">
          <g
             id="line2d_3">
            <g
               id="g16">
              <use
                 xlink:href="#m6278e40521"
                 x="237.74648"
                 y="192.24001"
                 style="stroke:#000000;stroke-width:0.8"
                 id="use16" />
            </g>
          </g>
          <g
             id="text_3">
            <!-- −54000 -->
            <g
               transform="matrix(0.08,0,0,-0.08,221.66959,205.31875)"
               id="g22">
              <use
                 xlink:href="#DejaVuSans-2212"
                 id="use17" />
              <use
                 xlink:href="#DejaVuSans-35"
                 x="83.789062"
                 id="use18" />
              <use
                 xlink:href="#DejaVuSans-34"
                 x="147.41211"
                 id="use19" />
              <use
                 xlink:href="#DejaVuSans-30"
                 x="211.03516"
                 id="use20" />
              <use
                 xlink:href="#DejaVuSans-30"
                 x="274.6582"
                 id="use21" />
              <use
                 xlink:href="#DejaVuSans-30"
                 x="338.28125"
                 id="use22" />
            </g>
          </g>
        </g>
        <g
           id="xtick_4">
          <g
             id="line2d_4">
            <g
               id="g23">
              <use
                 xlink:href="#m6278e40521"
                 x="302.75342"
                 y="192.24001"
                 style="stroke:#000000;stroke-width:0.8"
                 id="use23" />
            </g>
          </g>
          <g
             id="text_4">
            <!-- −53800 -->
            <g
               transform="matrix(0.08,0,0,-0.08,286.67654,205.31875)"
               id="g29">
              <defs
                 id="defs23">
                <path
                   id="DejaVuSans-33"
                   d="m 2597,2516 q 453,-97 707,-404 255,-306 255,-756 0,-690 -475,-1069 -475,-378 -1350,-378 -293,0 -604,58 -311,58 -642,174 v 609 q 262,-153 574,-231 313,-78 654,-78 593,0 904,234 311,234 311,681 0,413 -289,645 -289,233 -804,233 h -544 v 519 h 569 q 465,0 712,186 247,186 247,536 0,359 -255,551 -254,193 -729,193 -260,0 -557,-57 -297,-56 -653,-174 v 562 q 360,100 674,150 314,50 592,50 719,0 1137,-327 419,-326 419,-882 0,-388 -222,-655 -222,-267 -631,-370 z"
                   transform="scale(0.015625)" />
                <path
                   id="DejaVuSans-38"
                   d="m 2034,2216 q -450,0 -708,-241 -257,-241 -257,-662 0,-422 257,-663 258,-241 708,-241 450,0 709,242 260,243 260,662 0,421 -258,662 -257,241 -711,241 z m -631,268 q -406,100 -633,378 -226,279 -226,679 0,559 398,884 399,325 1092,325 697,0 1094,-325 397,-325 397,-884 0,-400 -227,-679 -226,-278 -629,-378 456,-106 710,-416 255,-309 255,-755 Q 3634,634 3220,271 2806,-91 2034,-91 1263,-91 848,271 434,634 434,1313 q 0,446 256,755 257,310 713,416 z m -231,997 q 0,-362 226,-565 227,-203 636,-203 407,0 636,203 230,203 230,565 0,363 -230,566 -229,203 -636,203 -409,0 -636,-203 -226,-203 -226,-566 z"
                   transform="scale(0.015625)" />
              </defs>
              <use
                 xlink:href="#DejaVuSans-2212"
                 id="use24" />
              <use
                 xlink:href="#DejaVuSans-35"
                 x="83.789062"
                 id="use25" />
              <use
                 xlink:href="#DejaVuSans-33"
                 x="147.41211"
                 id="use26" />
              <use
                 xlink:href="#DejaVuSans-38"
                 x="211.03516"
                 id="use27" />
              <use
                 xlink:href="#DejaVuSans-30"
                 x="274.6582"
                 id="use28" />
              <use
                 xlink:href="#DejaVuSans-30"
                 x="338.28125"
                 id="use29" />
            </g>
          </g>
        </g>
        <g
           id="xtick_5">
          <g
             id="line2d_5">
            <g
               id="g30">
              <use
                 xlink:href="#m6278e40521"
                 x="367.76038"
                 y="192.24001"
                 style="stroke:#000000;stroke-width:0.8"
                 id="use30" />
            </g>
          </g>
          <g
             id="text_5">
            <!-- −53600 -->
            <g
               transform="matrix(0.08,0,0,-0.08,351.68349,205.31875)"
               id="g36">
              <defs
                 id="defs30">
                <path
                   id="DejaVuSans-36"
                   d="m 2113,2584 q -425,0 -674,-291 -248,-290 -248,-796 0,-503 248,-796 249,-292 674,-292 425,0 673,292 248,293 248,796 0,506 -248,796 -248,291 -673,291 z m 1253,1979 v -575 q -238,112 -480,171 -242,60 -480,60 -625,0 -955,-422 -329,-422 -376,-1275 184,272 462,417 279,145 613,145 703,0 1111,-427 408,-426 408,-1160 0,-719 -425,-1154 -425,-434 -1131,-434 -810,0 -1238,620 -428,621 -428,1799 0,1106 525,1764 525,658 1409,658 238,0 480,-47 242,-47 505,-140 z"
                   transform="scale(0.015625)" />
              </defs>
              <use
                 xlink:href="#DejaVuSans-2212"
                 id="use31" />
              <use
                 xlink:href="#DejaVuSans-35"
                 x="83.789062"
                 id="use32" />
              <use
                 xlink:href="#DejaVuSans-33"
                 x="147.41211"
                 id="use33" />
              <use
                 xlink:href="#DejaVuSans-36"
                 x="211.03516"
                 id="use34" />
              <use
                 xlink:href="#DejaVuSans-30"
                 x="274.6582"
                 id="use35" />
              <use
                 xlink:href="#DejaVuSans-30"
                 x="338.28125"
                 id="use36" />
            </g>
          </g>
        </g>
        <g
           id="text_6">
          <!-- elpd_loo (log) -->
          <g
             transform="matrix(0.085714,0,0,-0.085714,192.31272,217.49545)"
             id="g50">
            <defs
               id="defs36">
              <path
                 id="DejaVuSans-65"
                 d="M 3597,1894 V 1613 H 953 q 38,-594 358,-905 320,-311 892,-311 331,0 642,81 311,81 618,244 V 178 Q 3153,47 2828,-22 2503,-91 2169,-91 1331,-91 842,396 353,884 353,1716 q 0,859 464,1363 464,505 1252,505 706,0 1117,-455 411,-454 411,-1235 z m -575,169 q -6,471 -264,752 -258,282 -683,282 -481,0 -770,-272 -289,-272 -333,-766 z"
                 transform="scale(0.015625)" />
              <path
                 id="DejaVuSans-6c"
                 d="m 603,4863 h 575 V 0 H 603 Z"
                 transform="scale(0.015625)" />
              <path
                 id="DejaVuSans-70"
                 d="M 1159,525 V -1331 H 581 v 4831 h 578 v -531 q 182,312 458,463 277,152 661,152 638,0 1036,-506 399,-506 399,-1331 0,-825 -399,-1332 -398,-506 -1036,-506 -384,0 -661,152 -276,152 -458,464 z m 1957,1222 q 0,634 -261,995 -261,361 -717,361 -457,0 -718,-361 -261,-361 -261,-995 0,-634 261,-995 261,-361 718,-361 456,0 717,361 261,361 261,995 z"
                 transform="scale(0.015625)" />
              <path
                 id="DejaVuSans-64"
                 d="m 2906,2969 v 1894 h 575 V 0 H 2906 V 525 Q 2725,213 2448,61 2172,-91 1784,-91 1150,-91 751,415 353,922 353,1747 q 0,825 398,1331 399,506 1033,506 388,0 664,-152 277,-151 458,-463 z M 947,1747 q 0,-634 261,-995 261,-361 717,-361 456,0 718,361 263,361 263,995 0,634 -263,995 -262,361 -718,361 -456,0 -717,-361 -261,-361 -261,-995 z"
                 transform="scale(0.015625)" />
              <path
                 id="DejaVuSans-5f"
                 d="m 3263,-1063 v -446 H -63 v 446 z"
                 transform="scale(0.015625)" />
              <path
                 id="DejaVuSans-6f"
                 d="m 1959,3097 q -462,0 -731,-361 -269,-361 -269,-989 0,-628 267,-989 268,-361 733,-361 460,0 728,362 269,363 269,988 0,622 -269,986 -268,364 -728,364 z m 0,487 q 750,0 1178,-488 429,-487 429,-1349 Q 3566,888 3137,398 2709,-91 1959,-91 1206,-91 779,398 353,888 353,1747 q 0,862 426,1349 427,488 1180,488 z"
                 transform="scale(0.015625)" />
              <path
                 id="DejaVuSans-20"
                 transform="scale(0.015625)"
                 d="" />
              <path
                 id="DejaVuSans-28"
                 d="m 1984,4856 q -418,-718 -622,-1422 -203,-703 -203,-1425 0,-721 205,-1429 205,-708 620,-1424 h -500 q -468,735 -701,1444 -233,709 -233,1409 0,697 231,1403 232,707 703,1444 z"
                 transform="scale(0.015625)" />
              <path
                 id="DejaVuSans-67"
                 d="m 2906,1791 q 0,625 -258,968 -257,344 -723,344 -462,0 -720,-344 -258,-343 -258,-968 0,-622 258,-966 258,-344 720,-344 466,0 723,344 258,344 258,966 z M 3481,434 q 0,-893 -397,-1329 -396,-436 -1215,-436 -303,0 -572,45 -269,45 -522,139 v 559 q 253,-137 500,-202 247,-66 503,-66 566,0 847,295 281,295 281,892 V 616 Q 2728,306 2450,153 2172,0 1784,0 1141,0 747,490 353,981 353,1791 q 0,812 394,1302 394,491 1037,491 388,0 666,-153 278,-153 456,-462 v 531 h 575 z"
                 transform="scale(0.015625)" />
              <path
                 id="DejaVuSans-29"
                 d="m 513,4856 h 500 q 468,-737 701,-1444 233,-706 233,-1403 0,-700 -233,-1409 -233,-709 -701,-1444 H 513 q 415,716 620,1424 205,708 205,1429 0,722 -205,1425 -205,704 -620,1422 z"
                 transform="scale(0.015625)" />
            </defs>
            <use
               xlink:href="#DejaVuSans-65"
               id="use37" />
            <use
               xlink:href="#DejaVuSans-6c"
               x="61.523438"
               id="use38" />
            <use
               xlink:href="#DejaVuSans-70"
               x="89.306641"
               id="use39" />
            <use
               xlink:href="#DejaVuSans-64"
               x="152.7832"
               id="use40" />
            <use
               xlink:href="#DejaVuSans-5f"
               x="216.25977"
               id="use41" />
            <use
               xlink:href="#DejaVuSans-6c"
               x="266.25977"
               id="use42" />
            <use
               xlink:href="#DejaVuSans-6f"
               x="294.04297"
               id="use43" />
            <use
               xlink:href="#DejaVuSans-6f"
               x="355.22461"
               id="use44" />
            <use
               xlink:href="#DejaVuSans-20"
               x="416.40625"
               id="use45" />
            <use
               xlink:href="#DejaVuSans-28"
               x="448.19336"
               id="use46" />
            <use
               xlink:href="#DejaVuSans-6c"
               x="487.20703"
               id="use47" />
            <use
               xlink:href="#DejaVuSans-6f"
               x="514.99023"
               id="use48" />
            <use
               xlink:href="#DejaVuSans-67"
               x="576.17188"
               id="use49" />
            <use
               xlink:href="#DejaVuSans-29"
               x="639.64844"
               id="use50" />
          </g>
        </g>
      </g>
      <g
         id="matplotlib.axis_2">
        <g
           id="ytick_1">
          <g
             id="line2d_6">
            <defs
               id="defs50">
              <path
                 id="m966cdde713"
                 d="M 0,0 H -3.5"
                 style="stroke:#000000;stroke-width:0.8" />
            </defs>
            <g
               id="g51">
              <use
                 xlink:href="#m966cdde713"
                 x="54"
                 y="53.639999"
                 style="stroke:#000000;stroke-width:0.8"
                 id="use51" />
            </g>
          </g>
          <g
             id="text_7">
            <!-- Hierarchical -->
            <g
               transform="matrix(0.08,0,0,-0.08,-0.67625,56.679375)"
               id="g63">
              <defs
                 id="defs51">
                <path
                   id="DejaVuSans-48"
                   d="m 628,4666 h 631 V 2753 h 2294 v 1913 h 631 V 0 H 3553 V 2222 H 1259 V 0 H 628 Z"
                   transform="scale(0.015625)" />
                <path
                   id="DejaVuSans-69"
                   d="m 603,3500 h 575 V 0 H 603 Z m 0,1363 h 575 V 4134 H 603 Z"
                   transform="scale(0.015625)" />
                <path
                   id="DejaVuSans-72"
                   d="m 2631,2963 q -97,56 -211,82 -114,27 -251,27 -488,0 -749,-317 -261,-317 -261,-911 V 0 H 581 v 3500 h 578 v -544 q 182,319 472,473 291,155 707,155 59,0 131,-8 72,-7 159,-23 z"
                   transform="scale(0.015625)" />
                <path
                   id="DejaVuSans-61"
                   d="m 2194,1759 q -697,0 -966,-159 -269,-159 -269,-544 0,-306 202,-486 202,-179 548,-179 479,0 768,339 289,339 289,901 v 128 z m 1147,238 V 0 H 2766 V 531 Q 2569,213 2275,61 1981,-91 1556,-91 q -537,0 -855,302 -317,302 -317,808 0,590 395,890 396,300 1180,300 h 807 v 57 q 0,397 -261,614 -261,217 -733,217 -300,0 -585,-72 -284,-72 -546,-216 v 532 q 315,122 612,182 297,61 578,61 760,0 1135,-394 375,-393 375,-1193 z"
                   transform="scale(0.015625)" />
                <path
                   id="DejaVuSans-63"
                   d="m 3122,3366 v -538 q -244,135 -489,202 -245,67 -495,67 -560,0 -870,-355 -309,-354 -309,-995 0,-641 309,-996 310,-354 870,-354 250,0 495,67 245,67 489,202 V 134 Q 2881,22 2623,-34 2366,-91 2075,-91 1284,-91 818,406 353,903 353,1747 q 0,856 470,1346 471,491 1290,491 265,0 518,-55 253,-54 491,-163 z"
                   transform="scale(0.015625)" />
                <path
                   id="DejaVuSans-68"
                   d="M 3513,2113 V 0 h -575 v 2094 q 0,497 -194,743 -194,247 -581,247 -466,0 -735,-297 -269,-296 -269,-809 V 0 H 581 v 4863 h 578 V 2956 q 207,316 486,472 280,156 646,156 603,0 912,-373 310,-373 310,-1098 z"
                   transform="scale(0.015625)" />
              </defs>
              <use
                 xlink:href="#DejaVuSans-48"
                 id="use52" />
              <use
                 xlink:href="#DejaVuSans-69"
                 x="75.195312"
                 id="use53" />
              <use
                 xlink:href="#DejaVuSans-65"
                 x="102.97852"
                 id="use54" />
              <use
                 xlink:href="#DejaVuSans-72"
                 x="164.50195"
                 id="use55" />
              <use
                 xlink:href="#DejaVuSans-61"
                 x="205.61523"
                 id="use56" />
              <use
                 xlink:href="#DejaVuSans-72"
                 x="266.89453"
                 id="use57" />
              <use
                 xlink:href="#DejaVuSans-63"
                 x="305.75781"
                 id="use58" />
              <use
                 xlink:href="#DejaVuSans-68"
                 x="360.73828"
                 id="use59" />
              <use
                 xlink:href="#DejaVuSans-69"
                 x="424.11719"
                 id="use60" />
              <use
                 xlink:href="#DejaVuSans-63"
                 x="451.90039"
                 id="use61" />
              <use
                 xlink:href="#DejaVuSans-61"
                 x="506.88086"
                 id="use62" />
              <use
                 xlink:href="#DejaVuSans-6c"
                 x="568.16016"
                 id="use63" />
            </g>
          </g>
        </g>
        <g
           id="ytick_3">
          <g
             id="line2d_8">
            <g
               id="g65">
              <use
                 xlink:href="#m966cdde713"
                 x="54"
                 y="109.08"
                 style="stroke:#000000;stroke-width:0.8"
                 id="use65" />
            </g>
          </g>
          <g
             id="text_8">
            <!-- No-pooled -->
            <g
               transform="matrix(0.08,0,0,-0.08,5.99125,112.11938)"
               id="g74">
              <defs
                 id="defs65">
                <path
                   id="DejaVuSans-4e"
                   d="m 628,4666 h 850 L 3547,763 v 3903 h 612 V 0 H 3309 L 1241,3903 V 0 H 628 Z"
                   transform="scale(0.015625)" />
                <path
                   id="DejaVuSans-2d"
                   d="M 313,2009 H 1997 V 1497 H 313 Z"
                   transform="scale(0.015625)" />
              </defs>
              <use
                 xlink:href="#DejaVuSans-4e"
                 id="use66" />
              <use
                 xlink:href="#DejaVuSans-6f"
                 x="74.804688"
                 id="use67" />
              <use
                 xlink:href="#DejaVuSans-2d"
                 x="137.86133"
                 id="use68" />
              <use
                 xlink:href="#DejaVuSans-70"
                 x="173.94531"
                 id="use69" />
              <use
                 xlink:href="#DejaVuSans-6f"
                 x="237.42188"
                 id="use70" />
              <use
                 xlink:href="#DejaVuSans-6f"
                 x="298.60352"
                 id="use71" />
              <use
                 xlink:href="#DejaVuSans-6c"
                 x="359.78516"
                 id="use72" />
              <use
                 xlink:href="#DejaVuSans-65"
                 x="387.56836"
                 id="use73" />
              <use
                 xlink:href="#DejaVuSans-64"
                 x="449.0918"
                 id="use74" />
            </g>
          </g>
        </g>
        <g
           id="ytick_5">
          <g
             id="line2d_10">
            <g
               id="g76">
              <use
                 xlink:href="#m966cdde713"
                 x="54"
                 y="164.52"
                 style="stroke:#000000;stroke-width:0.8"
                 id="use76" />
            </g>
          </g>
          <g
             id="text_9">
            <!-- Pooled -->
            <g
               transform="matrix(0.08,0,0,-0.08,20.4525,167.55937)"
               id="g82">
              <defs
                 id="defs76">
                <path
                   id="DejaVuSans-50"
                   d="M 1259,4147 V 2394 h 794 q 441,0 681,228 241,228 241,650 0,419 -241,647 -240,228 -681,228 z m -631,519 h 1425 q 785,0 1186,-355 402,-355 402,-1039 0,-691 -402,-1044 -401,-353 -1186,-353 H 1259 V 0 H 628 Z"
                   transform="scale(0.015625)" />
              </defs>
              <use
                 xlink:href="#DejaVuSans-50"
                 id="use77" />
              <use
                 xlink:href="#DejaVuSans-6f"
                 x="56.677734"
                 id="use78" />
              <use
                 xlink:href="#DejaVuSans-6f"
                 x="117.85938"
                 id="use79" />
              <use
                 xlink:href="#DejaVuSans-6c"
                 x="179.04102"
                 id="use80" />
              <use
                 xlink:href="#DejaVuSans-65"
                 x="206.82422"
                 id="use81" />
              <use
                 xlink:href="#DejaVuSans-64"
                 x="268.34766"
                 id="use82" />
            </g>
          </g>
        </g>
        <g
           id="text_10">
          <!-- ranked models -->
          <g
             transform="matrix(0,-0.085714,-0.085714,0,-6.458839,140.80835)"
             id="g95">
            <defs
               id="defs82">
              <path
                 id="DejaVuSans-6e"
                 d="M 3513,2113 V 0 h -575 v 2094 q 0,497 -194,743 -194,247 -581,247 -466,0 -735,-297 -269,-296 -269,-809 V 0 H 581 v 3500 h 578 v -544 q 207,316 486,472 280,156 646,156 603,0 912,-373 310,-373 310,-1098 z"
                 transform="scale(0.015625)" />
              <path
                 id="DejaVuSans-6b"
                 d="m 581,4863 h 578 V 1991 l 1716,1509 h 734 L 1753,1863 3688,0 H 2938 L 1159,1709 V 0 H 581 Z"
                 transform="scale(0.015625)" />
              <path
                 id="DejaVuSans-6d"
                 d="m 3328,2828 q 216,388 516,572 300,184 706,184 547,0 844,-383 297,-382 297,-1088 V 0 h -578 v 2094 q 0,503 -179,746 -178,244 -543,244 -447,0 -707,-297 -259,-296 -259,-809 V 0 h -578 v 2094 q 0,506 -178,748 -178,242 -550,242 -441,0 -701,-298 -259,-298 -259,-808 V 0 H 581 v 3500 h 578 v -544 q 197,322 472,475 275,153 653,153 382,0 649,-194 267,-193 395,-562 z"
                 transform="scale(0.015625)" />
              <path
                 id="DejaVuSans-73"
                 d="m 2834,3397 v -544 q -243,125 -506,187 -262,63 -544,63 -428,0 -642,-131 -214,-131 -214,-394 0,-200 153,-314 153,-114 616,-217 l 197,-44 q 612,-131 870,-370 258,-239 258,-667 0,-488 -386,-773 Q 2250,-91 1575,-91 1294,-91 989,-36 684,19 347,128 v 594 q 319,-166 628,-249 309,-82 613,-82 406,0 624,139 219,139 219,392 0,234 -158,359 -157,125 -692,241 l -200,47 q -534,112 -772,345 -237,233 -237,639 0,494 350,762 350,269 994,269 318,0 599,-47 282,-46 519,-140 z"
                 transform="scale(0.015625)" />
            </defs>
            <use
               xlink:href="#DejaVuSans-72"
               id="use83" />
            <use
               xlink:href="#DejaVuSans-61"
               x="41.113281"
               id="use84" />
            <use
               xlink:href="#DejaVuSans-6e"
               x="102.39258"
               id="use85" />
            <use
               xlink:href="#DejaVuSans-6b"
               x="165.77148"
               id="use86" />
            <use
               xlink:href="#DejaVuSans-65"
               x="220.05664"
               id="use87" />
            <use
               xlink:href="#DejaVuSans-64"
               x="281.58008"
               id="use88" />
            <use
               xlink:href="#DejaVuSans-20"
               x="345.05664"
               id="use89" />
            <use
               xlink:href="#DejaVuSans-6d"
               x="376.84375"
               id="use90" />
            <use
               xlink:href="#DejaVuSans-6f"
               x="474.25586"
               id="use91" />
            <use
               xlink:href="#DejaVuSans-64"
               x="535.4375"
               id="use92" />
            <use
               xlink:href="#DejaVuSans-65"
               x="598.91406"
               id="use93" />
            <use
               xlink:href="#DejaVuSans-6c"
               x="660.4375"
               id="use94" />
            <use
               xlink:href="#DejaVuSans-73"
               x="688.2207"
               id="use95" />
          </g>
        </g>
      </g>
      <g
         id="LineCollection_1">
        <path
           d="m 329.10908,53.64 h 44.47274"
           clip-path="url(#p5e1188bf26)"
           style="fill:none;stroke:#000000;stroke-width:0.857143"
           id="path95" />
        <path
           d="m 175.29462,109.08 h 43.96821"
           clip-path="url(#p5e1188bf26)"
           style="fill:none;stroke:#000000;stroke-width:0.857143"
           id="path96" />
        <path
           d="M 69.218182,164.52 H 111.38383"
           clip-path="url(#p5e1188bf26)"
           style="fill:none;stroke:#000000;stroke-width:0.857143"
           id="path97" />
      </g>
      <g
         id="LineCollection_2">
        <path
           d="m 184.83071,95.22 h 24.89603"
           clip-path="url(#p5e1188bf26)"
           style="fill:none;stroke:#808080;stroke-width:0.857143"
           id="path98" />
        <path
           d="m 75.73172,150.66 h 29.13857"
           clip-path="url(#p5e1188bf26)"
           style="fill:none;stroke:#808080;stroke-width:0.857143"
           id="path99" />
      </g>
      <g
         id="line2d_11">
        <path
           d="M 351.34545,192.24 V 25.92"
           clip-path="url(#p5e1188bf26)"
           style="fill:none;stroke:#808080;stroke-width:0.857143;stroke-dasharray:3.17143, 1.37143;stroke-dashoffset:0"
           id="path100" />
      </g>
      <g
         id="line2d_12">
        <defs
           id="defs100">
          <path
             id="mabd299ccf4"
             d="M 0,3 C 0.795609,3 1.55874,2.683901 2.12132,2.12132 2.683901,1.55874 3,0.795609 3,0 3,-0.795609 2.683901,-1.55874 2.12132,-2.12132 1.55874,-2.683901 0.795609,-3 0,-3 -0.795609,-3 -1.55874,-2.683901 -2.12132,-2.12132 -2.683901,-1.55874 -3,-0.795609 -3,0 -3,0.795609 -2.683901,1.55874 -2.12132,2.12132 -1.55874,2.683901 -0.795609,3 0,3 Z"
             style="stroke:#000000;stroke-width:0.857143" />
        </defs>
        <g
           clip-path="url(#p5e1188bf26)"
           id="g102">
          <use
             xlink:href="#mabd299ccf4"
             x="351.34546"
             y="53.639999"
             style="fill:#ffffff;stroke:#000000;stroke-width:0.857143"
             id="use100" />
          <use
             xlink:href="#mabd299ccf4"
             x="197.27872"
             y="109.08"
             style="fill:#ffffff;stroke:#000000;stroke-width:0.857143"
             id="use101" />
          <use
             xlink:href="#mabd299ccf4"
             x="90.30101"
             y="164.52"
             style="fill:#ffffff;stroke:#000000;stroke-width:0.857143"
             id="use102" />
        </g>
      </g>
      <g
         id="line2d_13">
        <defs
           id="defs102">
          <path
             id="m4bde3dd1cb"
             d="M 0,-3 -3,3 H 3 Z"
             style="stroke:#808080;stroke-width:0.857143;stroke-linejoin:miter" />
        </defs>
        <g
           clip-path="url(#p5e1188bf26)"
           id="g104">
          <use
             xlink:href="#m4bde3dd1cb"
             x="197.27872"
             y="95.220001"
             style="fill:#808080;stroke:#808080;stroke-width:0.857143;stroke-linejoin:miter"
             id="use103" />
          <use
             xlink:href="#m4bde3dd1cb"
             x="90.30101"
             y="150.66"
             style="fill:#808080;stroke:#808080;stroke-width:0.857143;stroke-linejoin:miter"
             id="use104" />
        </g>
      </g>
      <g
         id="patch_3">
        <path
           d="M 54,192.24 V 25.92"
           style="fill:none;stroke:#000000;stroke-width:0.8;stroke-linecap:square;stroke-linejoin:miter"
           id="path104" />
      </g>
      <g
         id="patch_4">
        <path
           d="M 388.8,192.24 V 25.92"
           style="fill:none;stroke:#000000;stroke-width:0.8;stroke-linecap:square;stroke-linejoin:miter"
           id="path105" />
      </g>
      <g
         id="patch_5">
        <path
           d="M 54,192.24 H 388.8"
           style="fill:none;stroke:#000000;stroke-width:0.8;stroke-linecap:square;stroke-linejoin:miter"
           id="path106" />
      </g>
      <g
         id="patch_6">
        <path
           d="M 54,25.92 H 388.8"
           style="fill:none;stroke:#000000;stroke-width:0.8;stroke-linecap:square;stroke-linejoin:miter"
           id="path107" />
      </g>
      <g
         id="text_11">
        <!-- Model comparison -->
        <g
           transform="matrix(0.085714,0,0,-0.085714,182.14554,10.321875)"
           id="g122">
          <defs
             id="defs107">
            <path
               id="DejaVuSans-4d"
               d="m 628,4666 h 941 L 2759,1491 3956,4666 h 941 V 0 H 4281 V 4097 L 3078,897 H 2444 L 1241,4097 V 0 H 628 Z"
               transform="scale(0.015625)" />
          </defs>
          <use
             xlink:href="#DejaVuSans-4d"
             id="use107" />
          <use
             xlink:href="#DejaVuSans-6f"
             x="86.279297"
             id="use108" />
          <use
             xlink:href="#DejaVuSans-64"
             x="147.46094"
             id="use109" />
          <use
             xlink:href="#DejaVuSans-65"
             x="210.9375"
             id="use110" />
          <use
             xlink:href="#DejaVuSans-6c"
             x="272.46094"
             id="use111" />
          <use
             xlink:href="#DejaVuSans-20"
             x="300.24414"
             id="use112" />
          <use
             xlink:href="#DejaVuSans-63"
             x="332.03125"
             id="use113" />
          <use
             xlink:href="#DejaVuSans-6f"
             x="387.01172"
             id="use114" />
          <use
             xlink:href="#DejaVuSans-6d"
             x="448.19336"
             id="use115" />
          <use
             xlink:href="#DejaVuSans-70"
             x="545.60547"
             id="use116" />
          <use
             xlink:href="#DejaVuSans-61"
             x="609.08203"
             id="use117" />
          <use
             xlink:href="#DejaVuSans-72"
             x="670.36133"
             id="use118" />
          <use
             xlink:href="#DejaVuSans-69"
             x="711.47461"
             id="use119" />
          <use
             xlink:href="#DejaVuSans-73"
             x="739.25781"
             id="use120" />
          <use
             xlink:href="#DejaVuSans-6f"
             x="791.35742"
             id="use121" />
          <use
             xlink:href="#DejaVuSans-6e"
             x="852.53906"
             id="use122" />
        </g>
        <!-- higher is better -->
        <g
           transform="matrix(0.085714,0,0,-0.085714,188.3933,19.92)"
           id="g138">
          <defs
             id="defs122">
            <path
               id="DejaVuSans-62"
               d="m 3116,1747 q 0,634 -261,995 -261,361 -717,361 -457,0 -718,-361 -261,-361 -261,-995 0,-634 261,-995 261,-361 718,-361 456,0 717,361 261,361 261,995 z M 1159,2969 q 182,312 458,463 277,152 661,152 638,0 1036,-506 399,-506 399,-1331 Q 3713,922 3314,415 2916,-91 2278,-91 1894,-91 1617,61 1341,213 1159,525 V 0 H 581 v 4863 h 578 z"
               transform="scale(0.015625)" />
            <path
               id="DejaVuSans-74"
               d="M 1172,4494 V 3500 H 2356 V 3053 H 1172 V 1153 q 0,-428 117,-550 117,-122 477,-122 h 590 V 0 H 1766 Q 1100,0 847,248 594,497 594,1153 V 3053 H 172 v 447 h 422 v 994 z"
               transform="scale(0.015625)" />
          </defs>
          <use
             xlink:href="#DejaVuSans-68"
             id="use123" />
          <use
             xlink:href="#DejaVuSans-69"
             x="63.378906"
             id="use124" />
          <use
             xlink:href="#DejaVuSans-67"
             x="91.162109"
             id="use125" />
          <use
             xlink:href="#DejaVuSans-68"
             x="154.63867"
             id="use126" />
          <use
             xlink:href="#DejaVuSans-65"
             x="218.01758"
             id="use127" />
          <use
             xlink:href="#DejaVuSans-72"
             x="279.54102"
             id="use128" />
          <use
             xlink:href="#DejaVuSans-20"
             x="320.6543"
             id="use129" />
          <use
             xlink:href="#DejaVuSans-69"
             x="352.44141"
             id="use130" />
          <use
             xlink:href="#DejaVuSans-73"
             x="380.22461"
             id="use131" />
          <use
             xlink:href="#DejaVuSans-20"
             x="432.32422"
             id="use132" />
          <use
             xlink:href="#DejaVuSans-62"
             x="464.11133"
             id="use133" />
          <use
             xlink:href="#DejaVuSans-65"
             x="527.58789"
             id="use134" />
          <use
             xlink:href="#DejaVuSans-74"
             x="589.11133"
             id="use135" />
          <use
             xlink:href="#DejaVuSans-74"
             x="628.32031"
             id="use136" />
          <use
             xlink:href="#DejaVuSans-65"
             x="667.5293"
             id="use137" />
          <use
             xlink:href="#DejaVuSans-72"
             x="729.05273"
             id="use138" />
        </g>
      </g>
      <g
         id="legend_1">
        <g
           id="patch_7">
          <path
             d="m 398.148,57.939643 h 95.26875 q 1.71429,0 1.71429,-1.714286 V 31.92 q 0,-1.714286 -1.71429,-1.714286 H 398.148 q -1.71429,0 -1.71429,1.714286 v 24.305357 q 0,1.714286 1.71429,1.714286 z"
             style="opacity:0.8;fill:#ffffff;stroke:#cccccc;stroke-linejoin:miter"
             id="path138" />
        </g>
        <g
           id="LineCollection_3">
          <path
             d="m 404.148,37.147232 h 8.57143"
             style="fill:none;stroke:#000000;stroke-width:0.857143"
             id="path139" />
        </g>
        <g
           id="line2d_14" />
        <g
           id="line2d_15">
          <g
             id="g139">
            <use
               xlink:href="#mabd299ccf4"
               x="408.43372"
               y="37.147232"
               style="fill:#ffffff;stroke:#000000;stroke-width:0.857143"
               id="use139" />
          </g>
        </g>
        <g
           id="text_12">
          <!-- ELPD -->
          <g
             transform="matrix(0.085714,0,0,-0.085714,423.86229,40.147232)"
             id="g143">
            <defs
               id="defs139">
              <path
                 id="DejaVuSans-45"
                 d="M 628,4666 H 3578 V 4134 H 1259 V 2753 H 3481 V 2222 H 1259 V 531 H 3634 V 0 H 628 Z"
                 transform="scale(0.015625)" />
              <path
                 id="DejaVuSans-4c"
                 d="m 628,4666 h 631 V 531 H 3531 V 0 H 628 Z"
                 transform="scale(0.015625)" />
              <path
                 id="DejaVuSans-44"
                 d="M 1259,4147 V 519 h 763 q 966,0 1414,437 448,438 448,1382 0,937 -448,1373 -448,436 -1414,436 z m -631,519 h 1297 q 1356,0 1990,-564 635,-564 635,-1764 Q 4550,1131 3912,565 3275,0 1925,0 H 628 Z"
                 transform="scale(0.015625)" />
            </defs>
            <use
               xlink:href="#DejaVuSans-45"
               id="use140" />
            <use
               xlink:href="#DejaVuSans-4c"
               x="63.183594"
               id="use141" />
            <use
               xlink:href="#DejaVuSans-50"
               x="118.89648"
               id="use142" />
            <use
               xlink:href="#DejaVuSans-44"
               x="179.19922"
               id="use143" />
          </g>
        </g>
        <g
           id="LineCollection_4">
          <path
             d="m 404.148,49.728482 h 8.57143"
             style="fill:none;stroke:#808080;stroke-width:0.857143"
             id="path143" />
        </g>
        <g
           id="line2d_16" />
        <g
           id="line2d_17">
          <g
             id="g144">
            <use
               xlink:href="#m4bde3dd1cb"
               x="408.43372"
               y="49.728481"
               style="fill:#808080;stroke:#808080;stroke-width:0.857143;stroke-linejoin:miter"
               id="use144" />
          </g>
        </g>
        <g
           id="text_13">
          <!-- ELPD difference -->
          <g
             transform="matrix(0.085714,0,0,-0.085714,423.86229,52.728482)"
             id="g159">
            <defs
               id="defs144">
              <path
                 id="DejaVuSans-66"
                 d="m 2375,4863 v -479 h -550 q -309,0 -430,-125 -120,-125 -120,-450 v -309 h 947 V 3053 H 1275 V 0 H 697 V 3053 H 147 v 447 h 550 v 244 q 0,584 272,851 272,268 862,268 z"
                 transform="scale(0.015625)" />
            </defs>
            <use
               xlink:href="#DejaVuSans-45"
               id="use145" />
            <use
               xlink:href="#DejaVuSans-4c"
               x="63.183594"
               id="use146" />
            <use
               xlink:href="#DejaVuSans-50"
               x="118.89648"
               id="use147" />
            <use
               xlink:href="#DejaVuSans-44"
               x="179.19922"
               id="use148" />
            <use
               xlink:href="#DejaVuSans-20"
               x="256.20117"
               id="use149" />
            <use
               xlink:href="#DejaVuSans-64"
               x="287.98828"
               id="use150" />
            <use
               xlink:href="#DejaVuSans-69"
               x="351.46484"
               id="use151" />
            <use
               xlink:href="#DejaVuSans-66"
               x="379.24805"
               id="use152" />
            <use
               xlink:href="#DejaVuSans-66"
               x="414.45312"
               id="use153" />
            <use
               xlink:href="#DejaVuSans-65"
               x="449.6582"
               id="use154" />
            <use
               xlink:href="#DejaVuSans-72"
               x="511.18164"
               id="use155" />
            <use
               xlink:href="#DejaVuSans-65"
               x="550.04492"
               id="use156" />
            <use
               xlink:href="#DejaVuSans-6e"
               x="611.56836"
               id="use157" />
            <use
               xlink:href="#DejaVuSans-63"
               x="674.94727"
               id="use158" />
            <use
               xlink:href="#DejaVuSans-65"
               x="729.92773"
               id="use159" />
          </g>
        </g>
      </g>
    </g>
  </g>
  <defs
     id="defs159">
    <clipPath
       id="p5e1188bf26">
      <rect
         x="54"
         y="25.92"
         width="334.79999"
         height="166.32001"
         id="rect159" />
    </clipPath>
  </defs>
</svg>
