<?xml version="1.0" encoding="utf-8" standalone="no"?>
<!DOCTYPE svg PUBLIC "-//W3C//DTD SVG 1.1//EN"
  "http://www.w3.org/Graphics/SVG/1.1/DTD/svg11.dtd">
<svg xmlns:xlink="http://www.w3.org/1999/xlink" width="720pt" height="360pt" viewBox="0 0 720 360" xmlns="http://www.w3.org/2000/svg" version="1.1">
 <metadata>
  <rdf:RDF xmlns:dc="http://purl.org/dc/elements/1.1/" xmlns:cc="http://creativecommons.org/ns#" xmlns:rdf="http://www.w3.org/1999/02/22-rdf-syntax-ns#">
   <cc:Work>
    <dc:type rdf:resource="http://purl.org/dc/dcmitype/StillImage"/>
    <dc:date>2023-12-04T16:03:14.333879</dc:date>
    <dc:format>image/svg+xml</dc:format>
    <dc:creator>
     <cc:Agent>
      <dc:title>Matplotlib v3.8.0, https://matplotlib.org/</dc:title>
     </cc:Agent>
    </dc:creator>
   </cc:Work>
  </rdf:RDF>
 </metadata>
 <defs>
  <style type="text/css">*{stroke-linejoin: round; stroke-linecap: butt}</style>
 </defs>
 <g id="figure_1">
  <g id="patch_1">
   <path d="M 0 360 
L 720 360 
L 720 0 
L 0 0 
z
" style="fill: #ffffff"/>
  </g>
  <g id="axes_1">
   <g id="patch_2">
    <path d="M 90 320.4 
L 648 320.4 
L 648 43.2 
L 90 43.2 
z
" style="fill: #ffffff"/>
   </g>
   <g id="matplotlib.axis_1">
    <g id="xtick_1">
     <g id="line2d_1">
      <defs>
       <path id="mf18ac96878" d="M 0 0 
L 0 3.5 
" style="stroke: #000000; stroke-width: 0.8"/>
      </defs>
      <g>
       <use xlink:href="#mf18ac96878" x="145.8" y="320.4" style="stroke: #000000; stroke-width: 0.8"/>
      </g>
     </g>
     <g id="text_1">
      <!-- −4 -->
      <g transform="translate(142.114453 331.199219) scale(0.05 -0.05)">
       <defs>
        <path id="DejaVuSans-2212" d="M 678 2272 
L 4684 2272 
L 4684 1741 
L 678 1741 
L 678 2272 
z
" transform="scale(0.015625)"/>
        <path id="DejaVuSans-34" d="M 2419 4116 
L 825 1625 
L 2419 1625 
L 2419 4116 
z
M 2253 4666 
L 3047 4666 
L 3047 1625 
L 3713 1625 
L 3713 1100 
L 3047 1100 
L 3047 0 
L 2419 0 
L 2419 1100 
L 313 1100 
L 313 1709 
L 2253 4666 
z
" transform="scale(0.015625)"/>
       </defs>
       <use xlink:href="#DejaVuSans-2212"/>
       <use xlink:href="#DejaVuSans-34" x="83.789062"/>
      </g>
     </g>
    </g>
    <g id="xtick_2">
     <g id="line2d_2">
      <g>
       <use xlink:href="#mf18ac96878" x="257.4" y="320.4" style="stroke: #000000; stroke-width: 0.8"/>
      </g>
     </g>
     <g id="text_2">
      <!-- −2 -->
      <g transform="translate(253.714453 331.199219) scale(0.05 -0.05)">
       <defs>
        <path id="DejaVuSans-32" d="M 1228 531 
L 3431 531 
L 3431 0 
L 469 0 
L 469 531 
Q 828 903 1448 1529 
Q 2069 2156 2228 2338 
Q 2531 2678 2651 2914 
Q 2772 3150 2772 3378 
Q 2772 3750 2511 3984 
Q 2250 4219 1831 4219 
Q 1534 4219 1204 4116 
Q 875 4013 500 3803 
L 500 4441 
Q 881 4594 1212 4672 
Q 1544 4750 1819 4750 
Q 2544 4750 2975 4387 
Q 3406 4025 3406 3419 
Q 3406 3131 3298 2873 
Q 3191 2616 2906 2266 
Q 2828 2175 2409 1742 
Q 1991 1309 1228 531 
z
" transform="scale(0.015625)"/>
       </defs>
       <use xlink:href="#DejaVuSans-2212"/>
       <use xlink:href="#DejaVuSans-32" x="83.789062"/>
      </g>
     </g>
    </g>
    <g id="xtick_3">
     <g id="line2d_3">
      <g>
       <use xlink:href="#mf18ac96878" x="369" y="320.4" style="stroke: #000000; stroke-width: 0.8"/>
      </g>
     </g>
     <g id="text_3">
      <!-- 0 -->
      <g transform="translate(367.409375 331.199219) scale(0.05 -0.05)">
       <defs>
        <path id="DejaVuSans-30" d="M 2034 4250 
Q 1547 4250 1301 3770 
Q 1056 3291 1056 2328 
Q 1056 1369 1301 889 
Q 1547 409 2034 409 
Q 2525 409 2770 889 
Q 3016 1369 3016 2328 
Q 3016 3291 2770 3770 
Q 2525 4250 2034 4250 
z
M 2034 4750 
Q 2819 4750 3233 4129 
Q 3647 3509 3647 2328 
Q 3647 1150 3233 529 
Q 2819 -91 2034 -91 
Q 1250 -91 836 529 
Q 422 1150 422 2328 
Q 422 3509 836 4129 
Q 1250 4750 2034 4750 
z
" transform="scale(0.015625)"/>
       </defs>
       <use xlink:href="#DejaVuSans-30"/>
      </g>
     </g>
    </g>
    <g id="xtick_4">
     <g id="line2d_4">
      <g>
       <use xlink:href="#mf18ac96878" x="480.6" y="320.4" style="stroke: #000000; stroke-width: 0.8"/>
      </g>
     </g>
     <g id="text_4">
      <!-- 2 -->
      <g transform="translate(479.009375 331.199219) scale(0.05 -0.05)">
       <use xlink:href="#DejaVuSans-32"/>
      </g>
     </g>
    </g>
    <g id="xtick_5">
     <g id="line2d_5">
      <g>
       <use xlink:href="#mf18ac96878" x="592.2" y="320.4" style="stroke: #000000; stroke-width: 0.8"/>
      </g>
     </g>
     <g id="text_5">
      <!-- 4 -->
      <g transform="translate(590.609375 331.199219) scale(0.05 -0.05)">
       <use xlink:href="#DejaVuSans-34"/>
      </g>
     </g>
    </g>
   </g>
   <g id="matplotlib.axis_2">
    <g id="ytick_1">
     <g id="line2d_6">
      <defs>
       <path id="m274c9610d9" d="M 0 0 
L -3.5 0 
" style="stroke: #000000; stroke-width: 0.8"/>
      </defs>
      <g>
       <use xlink:href="#m274c9610d9" x="90" y="320.4" style="stroke: #000000; stroke-width: 0.8"/>
      </g>
     </g>
     <g id="text_6">
      <!-- 0.0 -->
      <g transform="translate(75.048438 322.299609) scale(0.05 -0.05)">
       <defs>
        <path id="DejaVuSans-2e" d="M 684 794 
L 1344 794 
L 1344 0 
L 684 0 
L 684 794 
z
" transform="scale(0.015625)"/>
       </defs>
       <use xlink:href="#DejaVuSans-30"/>
       <use xlink:href="#DejaVuSans-2e" x="63.623047"/>
       <use xlink:href="#DejaVuSans-30" x="95.410156"/>
      </g>
     </g>
    </g>
    <g id="ytick_2">
     <g id="line2d_7">
      <g>
       <use xlink:href="#m274c9610d9" x="90" y="268.065755" style="stroke: #000000; stroke-width: 0.8"/>
      </g>
     </g>
     <g id="text_7">
      <!-- 0.2 -->
      <g transform="translate(75.048438 269.965365) scale(0.05 -0.05)">
       <use xlink:href="#DejaVuSans-30"/>
       <use xlink:href="#DejaVuSans-2e" x="63.623047"/>
       <use xlink:href="#DejaVuSans-32" x="95.410156"/>
      </g>
     </g>
    </g>
    <g id="ytick_3">
     <g id="line2d_8">
      <g>
       <use xlink:href="#m274c9610d9" x="90" y="215.731511" style="stroke: #000000; stroke-width: 0.8"/>
      </g>
     </g>
     <g id="text_8">
      <!-- 0.4 -->
      <g transform="translate(75.048438 217.63112) scale(0.05 -0.05)">
       <use xlink:href="#DejaVuSans-30"/>
       <use xlink:href="#DejaVuSans-2e" x="63.623047"/>
       <use xlink:href="#DejaVuSans-34" x="95.410156"/>
      </g>
     </g>
    </g>
    <g id="ytick_4">
     <g id="line2d_9">
      <g>
       <use xlink:href="#m274c9610d9" x="90" y="163.397266" style="stroke: #000000; stroke-width: 0.8"/>
      </g>
     </g>
     <g id="text_9">
      <!-- 0.6 -->
      <g transform="translate(75.048438 165.296875) scale(0.05 -0.05)">
       <defs>
        <path id="DejaVuSans-36" d="M 2113 2584 
Q 1688 2584 1439 2293 
Q 1191 2003 1191 1497 
Q 1191 994 1439 701 
Q 1688 409 2113 409 
Q 2538 409 2786 701 
Q 3034 994 3034 1497 
Q 3034 2003 2786 2293 
Q 2538 2584 2113 2584 
z
M 3366 4563 
L 3366 3988 
Q 3128 4100 2886 4159 
Q 2644 4219 2406 4219 
Q 1781 4219 1451 3797 
Q 1122 3375 1075 2522 
Q 1259 2794 1537 2939 
Q 1816 3084 2150 3084 
Q 2853 3084 3261 2657 
Q 3669 2231 3669 1497 
Q 3669 778 3244 343 
Q 2819 -91 2113 -91 
Q 1303 -91 875 529 
Q 447 1150 447 2328 
Q 447 3434 972 4092 
Q 1497 4750 2381 4750 
Q 2619 4750 2861 4703 
Q 3103 4656 3366 4563 
z
" transform="scale(0.015625)"/>
       </defs>
       <use xlink:href="#DejaVuSans-30"/>
       <use xlink:href="#DejaVuSans-2e" x="63.623047"/>
       <use xlink:href="#DejaVuSans-36" x="95.410156"/>
      </g>
     </g>
    </g>
    <g id="ytick_5">
     <g id="line2d_10">
      <g>
       <use xlink:href="#m274c9610d9" x="90" y="111.063021" style="stroke: #000000; stroke-width: 0.8"/>
      </g>
     </g>
     <g id="text_10">
      <!-- 0.8 -->
      <g transform="translate(75.048438 112.962631) scale(0.05 -0.05)">
       <defs>
        <path id="DejaVuSans-38" d="M 2034 2216 
Q 1584 2216 1326 1975 
Q 1069 1734 1069 1313 
Q 1069 891 1326 650 
Q 1584 409 2034 409 
Q 2484 409 2743 651 
Q 3003 894 3003 1313 
Q 3003 1734 2745 1975 
Q 2488 2216 2034 2216 
z
M 1403 2484 
Q 997 2584 770 2862 
Q 544 3141 544 3541 
Q 544 4100 942 4425 
Q 1341 4750 2034 4750 
Q 2731 4750 3128 4425 
Q 3525 4100 3525 3541 
Q 3525 3141 3298 2862 
Q 3072 2584 2669 2484 
Q 3125 2378 3379 2068 
Q 3634 1759 3634 1313 
Q 3634 634 3220 271 
Q 2806 -91 2034 -91 
Q 1263 -91 848 271 
Q 434 634 434 1313 
Q 434 1759 690 2068 
Q 947 2378 1403 2484 
z
M 1172 3481 
Q 1172 3119 1398 2916 
Q 1625 2713 2034 2713 
Q 2441 2713 2670 2916 
Q 2900 3119 2900 3481 
Q 2900 3844 2670 4047 
Q 2441 4250 2034 4250 
Q 1625 4250 1398 4047 
Q 1172 3844 1172 3481 
z
" transform="scale(0.015625)"/>
       </defs>
       <use xlink:href="#DejaVuSans-30"/>
       <use xlink:href="#DejaVuSans-2e" x="63.623047"/>
       <use xlink:href="#DejaVuSans-38" x="95.410156"/>
      </g>
     </g>
    </g>
    <g id="ytick_6">
     <g id="line2d_11">
      <g>
       <use xlink:href="#m274c9610d9" x="90" y="58.728777" style="stroke: #000000; stroke-width: 0.8"/>
      </g>
     </g>
     <g id="text_11">
      <!-- 1.0 -->
      <g transform="translate(75.048438 60.628386) scale(0.05 -0.05)">
       <defs>
        <path id="DejaVuSans-31" d="M 794 531 
L 1825 531 
L 1825 4091 
L 703 3866 
L 703 4441 
L 1819 4666 
L 2450 4666 
L 2450 531 
L 3481 531 
L 3481 0 
L 794 0 
L 794 531 
z
" transform="scale(0.015625)"/>
       </defs>
       <use xlink:href="#DejaVuSans-31"/>
       <use xlink:href="#DejaVuSans-2e" x="63.623047"/>
       <use xlink:href="#DejaVuSans-30" x="95.410156"/>
      </g>
     </g>
    </g>
    <g id="text_12">
     <!-- Density -->
     <g transform="translate(70.008594 191.304297) rotate(-90) scale(0.05 -0.05)">
      <defs>
       <path id="DejaVuSans-44" d="M 1259 4147 
L 1259 519 
L 2022 519 
Q 2988 519 3436 956 
Q 3884 1394 3884 2338 
Q 3884 3275 3436 3711 
Q 2988 4147 2022 4147 
L 1259 4147 
z
M 628 4666 
L 1925 4666 
Q 3281 4666 3915 4102 
Q 4550 3538 4550 2338 
Q 4550 1131 3912 565 
Q 3275 0 1925 0 
L 628 0 
L 628 4666 
z
" transform="scale(0.015625)"/>
       <path id="DejaVuSans-65" d="M 3597 1894 
L 3597 1613 
L 953 1613 
Q 991 1019 1311 708 
Q 1631 397 2203 397 
Q 2534 397 2845 478 
Q 3156 559 3463 722 
L 3463 178 
Q 3153 47 2828 -22 
Q 2503 -91 2169 -91 
Q 1331 -91 842 396 
Q 353 884 353 1716 
Q 353 2575 817 3079 
Q 1281 3584 2069 3584 
Q 2775 3584 3186 3129 
Q 3597 2675 3597 1894 
z
M 3022 2063 
Q 3016 2534 2758 2815 
Q 2500 3097 2075 3097 
Q 1594 3097 1305 2825 
Q 1016 2553 972 2059 
L 3022 2063 
z
" transform="scale(0.015625)"/>
       <path id="DejaVuSans-6e" d="M 3513 2113 
L 3513 0 
L 2938 0 
L 2938 2094 
Q 2938 2591 2744 2837 
Q 2550 3084 2163 3084 
Q 1697 3084 1428 2787 
Q 1159 2491 1159 1978 
L 1159 0 
L 581 0 
L 581 3500 
L 1159 3500 
L 1159 2956 
Q 1366 3272 1645 3428 
Q 1925 3584 2291 3584 
Q 2894 3584 3203 3211 
Q 3513 2838 3513 2113 
z
" transform="scale(0.015625)"/>
       <path id="DejaVuSans-73" d="M 2834 3397 
L 2834 2853 
Q 2591 2978 2328 3040 
Q 2066 3103 1784 3103 
Q 1356 3103 1142 2972 
Q 928 2841 928 2578 
Q 928 2378 1081 2264 
Q 1234 2150 1697 2047 
L 1894 2003 
Q 2506 1872 2764 1633 
Q 3022 1394 3022 966 
Q 3022 478 2636 193 
Q 2250 -91 1575 -91 
Q 1294 -91 989 -36 
Q 684 19 347 128 
L 347 722 
Q 666 556 975 473 
Q 1284 391 1588 391 
Q 1994 391 2212 530 
Q 2431 669 2431 922 
Q 2431 1156 2273 1281 
Q 2116 1406 1581 1522 
L 1381 1569 
Q 847 1681 609 1914 
Q 372 2147 372 2553 
Q 372 3047 722 3315 
Q 1072 3584 1716 3584 
Q 2034 3584 2315 3537 
Q 2597 3491 2834 3397 
z
" transform="scale(0.015625)"/>
       <path id="DejaVuSans-69" d="M 603 3500 
L 1178 3500 
L 1178 0 
L 603 0 
L 603 3500 
z
M 603 4863 
L 1178 4863 
L 1178 4134 
L 603 4134 
L 603 4863 
z
" transform="scale(0.015625)"/>
       <path id="DejaVuSans-74" d="M 1172 4494 
L 1172 3500 
L 2356 3500 
L 2356 3053 
L 1172 3053 
L 1172 1153 
Q 1172 725 1289 603 
Q 1406 481 1766 481 
L 2356 481 
L 2356 0 
L 1766 0 
Q 1100 0 847 248 
Q 594 497 594 1153 
L 594 3053 
L 172 3053 
L 172 3500 
L 594 3500 
L 594 4494 
L 1172 4494 
z
" transform="scale(0.015625)"/>
       <path id="DejaVuSans-79" d="M 2059 -325 
Q 1816 -950 1584 -1140 
Q 1353 -1331 966 -1331 
L 506 -1331 
L 506 -850 
L 844 -850 
Q 1081 -850 1212 -737 
Q 1344 -625 1503 -206 
L 1606 56 
L 191 3500 
L 800 3500 
L 1894 763 
L 2988 3500 
L 3597 3500 
L 2059 -325 
z
" transform="scale(0.015625)"/>
      </defs>
      <use xlink:href="#DejaVuSans-44"/>
      <use xlink:href="#DejaVuSans-65" x="77.001953"/>
      <use xlink:href="#DejaVuSans-6e" x="138.525391"/>
      <use xlink:href="#DejaVuSans-73" x="201.904297"/>
      <use xlink:href="#DejaVuSans-69" x="254.003906"/>
      <use xlink:href="#DejaVuSans-74" x="281.787109"/>
      <use xlink:href="#DejaVuSans-79" x="320.996094"/>
     </g>
    </g>
   </g>
   <g id="line2d_12">
    <path d="M -1 314.760204 
L 16.802471 313.99182 
L 35.631644 312.947565 
L 54.460818 311.633724 
L 73.289992 310.033305 
L 92.119166 308.152805 
L 110.94834 306.024869 
L 139.1921 302.501378 
L 186.265035 296.456471 
L 205.094209 294.247539 
L 223.923383 292.28053 
L 242.752556 290.61676 
L 261.58173 289.301335 
L 280.410904 288.365516 
L 299.240078 287.830092 
L 318.069252 287.707972 
L 336.898426 288.004726 
L 355.727599 288.716755 
L 374.556773 289.827875 
L 393.385947 291.305863 
L 412.215121 293.100663 
L 431.044295 295.145495 
L 459.288055 298.506475 
L 506.36099 304.200542 
L 525.190164 306.303256 
L 544.019338 308.232075 
L 562.848512 309.960544 
L 581.677685 311.477209 
L 600.506859 312.783023 
L 619.336033 313.888588 
L 638.165207 314.811661 
L 666.408968 315.904714 
L 694.652728 316.726455 
L 721 317.324892 
L 721 317.324892 
" clip-path="url(#p4b6a8d7ecd)" style="fill: none; stroke: #1f77b4; stroke-width: 1.5; stroke-linecap: square"/>
   </g>
   <g id="line2d_13">
    <path d="M -1 317.320603 
L 24.181383 317.314376 
L 46.276477 317.120133 
L 68.371572 316.63901 
L 83.101635 316.117323 
L 97.831698 315.41391 
L 112.561761 314.516141 
L 127.291824 313.414569 
L 142.021887 312.101564 
L 156.75195 310.570679 
L 171.482013 308.817204 
L 186.212076 306.840101 
L 200.942139 304.645153 
L 215.672202 302.248825 
L 237.767297 298.34921 
L 289.322517 288.947372 
L 304.05258 286.592057 
L 318.782643 284.573075 
L 326.147675 283.719731 
L 333.512706 282.984422 
L 340.877738 282.375836 
L 348.242769 281.900971 
L 355.607801 281.564956 
L 362.972832 281.370908 
L 370.337864 281.319857 
L 377.702895 281.410718 
L 385.067927 281.640328 
L 392.432958 282.003538 
L 399.79799 282.493365 
L 414.528053 283.817006 
L 429.258116 285.527323 
L 443.988179 287.527495 
L 466.083273 290.854114 
L 510.273462 297.649718 
L 532.368557 300.7476 
L 554.463651 303.531999 
L 576.558746 305.983209 
L 598.65384 308.104032 
L 620.748935 309.90861 
L 642.844029 311.423096 
L 664.939124 312.689457 
L 694.39925 314.090005 
L 721 315.177692 
L 721 315.177692 
" clip-path="url(#p4b6a8d7ecd)" style="fill: none; stroke: #ff7f0e; stroke-width: 1.5; stroke-linecap: square"/>
   </g>
   <g id="line2d_14">
    <path d="M -1 311.511322 
L 95.06572 305.885028 
L 122.529249 304.576352 
L 156.85866 303.194881 
L 198.053954 301.58963 
L 218.651601 300.60312 
L 239.249248 299.374482 
L 259.846894 297.854713 
L 280.444541 296.058423 
L 342.237482 290.317504 
L 355.969247 289.378286 
L 369.701011 288.711226 
L 383.432776 288.369139 
L 397.16454 288.38592 
L 410.896305 288.772911 
L 424.628069 289.517785 
L 438.359834 290.586203 
L 452.091599 291.926062 
L 465.823363 293.473713 
L 486.42101 296.036694 
L 534.482186 302.154383 
L 555.079833 304.558204 
L 575.67748 306.776667 
L 596.275127 308.813302 
L 616.872774 310.673124 
L 637.47042 312.352202 
L 658.068067 313.839832 
L 678.665714 315.127394 
L 699.263361 316.216364 
L 721 317.164558 
L 721 317.164558 
" clip-path="url(#p4b6a8d7ecd)" style="fill: none; stroke: #2ca02c; stroke-width: 1.5; stroke-linecap: square"/>
   </g>
   <g id="line2d_15">
    <path d="M -1 320.358149 
L 33.773085 320.170104 
L 55.774297 319.825848 
L 73.375267 319.305111 
L 86.575995 318.706317 
L 99.776722 317.879528 
L 112.97745 316.782901 
L 126.178178 315.381172 
L 134.978663 314.264046 
L 143.779148 312.994907 
L 152.579633 311.571592 
L 161.380118 309.994843 
L 174.580845 307.351928 
L 187.781573 304.404251 
L 200.9823 301.206056 
L 222.983513 295.551639 
L 240.584483 291.044969 
L 253.785211 287.878724 
L 262.585696 285.938658 
L 271.386181 284.169964 
L 280.186666 282.593655 
L 288.987151 281.221567 
L 297.787636 280.056143 
L 306.588121 279.091264 
L 315.388606 278.314068 
L 324.189091 277.707551 
L 337.389818 277.078693 
L 350.590546 276.743854 
L 363.791273 276.681361 
L 376.992001 276.9055 
L 385.792486 277.235451 
L 394.592971 277.729823 
L 403.393456 278.405695 
L 412.193941 279.276637 
L 420.994426 280.35 
L 429.794911 281.625037 
L 438.595396 283.092081 
L 447.395881 284.73282 
L 460.596609 287.461758 
L 478.197579 291.42779 
L 508.999276 298.484157 
L 522.200004 301.277891 
L 535.400732 303.809681 
L 544.201217 305.31976 
L 553.001702 306.67016 
L 561.802187 307.850447 
L 570.602672 308.854856 
L 579.403157 309.682914 
L 588.203642 310.339948 
L 597.004127 310.837355 
L 610.204854 311.323711 
L 623.405582 311.572058 
L 676.208492 312.198341 
L 689.40922 312.676774 
L 702.609947 313.348531 
L 721 314.544828 
L 721 314.544828 
" clip-path="url(#p4b6a8d7ecd)" style="fill: none; stroke: #d62728; stroke-width: 1.5; stroke-linecap: square"/>
   </g>
   <g id="line2d_16">
    <path d="M 139.452205 320.35319 
L 161.002743 320.15555 
L 173.317336 319.852977 
L 182.553281 319.462133 
L 191.789226 318.877533 
L 201.025171 318.05721 
L 210.261115 316.977729 
L 219.49706 315.646146 
L 231.811653 313.560614 
L 259.519488 308.611347 
L 268.755433 307.191014 
L 281.070026 305.548183 
L 305.699212 302.422037 
L 314.935157 300.905155 
L 321.092454 299.672235 
L 327.24975 298.214395 
L 333.407047 296.49449 
L 339.564344 294.479805 
L 345.72164 292.143767 
L 351.878937 289.46849 
L 358.036233 286.448183 
L 364.19353 283.093046 
L 370.350826 279.433045 
L 376.508123 275.520748 
L 385.744068 269.352402 
L 398.058661 261.135358 
L 404.215958 257.317737 
L 410.373254 253.873051 
L 413.451902 252.3304 
L 416.530551 250.926902 
L 419.609199 249.675427 
L 422.687847 248.587249 
L 425.766496 247.67183 
L 428.845144 246.936659 
L 431.923792 246.387113 
L 435.00244 246.026365 
L 438.081089 245.85533 
L 441.159737 245.872666 
L 444.238385 246.074808 
L 447.317034 246.456054 
L 450.395682 247.008695 
L 453.47433 247.723191 
L 456.552978 248.588375 
L 459.631627 249.591705 
L 465.788923 251.957421 
L 471.94622 254.70337 
L 478.103517 257.709641 
L 490.41811 264.064884 
L 502.732703 270.327841 
L 511.968648 274.748531 
L 521.204593 278.906261 
L 533.519186 284.141325 
L 551.991075 291.679504 
L 567.384317 297.761105 
L 576.620262 301.199855 
L 585.856207 304.354492 
L 592.013503 306.251779 
L 598.1708 307.961135 
L 604.328096 309.47406 
L 610.485393 310.793217 
L 616.642689 311.931637 
L 625.878634 313.348317 
L 635.114579 314.49684 
L 647.429172 315.763067 
L 662.822414 317.113535 
L 678.215655 318.274041 
L 690.530248 319.027726 
L 702.844842 319.591786 
L 718.238083 320.037143 
L 721 320.090598 
L 721 320.090598 
" clip-path="url(#p4b6a8d7ecd)" style="fill: none; stroke: #9467bd; stroke-width: 1.5; stroke-linecap: square"/>
   </g>
   <g id="line2d_17">
    <path d="M 169.061646 320.354988 
L 187.303071 320.154757 
L 197.726742 319.851037 
L 208.150414 319.302834 
L 215.968167 318.681423 
L 223.785921 317.855951 
L 231.603674 316.824629 
L 239.421428 315.60359 
L 249.845099 313.728162 
L 260.268771 311.629547 
L 273.29836 308.749495 
L 283.722032 306.236591 
L 294.145703 303.479279 
L 301.963457 301.176154 
L 309.78121 298.578392 
L 314.993046 296.630512 
L 320.204882 294.470589 
L 325.416718 292.066858 
L 330.628553 289.392688 
L 335.840389 286.429617 
L 341.052225 283.169888 
L 346.264061 279.618261 
L 351.475896 275.793013 
L 356.687732 271.726146 
L 364.505486 265.275179 
L 385.352829 247.623523 
L 390.564664 243.554559 
L 395.7765 239.802038 
L 400.988336 236.452737 
L 403.594254 234.954534 
L 406.200171 233.586218 
L 408.806089 232.356064 
L 411.412007 231.271521 
L 414.017925 230.339168 
L 416.623843 229.564672 
L 419.229761 228.952789 
L 421.835679 228.507367 
L 424.441597 228.231384 
L 427.047514 228.126984 
L 429.653432 228.195545 
L 432.25935 228.43773 
L 434.865268 228.853554 
L 437.471186 229.442436 
L 440.077104 230.203243 
L 442.683022 231.134312 
L 445.288939 232.233455 
L 447.894857 233.497943 
L 450.500775 234.924465 
L 453.106693 236.509065 
L 455.712611 238.247063 
L 458.318529 240.132969 
L 463.530365 244.321903 
L 468.7422 249.012204 
L 473.954036 254.122136 
L 479.165872 259.551395 
L 489.589543 270.887738 
L 497.407297 279.288206 
L 502.619133 284.596035 
L 507.830968 289.538248 
L 513.042804 294.027458 
L 518.25464 298.004605 
L 520.860558 299.791017 
L 523.466475 301.441027 
L 526.072393 302.955636 
L 528.678311 304.337461 
L 531.284229 305.590564 
L 536.496065 307.732825 
L 541.707901 309.435748 
L 546.919736 310.761871 
L 552.131572 311.776393 
L 557.343408 312.542068 
L 562.555243 313.116011 
L 570.372997 313.725423 
L 583.402586 314.404365 
L 599.038094 315.241653 
L 609.461765 316.027166 
L 625.097272 317.489206 
L 638.126862 318.665711 
L 648.550533 319.392979 
L 658.974205 319.881436 
L 672.003794 320.209687 
L 687.639301 320.355791 
L 687.639301 320.355791 
" clip-path="url(#p4b6a8d7ecd)" style="fill: none; stroke: #8c564b; stroke-width: 1.5; stroke-linecap: square"/>
   </g>
   <g id="line2d_18">
    <path d="M 342.037266 319.604951 
L 344.023229 319.07828 
L 346.009191 318.260377 
L 347.333167 317.493259 
L 348.657142 316.497227 
L 349.981117 315.220928 
L 351.305092 313.607068 
L 352.629067 311.593453 
L 353.953042 309.114648 
L 355.277018 306.104294 
L 356.600993 302.49809 
L 357.924968 298.237366 
L 359.248943 293.273123 
L 360.572918 287.570314 
L 361.896893 281.112094 
L 363.882856 270.026619 
L 365.868819 257.38504 
L 368.516769 238.584059 
L 377.122607 174.933054 
L 379.10857 162.640054 
L 381.094533 151.91209 
L 383.080496 142.731082 
L 385.066458 134.877995 
L 387.052421 127.972892 
L 393.672297 105.894855 
L 396.320247 95.560724 
L 402.940123 68.32458 
L 404.264098 63.931893 
L 405.588073 60.374637 
L 406.250061 58.973235 
L 406.912048 57.854787 
L 407.574036 57.040636 
L 408.236023 56.549932 
L 408.898011 56.399352 
L 409.559999 56.602853 
L 410.221986 57.171463 
L 410.883974 58.113116 
L 411.545961 59.432534 
L 412.207949 61.131149 
L 412.869937 63.20708 
L 414.193912 68.466961 
L 415.517887 75.132791 
L 416.841862 83.078235 
L 418.827825 97.022995 
L 420.813787 112.784254 
L 424.785713 146.747587 
L 428.095651 174.314943 
L 430.743601 194.324998 
L 432.729564 207.827773 
L 434.715526 220.046378 
L 436.701489 231.111683 
L 439.349439 244.400818 
L 441.99739 256.423542 
L 444.64534 267.487721 
L 447.29329 277.696245 
L 449.941241 286.973477 
L 451.927203 293.219555 
L 453.913166 298.774372 
L 455.899129 303.587483 
L 457.885092 307.642133 
L 459.209067 309.932425 
L 460.533042 311.908461 
L 461.857017 313.590342 
L 463.180992 315.002397 
L 464.504967 316.171741 
L 465.828942 317.126865 
L 467.814905 318.220194 
L 469.800868 318.987178 
L 471.786831 319.508959 
L 473.772793 319.853247 
L 473.772793 319.853247 
" clip-path="url(#p4b6a8d7ecd)" style="fill: none; stroke: #e377c2; stroke-width: 1.5; stroke-linecap: square"/>
   </g>
   <g id="patch_3">
    <path d="M 90 320.4 
L 90 43.2 
" style="fill: none; stroke: #000000; stroke-width: 0.8; stroke-linejoin: miter; stroke-linecap: square"/>
   </g>
   <g id="patch_4">
    <path d="M 648 320.4 
L 648 43.2 
" style="fill: none; stroke: #000000; stroke-width: 0.8; stroke-linejoin: miter; stroke-linecap: square"/>
   </g>
   <g id="patch_5">
    <path d="M 90 320.4 
L 648 320.4 
" style="fill: none; stroke: #000000; stroke-width: 0.8; stroke-linejoin: miter; stroke-linecap: square"/>
   </g>
   <g id="patch_6">
    <path d="M 90 43.2 
L 648 43.2 
" style="fill: none; stroke: #000000; stroke-width: 0.8; stroke-linejoin: miter; stroke-linecap: square"/>
   </g>
   <g id="legend_1">
    <g id="patch_7">
     <path d="M 609.45 98.573437 
L 644.5 98.573437 
Q 645.5 98.573437 645.5 97.573437 
L 645.5 46.7 
Q 645.5 45.7 644.5 45.7 
L 609.45 45.7 
Q 608.45 45.7 608.45 46.7 
L 608.45 97.573437 
Q 608.45 98.573437 609.45 98.573437 
z
" style="fill: #ffffff; opacity: 0.8; stroke: #cccccc; stroke-linejoin: miter"/>
    </g>
    <g id="line2d_19">
     <path d="M 610.45 49.749219 
L 615.45 49.749219 
L 620.45 49.749219 
" style="fill: none; stroke: #1f77b4; stroke-width: 1.5; stroke-linecap: square"/>
    </g>
    <g id="text_13">
     <!-- 1996 -->
     <g transform="translate(624.45 51.499219) scale(0.05 -0.05)">
      <defs>
       <path id="DejaVuSans-39" d="M 703 97 
L 703 672 
Q 941 559 1184 500 
Q 1428 441 1663 441 
Q 2288 441 2617 861 
Q 2947 1281 2994 2138 
Q 2813 1869 2534 1725 
Q 2256 1581 1919 1581 
Q 1219 1581 811 2004 
Q 403 2428 403 3163 
Q 403 3881 828 4315 
Q 1253 4750 1959 4750 
Q 2769 4750 3195 4129 
Q 3622 3509 3622 2328 
Q 3622 1225 3098 567 
Q 2575 -91 1691 -91 
Q 1453 -91 1209 -44 
Q 966 3 703 97 
z
M 1959 2075 
Q 2384 2075 2632 2365 
Q 2881 2656 2881 3163 
Q 2881 3666 2632 3958 
Q 2384 4250 1959 4250 
Q 1534 4250 1286 3958 
Q 1038 3666 1038 3163 
Q 1038 2656 1286 2365 
Q 1534 2075 1959 2075 
z
" transform="scale(0.015625)"/>
      </defs>
      <use xlink:href="#DejaVuSans-31"/>
      <use xlink:href="#DejaVuSans-39" x="63.623047"/>
      <use xlink:href="#DejaVuSans-39" x="127.246094"/>
      <use xlink:href="#DejaVuSans-36" x="190.869141"/>
     </g>
    </g>
    <g id="line2d_20">
     <path d="M 610.45 57.088281 
L 615.45 57.088281 
L 620.45 57.088281 
" style="fill: none; stroke: #ff7f0e; stroke-width: 1.5; stroke-linecap: square"/>
    </g>
    <g id="text_14">
     <!-- 1998 -->
     <g transform="translate(624.45 58.838281) scale(0.05 -0.05)">
      <use xlink:href="#DejaVuSans-31"/>
      <use xlink:href="#DejaVuSans-39" x="63.623047"/>
      <use xlink:href="#DejaVuSans-39" x="127.246094"/>
      <use xlink:href="#DejaVuSans-38" x="190.869141"/>
     </g>
    </g>
    <g id="line2d_21">
     <path d="M 610.45 64.427344 
L 615.45 64.427344 
L 620.45 64.427344 
" style="fill: none; stroke: #2ca02c; stroke-width: 1.5; stroke-linecap: square"/>
    </g>
    <g id="text_15">
     <!-- 2000 -->
     <g transform="translate(624.45 66.177344) scale(0.05 -0.05)">
      <use xlink:href="#DejaVuSans-32"/>
      <use xlink:href="#DejaVuSans-30" x="63.623047"/>
      <use xlink:href="#DejaVuSans-30" x="127.246094"/>
      <use xlink:href="#DejaVuSans-30" x="190.869141"/>
     </g>
    </g>
    <g id="line2d_22">
     <path d="M 610.45 71.766406 
L 615.45 71.766406 
L 620.45 71.766406 
" style="fill: none; stroke: #d62728; stroke-width: 1.5; stroke-linecap: square"/>
    </g>
    <g id="text_16">
     <!-- 2002 -->
     <g transform="translate(624.45 73.516406) scale(0.05 -0.05)">
      <use xlink:href="#DejaVuSans-32"/>
      <use xlink:href="#DejaVuSans-30" x="63.623047"/>
      <use xlink:href="#DejaVuSans-30" x="127.246094"/>
      <use xlink:href="#DejaVuSans-32" x="190.869141"/>
     </g>
    </g>
    <g id="line2d_23">
     <path d="M 610.45 79.105469 
L 615.45 79.105469 
L 620.45 79.105469 
" style="fill: none; stroke: #9467bd; stroke-width: 1.5; stroke-linecap: square"/>
    </g>
    <g id="text_17">
     <!-- 2004 -->
     <g transform="translate(624.45 80.855469) scale(0.05 -0.05)">
      <use xlink:href="#DejaVuSans-32"/>
      <use xlink:href="#DejaVuSans-30" x="63.623047"/>
      <use xlink:href="#DejaVuSans-30" x="127.246094"/>
      <use xlink:href="#DejaVuSans-34" x="190.869141"/>
     </g>
    </g>
    <g id="line2d_24">
     <path d="M 610.45 86.444531 
L 615.45 86.444531 
L 620.45 86.444531 
" style="fill: none; stroke: #8c564b; stroke-width: 1.5; stroke-linecap: square"/>
    </g>
    <g id="text_18">
     <!-- 2006 -->
     <g transform="translate(624.45 88.194531) scale(0.05 -0.05)">
      <use xlink:href="#DejaVuSans-32"/>
      <use xlink:href="#DejaVuSans-30" x="63.623047"/>
      <use xlink:href="#DejaVuSans-30" x="127.246094"/>
      <use xlink:href="#DejaVuSans-36" x="190.869141"/>
     </g>
    </g>
    <g id="line2d_25">
     <path d="M 610.45 93.783594 
L 615.45 93.783594 
L 620.45 93.783594 
" style="fill: none; stroke: #e377c2; stroke-width: 1.5; stroke-linecap: square"/>
    </g>
    <g id="text_19">
     <!-- All data -->
     <g transform="translate(624.45 95.533594) scale(0.05 -0.05)">
      <defs>
       <path id="DejaVuSans-41" d="M 2188 4044 
L 1331 1722 
L 3047 1722 
L 2188 4044 
z
M 1831 4666 
L 2547 4666 
L 4325 0 
L 3669 0 
L 3244 1197 
L 1141 1197 
L 716 0 
L 50 0 
L 1831 4666 
z
" transform="scale(0.015625)"/>
       <path id="DejaVuSans-6c" d="M 603 4863 
L 1178 4863 
L 1178 0 
L 603 0 
L 603 4863 
z
" transform="scale(0.015625)"/>
       <path id="DejaVuSans-20" transform="scale(0.015625)"/>
       <path id="DejaVuSans-64" d="M 2906 2969 
L 2906 4863 
L 3481 4863 
L 3481 0 
L 2906 0 
L 2906 525 
Q 2725 213 2448 61 
Q 2172 -91 1784 -91 
Q 1150 -91 751 415 
Q 353 922 353 1747 
Q 353 2572 751 3078 
Q 1150 3584 1784 3584 
Q 2172 3584 2448 3432 
Q 2725 3281 2906 2969 
z
M 947 1747 
Q 947 1113 1208 752 
Q 1469 391 1925 391 
Q 2381 391 2643 752 
Q 2906 1113 2906 1747 
Q 2906 2381 2643 2742 
Q 2381 3103 1925 3103 
Q 1469 3103 1208 2742 
Q 947 2381 947 1747 
z
" transform="scale(0.015625)"/>
       <path id="DejaVuSans-61" d="M 2194 1759 
Q 1497 1759 1228 1600 
Q 959 1441 959 1056 
Q 959 750 1161 570 
Q 1363 391 1709 391 
Q 2188 391 2477 730 
Q 2766 1069 2766 1631 
L 2766 1759 
L 2194 1759 
z
M 3341 1997 
L 3341 0 
L 2766 0 
L 2766 531 
Q 2569 213 2275 61 
Q 1981 -91 1556 -91 
Q 1019 -91 701 211 
Q 384 513 384 1019 
Q 384 1609 779 1909 
Q 1175 2209 1959 2209 
L 2766 2209 
L 2766 2266 
Q 2766 2663 2505 2880 
Q 2244 3097 1772 3097 
Q 1472 3097 1187 3025 
Q 903 2953 641 2809 
L 641 3341 
Q 956 3463 1253 3523 
Q 1550 3584 1831 3584 
Q 2591 3584 2966 3190 
Q 3341 2797 3341 1997 
z
" transform="scale(0.015625)"/>
      </defs>
      <use xlink:href="#DejaVuSans-41"/>
      <use xlink:href="#DejaVuSans-6c" x="68.408203"/>
      <use xlink:href="#DejaVuSans-6c" x="96.191406"/>
      <use xlink:href="#DejaVuSans-20" x="123.974609"/>
      <use xlink:href="#DejaVuSans-64" x="155.761719"/>
      <use xlink:href="#DejaVuSans-61" x="219.238281"/>
      <use xlink:href="#DejaVuSans-74" x="280.517578"/>
      <use xlink:href="#DejaVuSans-61" x="319.726562"/>
     </g>
    </g>
   </g>
  </g>
 </g>
 <defs>
  <clipPath id="p4b6a8d7ecd">
   <rect x="90" y="43.2" width="558" height="277.2"/>
  </clipPath>
 </defs>
</svg>
