<?xml version="1.0" encoding="utf-8" standalone="no"?>
<!DOCTYPE svg PUBLIC "-//W3C//DTD SVG 1.1//EN"
  "http://www.w3.org/Graphics/SVG/1.1/DTD/svg11.dtd">
<svg xmlns:xlink="http://www.w3.org/1999/xlink" width="720pt" height="360pt" viewBox="0 0 720 360" xmlns="http://www.w3.org/2000/svg" version="1.1">
 <metadata>
  <rdf:RDF xmlns:dc="http://purl.org/dc/elements/1.1/" xmlns:cc="http://creativecommons.org/ns#" xmlns:rdf="http://www.w3.org/1999/02/22-rdf-syntax-ns#">
   <cc:Work>
    <dc:type rdf:resource="http://purl.org/dc/dcmitype/StillImage"/>
    <dc:date>2023-12-04T16:03:45.146011</dc:date>
    <dc:format>image/svg+xml</dc:format>
    <dc:creator>
     <cc:Agent>
      <dc:title>Matplotlib v3.8.0, https://matplotlib.org/</dc:title>
     </cc:Agent>
    </dc:creator>
   </cc:Work>
  </rdf:RDF>
 </metadata>
 <defs>
  <style type="text/css">*{stroke-linejoin: round; stroke-linecap: butt}</style>
 </defs>
 <g id="figure_1">
  <g id="patch_1">
   <path d="M 0 360 
L 720 360 
L 720 0 
L 0 0 
z
" style="fill: #ffffff"/>
  </g>
  <g id="axes_1">
   <g id="patch_2">
    <path d="M 90 320.4 
L 648 320.4 
L 648 43.2 
L 90 43.2 
z
" style="fill: #ffffff"/>
   </g>
   <g id="matplotlib.axis_1">
    <g id="xtick_1">
     <g id="line2d_1">
      <defs>
       <path id="ma49465fff2" d="M 0 0 
L 0 3.5 
" style="stroke: #000000; stroke-width: 0.8"/>
      </defs>
      <g>
       <use xlink:href="#ma49465fff2" x="140.727273" y="320.4" style="stroke: #000000; stroke-width: 0.8"/>
      </g>
     </g>
     <g id="text_1">
      <!-- 0 -->
      <g transform="translate(139.136648 331.199219) scale(0.05 -0.05)">
       <defs>
        <path id="DejaVuSans-30" d="M 2034 4250 
Q 1547 4250 1301 3770 
Q 1056 3291 1056 2328 
Q 1056 1369 1301 889 
Q 1547 409 2034 409 
Q 2525 409 2770 889 
Q 3016 1369 3016 2328 
Q 3016 3291 2770 3770 
Q 2525 4250 2034 4250 
z
M 2034 4750 
Q 2819 4750 3233 4129 
Q 3647 3509 3647 2328 
Q 3647 1150 3233 529 
Q 2819 -91 2034 -91 
Q 1250 -91 836 529 
Q 422 1150 422 2328 
Q 422 3509 836 4129 
Q 1250 4750 2034 4750 
z
" transform="scale(0.015625)"/>
       </defs>
       <use xlink:href="#DejaVuSans-30"/>
      </g>
     </g>
    </g>
    <g id="xtick_2">
     <g id="line2d_2">
      <g>
       <use xlink:href="#ma49465fff2" x="242.181818" y="320.4" style="stroke: #000000; stroke-width: 0.8"/>
      </g>
     </g>
     <g id="text_2">
      <!-- 2 -->
      <g transform="translate(240.591193 331.199219) scale(0.05 -0.05)">
       <defs>
        <path id="DejaVuSans-32" d="M 1228 531 
L 3431 531 
L 3431 0 
L 469 0 
L 469 531 
Q 828 903 1448 1529 
Q 2069 2156 2228 2338 
Q 2531 2678 2651 2914 
Q 2772 3150 2772 3378 
Q 2772 3750 2511 3984 
Q 2250 4219 1831 4219 
Q 1534 4219 1204 4116 
Q 875 4013 500 3803 
L 500 4441 
Q 881 4594 1212 4672 
Q 1544 4750 1819 4750 
Q 2544 4750 2975 4387 
Q 3406 4025 3406 3419 
Q 3406 3131 3298 2873 
Q 3191 2616 2906 2266 
Q 2828 2175 2409 1742 
Q 1991 1309 1228 531 
z
" transform="scale(0.015625)"/>
       </defs>
       <use xlink:href="#DejaVuSans-32"/>
      </g>
     </g>
    </g>
    <g id="xtick_3">
     <g id="line2d_3">
      <g>
       <use xlink:href="#ma49465fff2" x="343.636364" y="320.4" style="stroke: #000000; stroke-width: 0.8"/>
      </g>
     </g>
     <g id="text_3">
      <!-- 4 -->
      <g transform="translate(342.045739 331.199219) scale(0.05 -0.05)">
       <defs>
        <path id="DejaVuSans-34" d="M 2419 4116 
L 825 1625 
L 2419 1625 
L 2419 4116 
z
M 2253 4666 
L 3047 4666 
L 3047 1625 
L 3713 1625 
L 3713 1100 
L 3047 1100 
L 3047 0 
L 2419 0 
L 2419 1100 
L 313 1100 
L 313 1709 
L 2253 4666 
z
" transform="scale(0.015625)"/>
       </defs>
       <use xlink:href="#DejaVuSans-34"/>
      </g>
     </g>
    </g>
    <g id="xtick_4">
     <g id="line2d_4">
      <g>
       <use xlink:href="#ma49465fff2" x="445.090909" y="320.4" style="stroke: #000000; stroke-width: 0.8"/>
      </g>
     </g>
     <g id="text_4">
      <!-- 6 -->
      <g transform="translate(443.500284 331.199219) scale(0.05 -0.05)">
       <defs>
        <path id="DejaVuSans-36" d="M 2113 2584 
Q 1688 2584 1439 2293 
Q 1191 2003 1191 1497 
Q 1191 994 1439 701 
Q 1688 409 2113 409 
Q 2538 409 2786 701 
Q 3034 994 3034 1497 
Q 3034 2003 2786 2293 
Q 2538 2584 2113 2584 
z
M 3366 4563 
L 3366 3988 
Q 3128 4100 2886 4159 
Q 2644 4219 2406 4219 
Q 1781 4219 1451 3797 
Q 1122 3375 1075 2522 
Q 1259 2794 1537 2939 
Q 1816 3084 2150 3084 
Q 2853 3084 3261 2657 
Q 3669 2231 3669 1497 
Q 3669 778 3244 343 
Q 2819 -91 2113 -91 
Q 1303 -91 875 529 
Q 447 1150 447 2328 
Q 447 3434 972 4092 
Q 1497 4750 2381 4750 
Q 2619 4750 2861 4703 
Q 3103 4656 3366 4563 
z
" transform="scale(0.015625)"/>
       </defs>
       <use xlink:href="#DejaVuSans-36"/>
      </g>
     </g>
    </g>
    <g id="xtick_5">
     <g id="line2d_5">
      <g>
       <use xlink:href="#ma49465fff2" x="546.545455" y="320.4" style="stroke: #000000; stroke-width: 0.8"/>
      </g>
     </g>
     <g id="text_5">
      <!-- 8 -->
      <g transform="translate(544.95483 331.199219) scale(0.05 -0.05)">
       <defs>
        <path id="DejaVuSans-38" d="M 2034 2216 
Q 1584 2216 1326 1975 
Q 1069 1734 1069 1313 
Q 1069 891 1326 650 
Q 1584 409 2034 409 
Q 2484 409 2743 651 
Q 3003 894 3003 1313 
Q 3003 1734 2745 1975 
Q 2488 2216 2034 2216 
z
M 1403 2484 
Q 997 2584 770 2862 
Q 544 3141 544 3541 
Q 544 4100 942 4425 
Q 1341 4750 2034 4750 
Q 2731 4750 3128 4425 
Q 3525 4100 3525 3541 
Q 3525 3141 3298 2862 
Q 3072 2584 2669 2484 
Q 3125 2378 3379 2068 
Q 3634 1759 3634 1313 
Q 3634 634 3220 271 
Q 2806 -91 2034 -91 
Q 1263 -91 848 271 
Q 434 634 434 1313 
Q 434 1759 690 2068 
Q 947 2378 1403 2484 
z
M 1172 3481 
Q 1172 3119 1398 2916 
Q 1625 2713 2034 2713 
Q 2441 2713 2670 2916 
Q 2900 3119 2900 3481 
Q 2900 3844 2670 4047 
Q 2441 4250 2034 4250 
Q 1625 4250 1398 4047 
Q 1172 3844 1172 3481 
z
" transform="scale(0.015625)"/>
       </defs>
       <use xlink:href="#DejaVuSans-38"/>
      </g>
     </g>
    </g>
    <g id="xtick_6">
     <g id="line2d_6">
      <g>
       <use xlink:href="#ma49465fff2" x="648" y="320.4" style="stroke: #000000; stroke-width: 0.8"/>
      </g>
     </g>
     <g id="text_6">
      <!-- 10 -->
      <g transform="translate(644.81875 331.199219) scale(0.05 -0.05)">
       <defs>
        <path id="DejaVuSans-31" d="M 794 531 
L 1825 531 
L 1825 4091 
L 703 3866 
L 703 4441 
L 1819 4666 
L 2450 4666 
L 2450 531 
L 3481 531 
L 3481 0 
L 794 0 
L 794 531 
z
" transform="scale(0.015625)"/>
       </defs>
       <use xlink:href="#DejaVuSans-31"/>
       <use xlink:href="#DejaVuSans-30" x="63.623047"/>
      </g>
     </g>
    </g>
   </g>
   <g id="matplotlib.axis_2">
    <g id="ytick_1">
     <g id="line2d_7">
      <defs>
       <path id="m85e4f4fad6" d="M 0 0 
L -3.5 0 
" style="stroke: #000000; stroke-width: 0.8"/>
      </defs>
      <g>
       <use xlink:href="#m85e4f4fad6" x="90" y="320.4" style="stroke: #000000; stroke-width: 0.8"/>
      </g>
     </g>
     <g id="text_7">
      <!-- 0.0 -->
      <g transform="translate(75.048438 322.299609) scale(0.05 -0.05)">
       <defs>
        <path id="DejaVuSans-2e" d="M 684 794 
L 1344 794 
L 1344 0 
L 684 0 
L 684 794 
z
" transform="scale(0.015625)"/>
       </defs>
       <use xlink:href="#DejaVuSans-30"/>
       <use xlink:href="#DejaVuSans-2e" x="63.623047"/>
       <use xlink:href="#DejaVuSans-30" x="95.410156"/>
      </g>
     </g>
    </g>
    <g id="ytick_2">
     <g id="line2d_8">
      <g>
       <use xlink:href="#m85e4f4fad6" x="90" y="267.865791" style="stroke: #000000; stroke-width: 0.8"/>
      </g>
     </g>
     <g id="text_8">
      <!-- 0.5 -->
      <g transform="translate(75.048438 269.7654) scale(0.05 -0.05)">
       <defs>
        <path id="DejaVuSans-35" d="M 691 4666 
L 3169 4666 
L 3169 4134 
L 1269 4134 
L 1269 2991 
Q 1406 3038 1543 3061 
Q 1681 3084 1819 3084 
Q 2600 3084 3056 2656 
Q 3513 2228 3513 1497 
Q 3513 744 3044 326 
Q 2575 -91 1722 -91 
Q 1428 -91 1123 -41 
Q 819 9 494 109 
L 494 744 
Q 775 591 1075 516 
Q 1375 441 1709 441 
Q 2250 441 2565 725 
Q 2881 1009 2881 1497 
Q 2881 1984 2565 2268 
Q 2250 2553 1709 2553 
Q 1456 2553 1204 2497 
Q 953 2441 691 2322 
L 691 4666 
z
" transform="scale(0.015625)"/>
       </defs>
       <use xlink:href="#DejaVuSans-30"/>
       <use xlink:href="#DejaVuSans-2e" x="63.623047"/>
       <use xlink:href="#DejaVuSans-35" x="95.410156"/>
      </g>
     </g>
    </g>
    <g id="ytick_3">
     <g id="line2d_9">
      <g>
       <use xlink:href="#m85e4f4fad6" x="90" y="215.331582" style="stroke: #000000; stroke-width: 0.8"/>
      </g>
     </g>
     <g id="text_9">
      <!-- 1.0 -->
      <g transform="translate(75.048438 217.231191) scale(0.05 -0.05)">
       <use xlink:href="#DejaVuSans-31"/>
       <use xlink:href="#DejaVuSans-2e" x="63.623047"/>
       <use xlink:href="#DejaVuSans-30" x="95.410156"/>
      </g>
     </g>
    </g>
    <g id="ytick_4">
     <g id="line2d_10">
      <g>
       <use xlink:href="#m85e4f4fad6" x="90" y="162.797373" style="stroke: #000000; stroke-width: 0.8"/>
      </g>
     </g>
     <g id="text_10">
      <!-- 1.5 -->
      <g transform="translate(75.048438 164.696982) scale(0.05 -0.05)">
       <use xlink:href="#DejaVuSans-31"/>
       <use xlink:href="#DejaVuSans-2e" x="63.623047"/>
       <use xlink:href="#DejaVuSans-35" x="95.410156"/>
      </g>
     </g>
    </g>
    <g id="ytick_5">
     <g id="line2d_11">
      <g>
       <use xlink:href="#m85e4f4fad6" x="90" y="110.263164" style="stroke: #000000; stroke-width: 0.8"/>
      </g>
     </g>
     <g id="text_11">
      <!-- 2.0 -->
      <g transform="translate(75.048438 112.162773) scale(0.05 -0.05)">
       <use xlink:href="#DejaVuSans-32"/>
       <use xlink:href="#DejaVuSans-2e" x="63.623047"/>
       <use xlink:href="#DejaVuSans-30" x="95.410156"/>
      </g>
     </g>
    </g>
    <g id="ytick_6">
     <g id="line2d_12">
      <g>
       <use xlink:href="#m85e4f4fad6" x="90" y="57.728955" style="stroke: #000000; stroke-width: 0.8"/>
      </g>
     </g>
     <g id="text_12">
      <!-- 2.5 -->
      <g transform="translate(75.048438 59.628564) scale(0.05 -0.05)">
       <use xlink:href="#DejaVuSans-32"/>
       <use xlink:href="#DejaVuSans-2e" x="63.623047"/>
       <use xlink:href="#DejaVuSans-35" x="95.410156"/>
      </g>
     </g>
    </g>
    <g id="text_13">
     <!-- Density -->
     <g transform="translate(70.008594 191.304297) rotate(-90) scale(0.05 -0.05)">
      <defs>
       <path id="DejaVuSans-44" d="M 1259 4147 
L 1259 519 
L 2022 519 
Q 2988 519 3436 956 
Q 3884 1394 3884 2338 
Q 3884 3275 3436 3711 
Q 2988 4147 2022 4147 
L 1259 4147 
z
M 628 4666 
L 1925 4666 
Q 3281 4666 3915 4102 
Q 4550 3538 4550 2338 
Q 4550 1131 3912 565 
Q 3275 0 1925 0 
L 628 0 
L 628 4666 
z
" transform="scale(0.015625)"/>
       <path id="DejaVuSans-65" d="M 3597 1894 
L 3597 1613 
L 953 1613 
Q 991 1019 1311 708 
Q 1631 397 2203 397 
Q 2534 397 2845 478 
Q 3156 559 3463 722 
L 3463 178 
Q 3153 47 2828 -22 
Q 2503 -91 2169 -91 
Q 1331 -91 842 396 
Q 353 884 353 1716 
Q 353 2575 817 3079 
Q 1281 3584 2069 3584 
Q 2775 3584 3186 3129 
Q 3597 2675 3597 1894 
z
M 3022 2063 
Q 3016 2534 2758 2815 
Q 2500 3097 2075 3097 
Q 1594 3097 1305 2825 
Q 1016 2553 972 2059 
L 3022 2063 
z
" transform="scale(0.015625)"/>
       <path id="DejaVuSans-6e" d="M 3513 2113 
L 3513 0 
L 2938 0 
L 2938 2094 
Q 2938 2591 2744 2837 
Q 2550 3084 2163 3084 
Q 1697 3084 1428 2787 
Q 1159 2491 1159 1978 
L 1159 0 
L 581 0 
L 581 3500 
L 1159 3500 
L 1159 2956 
Q 1366 3272 1645 3428 
Q 1925 3584 2291 3584 
Q 2894 3584 3203 3211 
Q 3513 2838 3513 2113 
z
" transform="scale(0.015625)"/>
       <path id="DejaVuSans-73" d="M 2834 3397 
L 2834 2853 
Q 2591 2978 2328 3040 
Q 2066 3103 1784 3103 
Q 1356 3103 1142 2972 
Q 928 2841 928 2578 
Q 928 2378 1081 2264 
Q 1234 2150 1697 2047 
L 1894 2003 
Q 2506 1872 2764 1633 
Q 3022 1394 3022 966 
Q 3022 478 2636 193 
Q 2250 -91 1575 -91 
Q 1294 -91 989 -36 
Q 684 19 347 128 
L 347 722 
Q 666 556 975 473 
Q 1284 391 1588 391 
Q 1994 391 2212 530 
Q 2431 669 2431 922 
Q 2431 1156 2273 1281 
Q 2116 1406 1581 1522 
L 1381 1569 
Q 847 1681 609 1914 
Q 372 2147 372 2553 
Q 372 3047 722 3315 
Q 1072 3584 1716 3584 
Q 2034 3584 2315 3537 
Q 2597 3491 2834 3397 
z
" transform="scale(0.015625)"/>
       <path id="DejaVuSans-69" d="M 603 3500 
L 1178 3500 
L 1178 0 
L 603 0 
L 603 3500 
z
M 603 4863 
L 1178 4863 
L 1178 4134 
L 603 4134 
L 603 4863 
z
" transform="scale(0.015625)"/>
       <path id="DejaVuSans-74" d="M 1172 4494 
L 1172 3500 
L 2356 3500 
L 2356 3053 
L 1172 3053 
L 1172 1153 
Q 1172 725 1289 603 
Q 1406 481 1766 481 
L 2356 481 
L 2356 0 
L 1766 0 
Q 1100 0 847 248 
Q 594 497 594 1153 
L 594 3053 
L 172 3053 
L 172 3500 
L 594 3500 
L 594 4494 
L 1172 4494 
z
" transform="scale(0.015625)"/>
       <path id="DejaVuSans-79" d="M 2059 -325 
Q 1816 -950 1584 -1140 
Q 1353 -1331 966 -1331 
L 506 -1331 
L 506 -850 
L 844 -850 
Q 1081 -850 1212 -737 
Q 1344 -625 1503 -206 
L 1606 56 
L 191 3500 
L 800 3500 
L 1894 763 
L 2988 3500 
L 3597 3500 
L 2059 -325 
z
" transform="scale(0.015625)"/>
      </defs>
      <use xlink:href="#DejaVuSans-44"/>
      <use xlink:href="#DejaVuSans-65" x="77.001953"/>
      <use xlink:href="#DejaVuSans-6e" x="138.525391"/>
      <use xlink:href="#DejaVuSans-73" x="201.904297"/>
      <use xlink:href="#DejaVuSans-69" x="254.003906"/>
      <use xlink:href="#DejaVuSans-74" x="281.787109"/>
      <use xlink:href="#DejaVuSans-79" x="320.996094"/>
     </g>
    </g>
   </g>
   <g id="line2d_13">
    <path d="M -1 320.069381 
L 29.93982 319.663543 
L 68.225017 318.93931 
L 101.724564 318.144201 
L 120.867162 317.531315 
L 140.00976 316.677586 
L 154.366709 315.815222 
L 168.723658 314.734354 
L 183.080606 313.443326 
L 202.223205 311.478773 
L 235.722752 307.943973 
L 250.0797 306.625363 
L 264.436649 305.511986 
L 278.793598 304.621383 
L 293.150546 303.945473 
L 307.507495 303.464546 
L 321.864444 303.161449 
L 336.221393 303.031313 
L 350.578341 303.08499 
L 364.93529 303.346273 
L 379.292239 303.843618 
L 393.649187 304.597737 
L 408.006136 305.60806 
L 422.363085 306.84295 
L 441.505683 308.724776 
L 475.00523 312.071851 
L 489.362179 313.31839 
L 503.719127 314.383513 
L 518.076076 315.258132 
L 537.218674 316.156414 
L 556.361273 316.821204 
L 585.07517 317.574039 
L 628.146016 318.47495 
L 661.645563 318.973385 
L 721 319.537315 
L 721 319.537315 
" clip-path="url(#p2c0c288714)" style="fill: none; stroke: #1f77b4; stroke-width: 1.5; stroke-linecap: square"/>
   </g>
   <g id="line2d_14">
    <path d="M 49.177904 320.386374 
L 82.688201 320.257073 
L 100.966545 320.009415 
L 116.198498 319.613295 
L 131.430451 318.988511 
L 146.662404 318.122673 
L 164.940748 316.836533 
L 231.961342 311.741229 
L 241.100514 310.71663 
L 250.239686 309.427343 
L 259.378858 307.840221 
L 268.51803 305.972139 
L 280.703592 303.182865 
L 295.935545 299.688575 
L 305.074717 297.890548 
L 311.167498 296.914214 
L 317.26028 296.157012 
L 323.353061 295.641463 
L 329.445842 295.37729 
L 335.538623 295.361306 
L 341.631405 295.578238 
L 347.724186 296.002329 
L 356.863358 296.950794 
L 366.00253 298.151798 
L 393.420046 301.954616 
L 405.605608 303.319506 
L 420.837561 304.728579 
L 445.208686 306.928831 
L 460.440639 308.570999 
L 515.275671 314.855856 
L 530.507624 316.27322 
L 545.739577 317.489695 
L 560.97153 318.484656 
L 576.203484 319.241594 
L 591.435437 319.765576 
L 609.71378 320.134828 
L 631.038515 320.323929 
L 655.40964 320.386906 
L 655.40964 320.386906 
" clip-path="url(#p2c0c288714)" style="fill: none; stroke: #ff7f0e; stroke-width: 1.5; stroke-linecap: square"/>
   </g>
   <g id="line2d_15">
    <path d="M 83.054594 320.381783 
L 109.891091 320.243067 
L 125.99299 319.965016 
L 139.411239 319.525722 
L 152.829488 318.860247 
L 168.931386 317.815497 
L 206.502483 315.074576 
L 217.237082 314.136265 
L 227.971681 312.953501 
L 236.02263 311.854416 
L 244.073579 310.566563 
L 254.808178 308.610345 
L 281.644676 303.543085 
L 289.695625 302.272923 
L 297.746575 301.195123 
L 305.797524 300.307036 
L 316.532123 299.363961 
L 332.634021 298.230056 
L 364.837818 296.188806 
L 375.572418 295.794128 
L 383.623367 295.735624 
L 391.674316 295.932449 
L 399.725265 296.406375 
L 407.776215 297.155651 
L 415.827164 298.160368 
L 423.878113 299.390142 
L 431.929062 300.810591 
L 442.663661 302.939843 
L 456.08191 305.852028 
L 480.234758 311.137773 
L 490.969357 313.211392 
L 499.020306 314.574016 
L 507.071256 315.753742 
L 515.122205 316.751578 
L 525.856804 317.821905 
L 536.591403 318.636869 
L 547.326002 319.242633 
L 560.744251 319.764788 
L 576.846149 320.129905 
L 595.631698 320.320238 
L 617.100896 320.385742 
L 617.100896 320.385742 
" clip-path="url(#p2c0c288714)" style="fill: none; stroke: #2ca02c; stroke-width: 1.5; stroke-linecap: square"/>
   </g>
   <g id="line2d_16">
    <path d="M 175.526095 320.368137 
L 192.243954 320.187497 
L 201.531653 319.898178 
L 208.961813 319.493998 
L 216.391972 318.893213 
L 223.822132 318.079675 
L 231.252291 317.067688 
L 240.539991 315.579366 
L 251.68523 313.540372 
L 260.972929 311.610758 
L 268.403089 309.861097 
L 275.833248 307.897275 
L 285.120948 305.165086 
L 298.123727 301.024034 
L 318.556665 294.478694 
L 327.844365 291.722082 
L 335.274524 289.711225 
L 342.704684 287.914063 
L 350.134843 286.361175 
L 355.707463 285.392333 
L 361.280082 284.646704 
L 366.852702 284.197795 
L 370.567782 284.103387 
L 374.282861 284.197155 
L 377.997941 284.49219 
L 381.713021 284.991566 
L 385.428101 285.686961 
L 389.14318 286.559113 
L 394.7158 288.136132 
L 402.14596 290.566382 
L 417.006279 295.793919 
L 452.299536 308.276652 
L 459.729696 310.515914 
L 467.159855 312.494617 
L 474.590015 314.232198 
L 482.020174 315.752244 
L 489.450334 317.057432 
L 496.880493 318.131865 
L 504.310653 318.961598 
L 511.740812 319.553575 
L 519.170972 319.940216 
L 528.458671 320.209423 
L 541.46145 320.35578 
L 545.17653 320.372285 
L 545.17653 320.372285 
" clip-path="url(#p2c0c288714)" style="fill: none; stroke: #d62728; stroke-width: 1.5; stroke-linecap: square"/>
   </g>
   <g id="line2d_17">
    <path d="M 222.520655 320.360983 
L 233.080512 320.174133 
L 239.680423 319.834644 
L 244.960351 319.330932 
L 248.920297 318.768412 
L 252.880244 318.021584 
L 256.84019 317.083806 
L 262.120118 315.566263 
L 270.040011 312.947663 
L 277.959903 310.397575 
L 283.239832 308.943351 
L 291.159724 307.065553 
L 296.439653 305.710798 
L 300.399599 304.411424 
L 303.039563 303.330267 
L 305.679527 302.035218 
L 308.319491 300.500636 
L 310.959456 298.712692 
L 313.59942 296.670699 
L 316.239384 294.38746 
L 320.19933 290.570174 
L 324.159276 286.408235 
L 333.399151 276.496846 
L 336.039115 273.942735 
L 338.679079 271.655264 
L 341.319044 269.707341 
L 343.959008 268.161132 
L 346.598972 267.062652 
L 347.918954 266.690094 
L 349.238936 266.437083 
L 350.558918 266.30299 
L 351.8789 266.285602 
L 354.518865 266.584384 
L 357.158829 267.286101 
L 359.798793 268.323845 
L 362.438757 269.617034 
L 366.398703 271.845257 
L 372.998614 275.656344 
L 376.95856 277.67464 
L 380.918506 279.379466 
L 384.878453 280.792934 
L 391.478363 282.804986 
L 395.438309 284.072062 
L 399.398256 285.591882 
L 402.03822 286.813397 
L 404.678184 288.232035 
L 407.318148 289.85719 
L 409.958112 291.682068 
L 413.918059 294.74062 
L 419.197987 299.200444 
L 425.797898 304.801692 
L 429.757844 307.879994 
L 433.71779 310.603143 
L 436.357754 312.19214 
L 438.997718 313.594362 
L 441.637683 314.814164 
L 444.277647 315.861715 
L 448.237593 317.140976 
L 452.197539 318.117637 
L 456.157486 318.845423 
L 460.117432 319.373626 
L 465.39736 319.841381 
L 471.997271 320.16358 
L 481.237145 320.342424 
L 485.197092 320.370992 
L 485.197092 320.370992 
" clip-path="url(#p2c0c288714)" style="fill: none; stroke: #9467bd; stroke-width: 1.5; stroke-linecap: square"/>
   </g>
   <g id="line2d_18">
    <path d="M 227.208531 320.370363 
L 238.159227 320.219179 
L 245.003412 319.942534 
L 250.47876 319.534341 
L 255.954107 318.896972 
L 261.429455 317.985391 
L 265.535966 317.106718 
L 271.011314 315.67208 
L 276.486662 313.951435 
L 281.962009 311.984328 
L 290.175031 308.743832 
L 299.75689 304.973554 
L 316.182933 298.715027 
L 318.920607 297.391737 
L 321.658281 295.873705 
L 324.395955 294.120806 
L 327.133629 292.103131 
L 329.871303 289.805548 
L 332.608977 287.231736 
L 335.346651 284.407266 
L 339.453162 279.814453 
L 347.666183 270.420534 
L 350.403857 267.629161 
L 353.141531 265.195921 
L 355.879205 263.21519 
L 357.248042 262.417402 
L 358.616879 261.75652 
L 359.985716 261.236414 
L 361.354553 260.858883 
L 362.72339 260.62369 
L 364.092227 260.528667 
L 365.461064 260.569867 
L 366.829901 260.741787 
L 368.198738 261.037617 
L 370.936411 261.968987 
L 373.674085 263.294642 
L 376.411759 264.943346 
L 379.149433 266.849994 
L 383.255944 270.079891 
L 387.362455 273.646329 
L 391.468966 277.472576 
L 396.944314 282.866066 
L 406.526172 292.412239 
L 410.632683 296.172201 
L 414.739194 299.541443 
L 417.476868 301.535379 
L 420.214542 303.322885 
L 422.952216 304.914267 
L 427.058727 306.978798 
L 431.165237 308.735191 
L 436.640585 310.746788 
L 442.115933 312.516746 
L 448.960118 314.497025 
L 455.804303 316.235951 
L 461.27965 317.425849 
L 466.754998 318.405992 
L 472.230346 319.158652 
L 477.705694 319.689176 
L 484.549879 320.08874 
L 492.7629 320.305649 
L 499.607085 320.37076 
L 499.607085 320.37076 
" clip-path="url(#p2c0c288714)" style="fill: none; stroke: #8c564b; stroke-width: 1.5; stroke-linecap: square"/>
   </g>
   <g id="line2d_19">
    <path d="M 332.027291 319.922017 
L 333.159221 319.474426 
L 334.008169 318.931749 
L 334.857117 318.138077 
L 335.706065 317.015641 
L 336.555012 315.481393 
L 337.40396 313.455533 
L 338.252908 310.872977 
L 339.384838 306.504824 
L 340.516769 301.112637 
L 341.931682 293.224462 
L 348.723264 252.556581 
L 349.572212 245.814752 
L 350.42116 237.535592 
L 351.270108 227.305441 
L 352.119056 214.838232 
L 353.250986 194.611209 
L 354.665899 164.334413 
L 358.06169 88.105855 
L 358.910638 73.866634 
L 359.759586 63.501192 
L 360.325551 59.067509 
L 360.891517 56.75038 
L 361.174499 56.39959 
L 361.457482 56.585523 
L 361.740464 57.300987 
L 362.023447 58.534186 
L 362.589412 62.484446 
L 363.155377 68.256474 
L 364.004325 79.795157 
L 365.136256 98.981951 
L 368.249064 154.960513 
L 369.380995 171.250303 
L 370.512925 184.622842 
L 371.927838 198.453871 
L 374.757664 225.097047 
L 376.45556 244.026514 
L 379.851351 283.097656 
L 380.983282 293.653386 
L 382.115212 302.154145 
L 382.96416 307.152031 
L 383.813108 311.053812 
L 384.662055 313.994684 
L 385.511003 316.13607 
L 386.359951 317.643221 
L 387.208899 318.669044 
L 388.057847 319.344542 
L 388.340829 319.510811 
L 388.340829 319.510811 
" clip-path="url(#p2c0c288714)" style="fill: none; stroke: #e377c2; stroke-width: 1.5; stroke-linecap: square"/>
   </g>
   <g id="patch_3">
    <path d="M 90 320.4 
L 90 43.2 
" style="fill: none; stroke: #000000; stroke-width: 0.8; stroke-linejoin: miter; stroke-linecap: square"/>
   </g>
   <g id="patch_4">
    <path d="M 648 320.4 
L 648 43.2 
" style="fill: none; stroke: #000000; stroke-width: 0.8; stroke-linejoin: miter; stroke-linecap: square"/>
   </g>
   <g id="patch_5">
    <path d="M 90 320.4 
L 648 320.4 
" style="fill: none; stroke: #000000; stroke-width: 0.8; stroke-linejoin: miter; stroke-linecap: square"/>
   </g>
   <g id="patch_6">
    <path d="M 90 43.2 
L 648 43.2 
" style="fill: none; stroke: #000000; stroke-width: 0.8; stroke-linejoin: miter; stroke-linecap: square"/>
   </g>
   <g id="legend_1">
    <g id="patch_7">
     <path d="M 609.45 98.573437 
L 644.5 98.573437 
Q 645.5 98.573437 645.5 97.573437 
L 645.5 46.7 
Q 645.5 45.7 644.5 45.7 
L 609.45 45.7 
Q 608.45 45.7 608.45 46.7 
L 608.45 97.573437 
Q 608.45 98.573437 609.45 98.573437 
z
" style="fill: #ffffff; opacity: 0.8; stroke: #cccccc; stroke-linejoin: miter"/>
    </g>
    <g id="line2d_20">
     <path d="M 610.45 49.749219 
L 615.45 49.749219 
L 620.45 49.749219 
" style="fill: none; stroke: #1f77b4; stroke-width: 1.5; stroke-linecap: square"/>
    </g>
    <g id="text_14">
     <!-- 1996 -->
     <g transform="translate(624.45 51.499219) scale(0.05 -0.05)">
      <defs>
       <path id="DejaVuSans-39" d="M 703 97 
L 703 672 
Q 941 559 1184 500 
Q 1428 441 1663 441 
Q 2288 441 2617 861 
Q 2947 1281 2994 2138 
Q 2813 1869 2534 1725 
Q 2256 1581 1919 1581 
Q 1219 1581 811 2004 
Q 403 2428 403 3163 
Q 403 3881 828 4315 
Q 1253 4750 1959 4750 
Q 2769 4750 3195 4129 
Q 3622 3509 3622 2328 
Q 3622 1225 3098 567 
Q 2575 -91 1691 -91 
Q 1453 -91 1209 -44 
Q 966 3 703 97 
z
M 1959 2075 
Q 2384 2075 2632 2365 
Q 2881 2656 2881 3163 
Q 2881 3666 2632 3958 
Q 2384 4250 1959 4250 
Q 1534 4250 1286 3958 
Q 1038 3666 1038 3163 
Q 1038 2656 1286 2365 
Q 1534 2075 1959 2075 
z
" transform="scale(0.015625)"/>
      </defs>
      <use xlink:href="#DejaVuSans-31"/>
      <use xlink:href="#DejaVuSans-39" x="63.623047"/>
      <use xlink:href="#DejaVuSans-39" x="127.246094"/>
      <use xlink:href="#DejaVuSans-36" x="190.869141"/>
     </g>
    </g>
    <g id="line2d_21">
     <path d="M 610.45 57.088281 
L 615.45 57.088281 
L 620.45 57.088281 
" style="fill: none; stroke: #ff7f0e; stroke-width: 1.5; stroke-linecap: square"/>
    </g>
    <g id="text_15">
     <!-- 1998 -->
     <g transform="translate(624.45 58.838281) scale(0.05 -0.05)">
      <use xlink:href="#DejaVuSans-31"/>
      <use xlink:href="#DejaVuSans-39" x="63.623047"/>
      <use xlink:href="#DejaVuSans-39" x="127.246094"/>
      <use xlink:href="#DejaVuSans-38" x="190.869141"/>
     </g>
    </g>
    <g id="line2d_22">
     <path d="M 610.45 64.427344 
L 615.45 64.427344 
L 620.45 64.427344 
" style="fill: none; stroke: #2ca02c; stroke-width: 1.5; stroke-linecap: square"/>
    </g>
    <g id="text_16">
     <!-- 2000 -->
     <g transform="translate(624.45 66.177344) scale(0.05 -0.05)">
      <use xlink:href="#DejaVuSans-32"/>
      <use xlink:href="#DejaVuSans-30" x="63.623047"/>
      <use xlink:href="#DejaVuSans-30" x="127.246094"/>
      <use xlink:href="#DejaVuSans-30" x="190.869141"/>
     </g>
    </g>
    <g id="line2d_23">
     <path d="M 610.45 71.766406 
L 615.45 71.766406 
L 620.45 71.766406 
" style="fill: none; stroke: #d62728; stroke-width: 1.5; stroke-linecap: square"/>
    </g>
    <g id="text_17">
     <!-- 2002 -->
     <g transform="translate(624.45 73.516406) scale(0.05 -0.05)">
      <use xlink:href="#DejaVuSans-32"/>
      <use xlink:href="#DejaVuSans-30" x="63.623047"/>
      <use xlink:href="#DejaVuSans-30" x="127.246094"/>
      <use xlink:href="#DejaVuSans-32" x="190.869141"/>
     </g>
    </g>
    <g id="line2d_24">
     <path d="M 610.45 79.105469 
L 615.45 79.105469 
L 620.45 79.105469 
" style="fill: none; stroke: #9467bd; stroke-width: 1.5; stroke-linecap: square"/>
    </g>
    <g id="text_18">
     <!-- 2004 -->
     <g transform="translate(624.45 80.855469) scale(0.05 -0.05)">
      <use xlink:href="#DejaVuSans-32"/>
      <use xlink:href="#DejaVuSans-30" x="63.623047"/>
      <use xlink:href="#DejaVuSans-30" x="127.246094"/>
      <use xlink:href="#DejaVuSans-34" x="190.869141"/>
     </g>
    </g>
    <g id="line2d_25">
     <path d="M 610.45 86.444531 
L 615.45 86.444531 
L 620.45 86.444531 
" style="fill: none; stroke: #8c564b; stroke-width: 1.5; stroke-linecap: square"/>
    </g>
    <g id="text_19">
     <!-- 2006 -->
     <g transform="translate(624.45 88.194531) scale(0.05 -0.05)">
      <use xlink:href="#DejaVuSans-32"/>
      <use xlink:href="#DejaVuSans-30" x="63.623047"/>
      <use xlink:href="#DejaVuSans-30" x="127.246094"/>
      <use xlink:href="#DejaVuSans-36" x="190.869141"/>
     </g>
    </g>
    <g id="line2d_26">
     <path d="M 610.45 93.783594 
L 615.45 93.783594 
L 620.45 93.783594 
" style="fill: none; stroke: #e377c2; stroke-width: 1.5; stroke-linecap: square"/>
    </g>
    <g id="text_20">
     <!-- All data -->
     <g transform="translate(624.45 95.533594) scale(0.05 -0.05)">
      <defs>
       <path id="DejaVuSans-41" d="M 2188 4044 
L 1331 1722 
L 3047 1722 
L 2188 4044 
z
M 1831 4666 
L 2547 4666 
L 4325 0 
L 3669 0 
L 3244 1197 
L 1141 1197 
L 716 0 
L 50 0 
L 1831 4666 
z
" transform="scale(0.015625)"/>
       <path id="DejaVuSans-6c" d="M 603 4863 
L 1178 4863 
L 1178 0 
L 603 0 
L 603 4863 
z
" transform="scale(0.015625)"/>
       <path id="DejaVuSans-20" transform="scale(0.015625)"/>
       <path id="DejaVuSans-64" d="M 2906 2969 
L 2906 4863 
L 3481 4863 
L 3481 0 
L 2906 0 
L 2906 525 
Q 2725 213 2448 61 
Q 2172 -91 1784 -91 
Q 1150 -91 751 415 
Q 353 922 353 1747 
Q 353 2572 751 3078 
Q 1150 3584 1784 3584 
Q 2172 3584 2448 3432 
Q 2725 3281 2906 2969 
z
M 947 1747 
Q 947 1113 1208 752 
Q 1469 391 1925 391 
Q 2381 391 2643 752 
Q 2906 1113 2906 1747 
Q 2906 2381 2643 2742 
Q 2381 3103 1925 3103 
Q 1469 3103 1208 2742 
Q 947 2381 947 1747 
z
" transform="scale(0.015625)"/>
       <path id="DejaVuSans-61" d="M 2194 1759 
Q 1497 1759 1228 1600 
Q 959 1441 959 1056 
Q 959 750 1161 570 
Q 1363 391 1709 391 
Q 2188 391 2477 730 
Q 2766 1069 2766 1631 
L 2766 1759 
L 2194 1759 
z
M 3341 1997 
L 3341 0 
L 2766 0 
L 2766 531 
Q 2569 213 2275 61 
Q 1981 -91 1556 -91 
Q 1019 -91 701 211 
Q 384 513 384 1019 
Q 384 1609 779 1909 
Q 1175 2209 1959 2209 
L 2766 2209 
L 2766 2266 
Q 2766 2663 2505 2880 
Q 2244 3097 1772 3097 
Q 1472 3097 1187 3025 
Q 903 2953 641 2809 
L 641 3341 
Q 956 3463 1253 3523 
Q 1550 3584 1831 3584 
Q 2591 3584 2966 3190 
Q 3341 2797 3341 1997 
z
" transform="scale(0.015625)"/>
      </defs>
      <use xlink:href="#DejaVuSans-41"/>
      <use xlink:href="#DejaVuSans-6c" x="68.408203"/>
      <use xlink:href="#DejaVuSans-6c" x="96.191406"/>
      <use xlink:href="#DejaVuSans-20" x="123.974609"/>
      <use xlink:href="#DejaVuSans-64" x="155.761719"/>
      <use xlink:href="#DejaVuSans-61" x="219.238281"/>
      <use xlink:href="#DejaVuSans-74" x="280.517578"/>
      <use xlink:href="#DejaVuSans-61" x="319.726562"/>
     </g>
    </g>
   </g>
  </g>
 </g>
 <defs>
  <clipPath id="p2c0c288714">
   <rect x="90" y="43.2" width="558" height="277.2"/>
  </clipPath>
 </defs>
</svg>
